<svg width="32" height="33" viewBox="0 0 32 33" fill="none" xmlns="http://www.w3.org/2000/svg">
<rect y="0.514648" width="32" height="32" rx="6" fill="#FEF7F7"/>
<g clip-path="url(#clip0_2788_835)">
<path d="M16.3557 9.04785C20.9646 9.04785 24.7548 12.5563 25.2001 17.0479H23.4117C22.9744 13.5403 19.9824 10.8256 16.3557 10.8256C14.1655 10.8256 12.2064 11.8159 10.9024 13.3723L12.8001 15.2701H7.4668V9.93674L9.64191 12.111C11.2712 10.2354 13.6748 9.04785 16.3557 9.04785Z" fill="#EC6B6C"/>
<path d="M10.3076 24.5899C9.84802 24.5899 9.43869 24.5109 9.07963 24.3529C8.72262 24.1929 8.4405 23.9733 8.23327 23.6943C8.0281 23.4132 7.92243 23.089 7.91628 22.7218H9.25813C9.26634 22.8756 9.31661 23.0111 9.40894 23.128C9.50332 23.2429 9.62848 23.3322 9.78441 23.3958C9.94035 23.4594 10.1158 23.4912 10.3107 23.4912C10.5138 23.4912 10.6933 23.4553 10.8493 23.3835C11.0052 23.3116 11.1273 23.2121 11.2155 23.0849C11.3037 22.9577 11.3479 22.811 11.3479 22.6448C11.3479 22.4766 11.3007 22.3278 11.2063 22.1986C11.114 22.0672 10.9806 21.9647 10.8062 21.8908C10.6338 21.8169 10.4287 21.78 10.1907 21.78H9.60283V20.8013H10.1907C10.3917 20.8013 10.5692 20.7664 10.7231 20.6967C10.879 20.6269 11.0001 20.5305 11.0863 20.4074C11.1724 20.2822 11.2155 20.1365 11.2155 19.9703C11.2155 19.8124 11.1776 19.6739 11.1016 19.5549C11.0278 19.4338 10.9231 19.3394 10.7877 19.2717C10.6544 19.204 10.4984 19.1702 10.3199 19.1702C10.1394 19.1702 9.9742 19.203 9.82442 19.2686C9.67464 19.3322 9.55461 19.4235 9.46433 19.5425C9.37406 19.6616 9.32584 19.8011 9.31969 19.9611H8.04246C8.04861 19.5979 8.15223 19.2779 8.3533 19.0009C8.55438 18.7239 8.82521 18.5074 9.1658 18.3515C9.50845 18.1935 9.89521 18.1145 10.3261 18.1145C10.7611 18.1145 11.1417 18.1935 11.4679 18.3515C11.7941 18.5095 12.0475 18.7229 12.2281 18.9916C12.4107 19.2584 12.501 19.5579 12.4989 19.8903C12.501 20.2432 12.3912 20.5377 12.1696 20.7736C11.9501 21.0096 11.6638 21.1593 11.3109 21.2229V21.2722C11.7746 21.3317 12.1275 21.4928 12.3696 21.7554C12.6138 22.016 12.7349 22.3422 12.7328 22.7341C12.7349 23.0931 12.6312 23.4122 12.422 23.6912C12.2147 23.9703 11.9285 24.1898 11.5633 24.3498C11.1981 24.5099 10.7795 24.5899 10.3076 24.5899Z" fill="#EC6B6C"/>
<path d="M15.851 24.5899C15.5268 24.5878 15.2139 24.5335 14.9123 24.4268C14.6127 24.3201 14.344 24.1467 14.106 23.9067C13.8679 23.6666 13.6792 23.3486 13.5397 22.9526C13.4022 22.5566 13.3335 22.0703 13.3335 21.4938C13.3355 20.9644 13.396 20.4915 13.515 20.075C13.6361 19.6564 13.8084 19.3015 14.0321 19.0101C14.2578 18.7188 14.5276 18.4972 14.8415 18.3453C15.1554 18.1915 15.5073 18.1145 15.8971 18.1145C16.3178 18.1145 16.6891 18.1966 17.0113 18.3607C17.3334 18.5228 17.5919 18.7434 17.7868 19.0224C17.9838 19.3015 18.1028 19.6144 18.1438 19.9611H16.8297C16.7784 19.7416 16.6707 19.5692 16.5065 19.4441C16.3424 19.3189 16.1393 19.2563 15.8971 19.2563C15.4868 19.2563 15.1749 19.4348 14.9615 19.7918C14.7502 20.1488 14.6425 20.6341 14.6384 21.2476H14.6815C14.7759 21.0609 14.9031 20.9018 15.0631 20.7705C15.2252 20.6372 15.4088 20.5356 15.614 20.4658C15.8212 20.394 16.0397 20.3581 16.2695 20.3581C16.643 20.3581 16.9754 20.4464 17.2667 20.6228C17.5581 20.7972 17.7879 21.0373 17.9561 21.343C18.1243 21.6487 18.2085 21.9985 18.2085 22.3925C18.2085 22.8192 18.109 23.1988 17.9099 23.5312C17.713 23.8636 17.437 24.1241 17.082 24.3129C16.7291 24.4996 16.3188 24.5919 15.851 24.5899ZM15.8448 23.5435C16.05 23.5435 16.2336 23.4943 16.3957 23.3958C16.5578 23.2973 16.685 23.1639 16.7774 22.9957C16.8697 22.8274 16.9158 22.6387 16.9158 22.4294C16.9158 22.2201 16.8697 22.0324 16.7774 21.8662C16.6871 21.7 16.5619 21.5676 16.4019 21.4692C16.2418 21.3707 16.0592 21.3214 15.8541 21.3214C15.7002 21.3214 15.5576 21.3502 15.4263 21.4076C15.297 21.4651 15.1831 21.5451 15.0846 21.6477C14.9882 21.7502 14.9123 21.8693 14.8569 22.0047C14.8015 22.138 14.7738 22.2806 14.7738 22.4325C14.7738 22.6356 14.82 22.8213 14.9123 22.9895C15.0067 23.1578 15.1339 23.2922 15.2939 23.3927C15.456 23.4932 15.6396 23.5435 15.8448 23.5435Z" fill="#EC6B6C"/>
<path d="M21.4549 24.6422C20.9256 24.6402 20.4701 24.5099 20.0884 24.2514C19.7089 23.9928 19.4165 23.6184 19.2113 23.128C19.0082 22.6376 18.9076 22.0478 18.9097 21.3584C18.9097 20.671 19.0113 20.0852 19.2144 19.601C19.4196 19.1168 19.7119 18.7485 20.0915 18.4961C20.4731 18.2417 20.9276 18.1145 21.4549 18.1145C21.9822 18.1145 22.4357 18.2417 22.8152 18.4961C23.1969 18.7506 23.4903 19.1199 23.6954 19.6041C23.9006 20.0863 24.0022 20.671 24.0001 21.3584C24.0001 22.0498 23.8975 22.6407 23.6924 23.1311C23.4892 23.6215 23.1979 23.9959 22.8183 24.2544C22.4387 24.513 21.9843 24.6422 21.4549 24.6422ZM21.4549 23.5373C21.816 23.5373 22.1043 23.3558 22.3197 22.9926C22.5352 22.6294 22.6419 22.0847 22.6398 21.3584C22.6398 20.8803 22.5906 20.4823 22.4921 20.1642C22.3956 19.8462 22.2582 19.6072 22.0797 19.4471C21.9032 19.2871 21.695 19.2071 21.4549 19.2071C21.0959 19.2071 20.8086 19.3866 20.5932 19.7457C20.3777 20.1047 20.269 20.6423 20.2669 21.3584C20.2669 21.8426 20.3152 22.2468 20.4116 22.571C20.5101 22.8931 19.9642 24.1601 20.8271 23.2973C21.0056 23.4573 21.2149 23.5373 21.4549 23.5373Z" fill="#EC6B6C"/>
</g>
<defs>
<clipPath id="clip0_2788_835">
<rect width="21.3333" height="21.3333" fill="white" transform="translate(5.33398 5.84863)"/>
</clipPath>
</defs>
</svg>
