<svg version="1.2" xmlns="http://www.w3.org/2000/svg" viewBox="0 0 152 147" width="152" height="147"><style>.a{fill:#fff}.b{fill:none;stroke:#dddfe3}.c{fill:#6d7175}.d{fill:#202223}.e{fill:#fe701f}</style><circle class="a" cx="77" cy="75.5" r="68"/><circle class="b" cx="77" cy="75.5" r="67.5"/><path fill-rule="evenodd" class="c" d="m82.5 63.6c0 0 0.4 0.1 0.9 0.1 3.8 0.1 6.7 1.1 8.7 2.8 2.2 2 3.3 5.2 3.1 9.7-0.2 4.5-1.7 7.5-4.5 9.2-2.1 1.3-4.4 1.9-7.7 2.1-0.8 0.1-11.5 0.1-11.5 0.1 0-0.1-0.5-0.1-1-0.1-3.3-0.1-6-0.9-8-2.3-2.6-1.9-3.9-5.4-3.7-10.2 0.2-2.9 0.8-5 1.9-6.7 0.5-0.8 1.4-1.7 2.3-2.3 2.1-1.4 4.7-2.1 8-2.4 0.8 0 11.5 0 11.5 0zm-10.9 0.7c-0.2 0-0.4 0-0.4 0-0.6 0.1-1.4 0.3-1.8 0.5-1.8 0.9-2.8 2.6-3.2 5.4-0.3 1.7-0.3 2.2-0.3 5.6 0 2.1 0 3.3 0 3.7 0.2 2 0.6 3.6 1.1 4.7 1 1.9 2.4 2.6 5.6 2.7h1v-22.6h-0.9c-0.4 0-1 0-1.1 0zm9.7 0h-0.9v22.6h1.2c1.2 0 1.6 0 2.3-0.2 0.7-0.3 1.6-0.8 2.1-1.3 1.2-1.3 1.9-3.5 2.1-6.9 0.1-1 0.1-5.2 0-6.2-0.2-2.4-0.5-4.1-1.2-5.3-0.6-1.3-1.4-1.9-2.6-2.3-0.5-0.2-1-0.3-1.6-0.3-0.3-0.1-0.9-0.1-1.4-0.1z"/><path class="d" d="m35.4 113.5l8.2-7.1 1.1 1.2-8.3 7.1z"/><path class="d" d="m33.9 100.7l4.4-2.1 0.7 1.4-7.4 3.5-0.6-1.4 1.2-0.5-0.1-0.1q-0.7 0-1.3-0.4-0.6-0.4-1-1.2-0.4-0.7-0.3-1.5 0-0.7 0.5-1.3 0.5-0.6 1.4-1l4.7-2.3 0.6 1.5-4.5 2.1q-0.8 0.4-1 1-0.3 0.7 0.1 1.4 0.2 0.5 0.6 0.8 0.4 0.3 0.9 0.3 0.5 0 1.1-0.2z"/><path class="d" d="m25.5 84.9l1.3-0.2 0.7 4.4-1.3 0.2zm-1.3 3.6l-0.3-1.6 7.6-1.3q0.5-0.1 0.7-0.3 0.2-0.1 0.2-0.4 0.1-0.2 0-0.5 0-0.1 0-0.3-0.1-0.1-0.1-0.2l1.2-0.5q0.1 0.1 0.2 0.4 0.1 0.2 0.2 0.6 0.1 0.6-0.1 1.2-0.1 0.6-0.5 1-0.5 0.4-1.2 0.5z"/><path class="d" d="m33.7 73.2q-0.1 1.2-0.7 2.1-0.7 0.8-1.6 1.1-1 0.4-2.3 0.3-1.3-0.2-2.2-0.7-0.9-0.6-1.3-1.5-0.4-0.9-0.3-2.1 0.1-0.6 0.4-1.3 0.3-0.6 0.8-1.1 0.5-0.4 1.4-0.6 0.8-0.2 1.9-0.1h0.5l-0.7 6.5-1.2-0.1 0.6-4.9q-0.7-0.1-1.2 0.1-0.5 0.2-0.8 0.6-0.3 0.5-0.4 1.1-0.1 0.6 0.2 1.2 0.3 0.5 0.8 0.8 0.4 0.3 1.1 0.4l0.9 0.1q0.8 0.1 1.4-0.1 0.6-0.2 1-0.7 0.3-0.5 0.4-1.2 0-0.5 0-0.8-0.1-0.4-0.4-0.7-0.2-0.3-0.6-0.5l0.5-1.5q0.6 0.3 1.1 0.8 0.4 0.5 0.6 1.2 0.2 0.8 0.1 1.6z"/><path class="d" d="m35.8 63.4l-7.6-3.1 0.5-1.4 1.3 0.5v-0.1q-0.5-0.4-0.7-1.1-0.1-0.7 0.1-1.3 0.1-0.2 0.2-0.4 0.1-0.2 0.1-0.3l1.5 0.6q-0.1 0.1-0.2 0.3-0.2 0.2-0.3 0.4-0.2 0.6-0.1 1.1 0 0.5 0.3 0.9 0.3 0.4 0.8 0.6l4.7 1.8z"/><path class="d" d="m40.6 53.9l-6.8-4.7 0.9-1.3 6.8 4.7zm-7.3-6.1q-0.3 0.4-0.7 0.4-0.4 0.1-0.7-0.1-0.3-0.2-0.4-0.6 0-0.4 0.2-0.8 0.2-0.3 0.6-0.4 0.4-0.1 0.8 0.2 0.3 0.2 0.3 0.6 0.1 0.4-0.1 0.7z"/><path fill-rule="evenodd" class="d" d="m48.6 45q-0.8 0.7-1.8 0.9-1 0.1-2-0.3-1-0.4-1.8-1.4-0.8-1-1.1-2-0.2-1 0.1-2 0.3-0.9 1.2-1.7 0.9-0.7 1.9-0.9 1-0.1 2 0.3 0.9 0.4 1.7 1.4 0.9 1 1.1 2 0.3 1-0.1 2-0.3 1-1.2 1.7zm-0.8-1q0.6-0.5 0.7-1.1 0.1-0.6-0.1-1.3-0.3-0.7-0.8-1.3-0.5-0.6-1.1-0.9-0.6-0.4-1.2-0.4-0.7 0.1-1.2 0.5-0.6 0.5-0.7 1.1-0.2 0.7 0.1 1.3 0.2 0.7 0.7 1.3 0.5 0.6 1.1 0.9 0.6 0.4 1.3 0.4 0.6-0.1 1.2-0.5z"/><path class="d" d="m57.8 38.7l-3.3-7.5 1.5-0.6 0.5 1.2h0.1q-0.1-0.7 0.3-1.3 0.3-0.6 1-0.9 0.1 0 0.3-0.1 0.2-0.1 0.3-0.1l0.6 1.4q-0.1 0-0.3 0.1-0.2 0-0.5 0.1-0.5 0.3-0.8 0.7-0.3 0.3-0.4 0.8 0 0.5 0.2 1l2 4.6z"/><path class="d" d="m77.6 34.2l0.7-10.9 6.8 0.5-0.1 1.4-5.1-0.4-0.2 3.4 4.6 0.3-0.1 1.4-4.6-0.3-0.3 4.7z"/><path class="d" d="m97 34.9l1.7-4.5 1.5 0.6-3 7.6-1.4-0.5 0.5-1.4h-0.1q-0.5 0.5-1.2 0.7-0.8 0.2-1.6-0.2-0.8-0.3-1.2-0.8-0.4-0.6-0.5-1.3-0.1-0.8 0.3-1.7l1.9-4.9 1.5 0.6-1.9 4.7q-0.3 0.8 0 1.4 0.2 0.6 0.9 0.9 0.4 0.1 0.9 0.1 0.5 0 1-0.4 0.4-0.3 0.7-0.9z"/><path class="d" d="m103.1 42.2l4.9-6.5 1.3 0.9-0.8 1v0.1q0.6-0.4 1.3-0.4 0.7 0.1 1.3 0.5 0.1 0.1 0.2 0.2 0.2 0.2 0.3 0.3l-1 1.2q0-0.1-0.2-0.3-0.2-0.2-0.4-0.3-0.4-0.3-0.9-0.4-0.5-0.1-0.9 0.1-0.5 0.1-0.8 0.6l-3.1 3.9z"/><path class="d" d="m115.9 47.6l-3.9 2.9-1-1.3 6.6-4.9 0.9 1.2-1.1 0.8 0.1 0.1q0.7-0.2 1.4 0.1 0.6 0.2 1.2 1 0.5 0.6 0.6 1.4 0.1 0.7-0.3 1.4-0.3 0.6-1.1 1.3l-4.2 3.1-0.9-1.3 4-3q0.7-0.5 0.8-1.2 0.1-0.7-0.3-1.3-0.4-0.5-0.8-0.7-0.5-0.2-1-0.1-0.5 0.1-1 0.5z"/><path class="d" d="m118.2 60.8l7.6-3.1 0.6 1.5-7.6 3zm9-2.8q-0.1-0.4 0-0.7 0.2-0.4 0.5-0.6 0.4-0.1 0.8 0.1 0.3 0.1 0.5 0.5 0.2 0.4 0 0.8-0.1 0.4-0.5 0.5-0.4 0.1-0.7 0-0.4-0.2-0.6-0.6z"/><path class="d" d="m129.5 71.5l-1.2 0.2-0.7-4.4 1.2-0.3zm1.4-3.5l0.3 1.6-7.7 1.2q-0.4 0.1-0.6 0.3-0.2 0.2-0.3 0.4 0 0.2 0 0.5 0 0.2 0.1 0.3 0 0.1 0.1 0.2l-1.3 0.5q0-0.1-0.1-0.4-0.1-0.2-0.2-0.6-0.1-0.6 0-1.2 0.2-0.5 0.6-1 0.4-0.4 1.1-0.5z"/><path class="d" d="m124.6 85.1l4.8 0.6-0.2 1.5-8.1-0.9 0.2-1.5 1.4 0.1v-0.1q-0.6-0.3-1-1-0.4-0.6-0.3-1.6 0.1-0.7 0.6-1.3 0.4-0.6 1.1-0.8 0.7-0.3 1.7-0.2l5.2 0.6-0.2 1.6-5-0.6q-0.8-0.1-1.3 0.3-0.6 0.4-0.7 1.2 0 0.4 0.1 0.9 0.2 0.5 0.6 0.8 0.5 0.3 1.1 0.4z"/><path class="d" d="m119.2 92.9l7.6 3.1-0.6 1.4-1.2-0.5v0.1q0.5 0.5 0.6 1.1 0.2 0.7-0.1 1.4-0.1 0.1-0.2 0.3-0.1 0.2-0.1 0.3l-1.4-0.6q0-0.1 0.2-0.3 0.1-0.2 0.2-0.4 0.2-0.5 0.1-1 0-0.5-0.3-0.9-0.3-0.4-0.8-0.6l-4.6-1.9z"/><path class="d" d="m112.2 105.1q0.7-1 1.7-1.3 0.9-0.4 2-0.2 1 0.2 2 1 1 0.8 1.5 1.8 0.4 0.9 0.3 1.9-0.1 1-0.8 1.9-0.4 0.6-1 0.9-0.6 0.4-1.3 0.5-0.7 0.1-1.5-0.1-0.8-0.3-1.7-1l-0.4-0.3 4-5.1 1 0.7-3.1 3.9q0.5 0.4 1 0.5 0.6 0.1 1.1-0.1 0.5-0.2 0.9-0.7 0.4-0.5 0.4-1.1 0.1-0.6-0.2-1.1-0.2-0.6-0.7-0.9l-0.7-0.6q-0.7-0.5-1.3-0.7-0.6-0.1-1.2 0.1-0.5 0.3-1 0.8-0.3 0.4-0.4 0.7-0.1 0.4-0.1 0.8 0.1 0.4 0.3 0.7l-1.2 1q-0.4-0.5-0.5-1.2-0.1-0.7 0.1-1.4 0.2-0.7 0.8-1.4z"/><path class="e" d="m77 109.9l2.2 6.9h7.3l-5.9 4.3 2.3 6.9-5.9-4.3-5.9 4.3 2.3-6.9-5.9-4.3h7.3z"/><path class="e" d="m58.4 112.9l1.6 4.8h5.1l-4.1 3 1.5 4.8-4.1-2.9-4.1 2.9 1.6-4.8-4.1-3h5z"/><path class="e" d="m95.6 112.9l1.6 4.8h5l-4.1 3 1.6 4.8-4.1-2.9-4.1 2.9 1.5-4.8-4.1-3h5.1z"/></svg>