<svg width="57" height="57" viewBox="0 0 57 57" fill="none" xmlns="http://www.w3.org/2000/svg">
<rect x="0.109375" y="0.414062" width="56" height="56" rx="8" fill="#F5AEAF" fill-opacity="0.4"/>
<path fill-rule="evenodd" clip-rule="evenodd" d="M30.2495 18.8835C29.9255 18.488 29.4332 18.2357 28.882 18.2357H27.1285C26.5928 18.2357 26.1127 18.474 25.7887 18.8505C25.7544 18.8791 25.7212 18.9094 25.6893 18.9413C25.6696 18.961 25.6505 18.9813 25.632 19.002H25.6719C25.476 19.2865 25.3613 19.6313 25.3613 20.0028C25.3613 20.3736 25.4755 20.7178 25.6707 21.002H25.632C25.6505 21.0226 25.6696 21.0429 25.6893 21.0626C25.7196 21.0928 25.751 21.1217 25.7834 21.149C26.1075 21.529 26.5899 21.77 27.1285 21.77H28.882C29.4362 21.77 29.9308 21.5149 30.2548 21.1157C30.2738 21.0985 30.2924 21.0808 30.3107 21.0626C30.3304 21.0429 30.3495 21.0226 30.368 21.002H30.3398C30.5349 20.7178 30.6492 20.3736 30.6492 20.0028C30.6492 19.6313 30.5345 19.2865 30.3386 19.002H30.368C30.3495 18.9813 30.3304 18.961 30.3107 18.9413C30.2908 18.9214 30.2704 18.9021 30.2495 18.8835ZM31.7249 17.5271C32.1396 17.9418 32.4395 18.4499 32.6041 19.002H34.25C35.1783 19.002 36.0685 19.3707 36.7249 20.0271C37.3813 20.6835 37.75 21.5737 37.75 22.502V37.502C37.75 38.4302 37.3813 39.3204 36.7249 39.9768C36.0685 40.6332 35.1783 41.002 34.25 41.002H21.75C20.8217 41.002 19.9315 40.6332 19.2751 39.9768C18.6187 39.3204 18.25 38.4302 18.25 37.502V22.502C18.25 21.5737 18.6187 20.6835 19.2751 20.0271C19.9315 19.3707 20.8217 19.002 21.75 19.002H23.3959C23.5605 18.4499 23.8604 17.9418 24.2751 17.5271C24.9315 16.8707 25.8217 16.502 26.75 16.502H29.25C30.1783 16.502 31.0685 16.8707 31.7249 17.5271ZM24.2751 22.4768C23.8604 22.0621 23.5605 21.554 23.3959 21.002H21.75C21.3522 21.002 20.9706 21.16 20.6893 21.4413C20.408 21.7226 20.25 22.1041 20.25 22.502V37.502C20.25 37.8998 20.408 38.2813 20.6893 38.5626C20.9706 38.8439 21.3522 39.002 21.75 39.002H34.25C34.6478 39.002 35.0294 38.8439 35.3107 38.5626C35.592 38.2813 35.75 37.8998 35.75 37.502V22.502C35.75 22.1041 35.592 21.7226 35.3107 21.4413C35.0294 21.16 34.6478 21.002 34.25 21.002H32.6041C32.4395 21.554 32.1396 22.0621 31.7249 22.4768C31.0685 23.1332 30.1783 23.502 29.25 23.502H26.75C25.8217 23.502 24.9315 23.1332 24.2751 22.4768ZM24.25 27.752C23.6977 27.752 23.25 28.1997 23.25 28.752C23.25 29.3042 23.6977 29.752 24.25 29.752H24.2625C24.8148 29.752 25.2625 29.3042 25.2625 28.752C25.2625 28.1997 24.8148 27.752 24.2625 27.752H24.25ZM28 27.752C27.4477 27.752 27 28.1997 27 28.752C27 29.3042 27.4477 29.752 28 29.752H31.75C32.3023 29.752 32.75 29.3042 32.75 28.752C32.75 28.1997 32.3023 27.752 31.75 27.752H28ZM24.25 32.752C23.6977 32.752 23.25 33.1997 23.25 33.752C23.25 34.3042 23.6977 34.752 24.25 34.752H24.2625C24.8148 34.752 25.2625 34.3042 25.2625 33.752C25.2625 33.1997 24.8148 32.752 24.2625 32.752H24.25ZM28 32.752C27.4477 32.752 27 33.1997 27 33.752C27 34.3042 27.4477 34.752 28 34.752H31.75C32.3023 34.752 32.75 34.3042 32.75 33.752C32.75 33.1997 32.3023 32.752 31.75 32.752H28Z" fill="#EC6B6C"/>
</svg>
