<svg width="30" height="20" viewBox="0 0 30 20" fill="none" xmlns="http://www.w3.org/2000/svg">
<path fill-rule="evenodd" clip-rule="evenodd" d="M23.7149 0.156863C22.3419 0.451145 20.6157 1.52695 20.1196 2.3976C19.7177 3.10312 19.8707 3.58285 20.9323 4.94449C21.8686 6.1457 22.5929 7.56144 22.787 8.56954C22.8766 9.03535 22.8581 9.0882 22.6383 8.99579C21.9227 8.69526 20.326 8.58611 19.2237 8.76249C17.3556 9.06131 17.4793 9.10525 16.8884 7.93359C16.3746 6.9144 16.3687 6.88391 16.6257 6.57305C16.8627 6.28659 16.9199 6.27752 17.2039 6.48111C17.4781 6.67781 17.5547 6.67797 17.7951 6.48204C18.065 6.26219 18.0614 6.23624 17.6429 5.37575C17.4071 4.89133 17.1286 4.41644 17.0237 4.3209C16.716 4.03991 16.3571 4.39956 16.3571 4.98874C16.3571 5.58997 15.928 6.00794 15.715 5.61421C14.5173 3.39881 14.3453 3.22149 13.7487 3.58661C13.5334 3.71858 13.3363 3.98456 13.3109 4.17783C13.2827 4.39189 13.7453 5.51632 14.4946 7.05528C15.171 8.44476 15.697 9.65988 15.6634 9.75558C15.5896 9.9662 12.7929 10.9383 12.2734 10.9338C11.9444 10.931 11.878 10.8284 11.6663 9.99482C11.3646 8.8069 11.3679 8.69385 11.7134 8.35141C12.1383 7.93062 12.3036 7.10532 12.0991 6.42669C11.8953 5.74947 11.1473 5.1448 10.5146 5.14574C9.50986 5.14699 8.58457 6.33178 8.78971 7.35426C8.84014 7.60538 9.04814 8.02788 9.25214 8.29308L9.62286 8.77547L9.37129 9.81406C9.233 10.3851 9.07414 10.8711 9.01829 10.8938C7.81043 11.3846 7.39614 12.1023 7.31243 13.8491L7.24986 15.1526H6.76071C5.91486 15.1526 4.9794 15.1526 4.88353 15.1526C4.68076 15.1526 4.28455 15.1526 4.28455 15.1526C4.28455 15.1526 4.01614 15.1526 3.6 15.1526C3.14457 15.1526 2.5 15.1526 2.5 15.1526H2.08383H1.77011C1.77011 15.1526 1.75214 15.0763 1.22243 15.1699C0.866 15.2329 0.538 15.4235 0.329571 15.6889C0.0381428 16.0596 0 16.2712 0 17.5171C0 18.2919 0.066143 19.0613 0.147143 19.2267C0.536572 20.0232 0.0891428 19.9999 15 19.9999C29.9109 19.9999 29.4634 20.0232 29.8529 19.2267C29.9339 19.0613 30 18.2788 30 17.4877V16.0495L29.5 15.5333C29.0171 15.035 29 14.9779 28.9997 13.873C28.9996 12.5194 28.7286 11.8077 28.0146 11.2856C27.7476 11.0903 27.3459 10.9307 27.1217 10.9307C26.725 10.9307 26.7143 10.9088 26.7143 10.1035C26.7143 8.51184 26.0224 6.48986 24.9534 4.95685C24.2741 3.98268 24.1429 3.6823 24.1429 3.10203C24.1429 2.41996 24.6146 1.63875 25.37 1.06989C26.3234 0.351852 26.173 -0.0329657 24.9526 0.00221678C24.6251 0.0115988 24.0681 0.0811816 23.7149 0.156863ZM22.37 9.99247C22.9916 10.1643 24.2071 10.6924 25.0714 11.1655C25.9357 11.6389 26.8197 12.026 27.0357 12.0257C27.4604 12.0252 28 12.5062 28 12.8853C28 13.0915 26.8096 13.1198 18.1429 13.1198C7.70643 13.1198 8.01014 13.142 8.51029 12.4162C8.70371 12.1356 8.94972 12.0937 10.8987 12.0098C13.2161 11.9098 13.251 11.9009 16.9039 10.467C19.1126 9.59999 20.5126 9.4785 22.37 9.99247ZM28.9126 16.3302C29.1467 16.5863 29.2417 18.1285 29.0561 18.658C28.9779 18.8813 27.6066 18.9054 15 18.9054C2.39343 18.9054 1.02214 18.8813 0.943857 18.658C0.822572 18.312 0.839429 16.6742 0.966429 16.466C1.02414 16.3714 1.16786 16.2576 1.28571 16.213C1.40357 16.1685 7.616 16.1199 15.0911 16.105C27.4227 16.0804 28.7036 16.1014 28.9126 16.3302Z" fill="#EC6B6C"/>
</svg>
