<svg width="22" height="22" viewBox="0 0 22 22" fill="none" xmlns="http://www.w3.org/2000/svg">
<path d="M21.0834 10.4398C21.0873 11.9186 20.7417 13.3773 20.075 14.6972C19.2845 16.2789 18.0692 17.6093 16.5654 18.5393C15.0616 19.4694 13.3285 19.9623 11.5602 19.963C10.0815 19.9668 8.62272 19.6213 7.3028 18.9547L0.916687 21.0833L3.04539 14.6972C2.3787 13.3773 2.0332 11.9186 2.03706 10.4398C2.03775 8.67162 2.5307 6.93851 3.46073 5.43464C4.39076 3.93077 5.72112 2.71552 7.3028 1.92503C8.62272 1.25833 10.0815 0.912834 11.5602 0.916688H12.1204C14.4556 1.04552 16.6614 2.03119 18.315 3.68497C19.9688 5.33874 20.9545 7.54441 21.0834 9.87965V10.4398Z" stroke="#6D7175" stroke-width="1.5" stroke-linecap="round" stroke-linejoin="round"/>
</svg>
