<svg width="57" height="57" viewBox="0 0 57 57" fill="none" xmlns="http://www.w3.org/2000/svg">
<rect x="0.463867" y="0.720703" width="56" height="56" rx="8" fill="#FDF0F0"/>
<path d="M39.2438 22.6249C39.223 22.4149 39.1493 22.2135 39.0295 22.0397C38.9097 21.8659 38.7477 21.7253 38.5588 21.6312L28.5588 16.6312C28.3851 16.5443 28.1936 16.499 27.9994 16.499C27.8052 16.499 27.6137 16.5443 27.4401 16.6312L17.4401 21.6312C17.2516 21.7259 17.0902 21.8666 16.9707 22.0403C16.8511 22.214 16.7774 22.4151 16.7563 22.6249C16.7426 22.7587 15.5551 36.0837 27.4925 41.3924C27.6521 41.4644 27.8251 41.5016 28.0001 41.5016C28.175 41.5016 28.348 41.4644 28.5076 41.3924C40.4451 36.0837 39.2576 22.7599 39.2438 22.6249ZM28.0001 38.8712C19.5388 34.7812 19.1388 26.0524 19.2076 23.5437L28.0001 19.1474L36.7863 23.5412C36.8326 26.0274 36.3763 34.8137 28.0001 38.8712Z" fill="#EC6B6C"/>
<path d="M26.75 29.7325L23.8837 26.8662L22.1162 28.6337L26.75 33.2675L33.8837 26.1337L32.1162 24.3662L26.75 29.7325Z" fill="#EC6B6C"/>
</svg>
