<svg width="28" height="34" viewBox="0 0 28 34" fill="none" xmlns="http://www.w3.org/2000/svg">
<path fill-rule="evenodd" clip-rule="evenodd" d="M12.9928 0.0412565C9.72412 0.635358 7.39403 3.49222 7.39403 6.90579C7.39403 11.3483 9.50477 15.2714 12.461 16.3236C13.0917 16.5481 14.2408 16.6263 14.9324 16.492C17.0452 16.0815 18.9951 13.9981 19.9344 11.1474C20.6202 9.06601 20.8018 6.47608 20.3656 4.99761C19.6608 2.60897 17.9808 0.883246 15.7077 0.212888C15.2262 0.0708457 14.8965 0.0250914 14.2115 0.00506079C13.7283 -0.0089958 13.1799 0.00723952 12.9928 0.0412565ZM10.5241 4.50472C12.0657 5.08216 13.5824 5.32457 14.7605 5.18175C15.5752 5.083 16.7774 4.77959 17.5586 4.47548C18.0993 4.26491 18.1163 4.26287 18.2879 4.38594C18.823 4.76968 19.0703 6.02423 18.9301 7.64362C18.8859 8.15317 18.8613 8.58148 18.8754 8.59561C18.8894 8.60966 19.0637 8.53945 19.2625 8.43958C19.4614 8.33971 19.6505 8.27434 19.6829 8.2943C19.7153 8.31433 19.7026 8.59286 19.6548 8.91321C19.2523 11.6076 17.9209 13.9184 16.1794 14.945C15.3938 15.4081 14.9264 15.5345 14.0006 15.5345C13.34 15.5345 13.1089 15.5053 12.7355 15.3744C10.8177 14.7022 9.28977 12.7532 8.59025 10.0868C8.382 9.29309 8.24115 8.26577 8.34053 8.26577C8.36921 8.26577 8.55194 8.34575 8.74649 8.44344C8.9411 8.54121 9.11182 8.60966 9.12587 8.59561C9.13993 8.58148 9.11533 8.15317 9.07119 7.64362C8.9378 6.104 9.13571 4.96373 9.62488 4.45292C9.72665 4.34658 9.82336 4.25964 9.83981 4.25964C9.85618 4.25964 10.1641 4.36991 10.5241 4.50472ZM7.56974 15.856C4.28759 16.6058 1.81876 19.0346 0.951613 22.3671C0.769721 23.066 0.753064 23.2347 0.754469 24.3606C0.756227 25.7349 0.838388 26.177 1.23141 26.9259C1.93642 28.2696 3.37834 28.9604 5.92582 29.1752L6.46074 29.2202L6.49553 28.7341C6.5642 27.7739 6.60131 27.7259 9.58103 24.7411L12.2533 22.0642L11.3103 20.6295C9.77852 18.2987 8.99838 16.91 8.75703 16.0847C8.6516 15.7241 8.64331 15.7159 8.39057 15.7217C8.24839 15.725 7.87898 15.7854 7.56974 15.856ZM19.2442 16.0847C19.0029 16.91 18.2227 18.2987 16.6909 20.6295L15.748 22.0642L18.4202 24.7411C21.4007 27.7266 21.437 27.7737 21.5059 28.7355L21.5407 29.223L22.1106 29.1746C25.0998 28.9209 26.5716 28.0003 27.1191 26.0417C27.2184 25.6865 27.2452 25.3289 27.2453 24.3606C27.2455 23.0309 27.148 22.4492 26.7448 21.3735C25.6747 18.5189 23.2529 16.4431 20.2688 15.8227C19.4109 15.6443 19.37 15.6548 19.2442 16.0847ZM12.0094 17.8418C12.0989 18.3111 12.4887 18.8717 12.9272 19.1616L13.0836 19.2651L13.0027 20.4065C12.9581 21.0344 12.9392 21.5656 12.9607 21.5869C12.982 21.6084 13.1468 21.5888 13.3266 21.5435C13.6536 21.4612 14.5753 21.4882 14.9073 21.5898L15.0761 21.6415L15.0277 20.7695C15.0011 20.29 14.9625 19.7553 14.9419 19.5813C14.905 19.2707 14.9102 19.2607 15.2369 19.0191C15.5887 18.7589 15.9211 18.2393 15.9953 17.8337C16.0325 17.6303 16.0213 17.6026 15.9157 17.6365C14.982 17.9361 14.7274 17.9735 13.8249 17.9437C13.125 17.9207 12.8141 17.8785 12.4961 17.7635C12.2678 17.6809 12.0551 17.6134 12.0234 17.6134C11.9918 17.6134 11.9855 17.7162 12.0094 17.8418ZM13.6844 23.4775C13.5684 23.53 12.3429 24.7079 10.9609 26.0951C9.08623 27.9768 8.44631 28.6613 8.44047 28.7906C8.42586 29.1163 8.46163 29.3057 8.56846 29.4688C8.66524 29.6165 8.72737 29.6318 9.22947 29.6318H9.78365V31.9885C9.78365 35.2627 9.66536 35.069 11.684 35.1004L13.0778 35.1219L13.1 33.4032C13.1271 31.2972 13.0861 31.3889 14.0006 31.3889C14.9151 31.3889 14.8742 31.2972 14.9013 33.4032L14.9234 35.1219L16.3173 35.1004C18.3359 35.069 18.2176 35.2627 18.2176 31.9885V29.6318H18.7718C19.2739 29.6318 19.336 29.6165 19.4328 29.4688C19.5396 29.3057 19.5754 29.1163 19.5608 28.7906C19.5549 28.6613 18.915 27.9768 17.0404 26.0949C15.637 24.6863 14.4279 23.5294 14.3016 23.4746C14.0261 23.3552 13.9539 23.3555 13.6844 23.4775Z" fill="#6D7175"/>
</svg>
