<svg width="23" height="28" viewBox="0 0 23 28" fill="none" xmlns="http://www.w3.org/2000/svg">
<path d="M16.7733 15.9998C17.8837 15.1272 18.7811 14.0136 19.3979 12.7432C20.0146 11.4727 20.3345 10.0787 20.3333 8.6665H23C23.0013 10.5471 22.5601 12.4016 21.7118 14.08C20.8636 15.7584 19.6322 17.2136 18.1173 18.3278L21.488 24.1652C21.8416 24.7776 21.9374 25.5055 21.7544 26.1886C21.5713 26.8718 21.1244 27.4542 20.512 27.8078L15.8093 19.6638C14.2929 20.3273 12.6552 20.6687 11 20.6665C9.34476 20.6687 7.70711 20.3273 6.19065 19.6638L1.48798 27.8078C0.875523 27.4542 0.428621 26.8718 0.245587 26.1886C0.0625524 25.5055 0.158378 24.7776 0.511984 24.1652L7.26265 12.4718C6.58927 11.8098 6.10366 10.9808 5.85541 10.0697C5.60715 9.15856 5.60514 8.19787 5.84959 7.28571C6.09403 6.37355 6.57617 5.5426 7.24678 4.8777C7.91738 4.21281 8.75243 3.7378 9.66665 3.50117V0.666504H12.3333V3.50117C13.2475 3.7378 14.0826 4.21281 14.7532 4.8777C15.4238 5.5426 15.9059 6.37355 16.1504 7.28571C16.3948 8.19787 16.3928 9.15856 16.1446 10.0697C15.8963 10.9808 15.4107 11.8098 14.7373 12.4718L16.7733 15.9998ZM14.4667 17.3358L12.4293 13.8065C11.495 14.0659 10.5077 14.0659 9.57332 13.8065L7.53598 17.3358C8.60798 17.7638 9.77598 17.9998 11.0013 17.9998C12.2253 17.9998 13.3946 17.7638 14.4667 17.3358ZM11 11.3332C11.7072 11.3332 12.3855 11.0522 12.8856 10.5521C13.3857 10.052 13.6666 9.37375 13.6666 8.6665C13.6666 7.95926 13.3857 7.28098 12.8856 6.78089C12.3855 6.28079 11.7072 5.99984 11 5.99984C10.2927 5.99984 9.61446 6.28079 9.11437 6.78089C8.61427 7.28098 8.33332 7.95926 8.33332 8.6665C8.33332 9.37375 8.61427 10.052 9.11437 10.5521C9.61446 11.0522 10.2927 11.3332 11 11.3332Z" fill="#6D7175"/>
</svg>
