<svg width="23" height="22" viewBox="0 0 23 22" fill="none" xmlns="http://www.w3.org/2000/svg">
<path d="M10.4961 3.66699H4.07943C3.5932 3.66699 3.12688 3.86015 2.78306 4.20396C2.43925 4.54778 2.24609 5.0141 2.24609 5.50033V18.3337C2.24609 18.8199 2.43925 19.2862 2.78306 19.63C3.12688 19.9738 3.5932 20.167 4.07943 20.167H16.9128C17.399 20.167 17.8653 19.9738 18.2091 19.63C18.5529 19.2862 18.7461 18.8199 18.7461 18.3337V11.917" stroke="#6D7175" stroke-width="1.8" stroke-linecap="round" stroke-linejoin="round"/>
<path d="M17.3711 2.29122C17.7358 1.92655 18.2304 1.72168 18.7461 1.72168C19.2618 1.72168 19.7564 1.92655 20.1211 2.29122C20.4858 2.6559 20.6906 3.1505 20.6906 3.66622C20.6906 4.18195 20.4858 4.67655 20.1211 5.04122L11.4128 13.7496L7.74609 14.6662L8.66276 10.9996L17.3711 2.29122Z" stroke="#6D7175" stroke-width="1.8" stroke-linecap="round" stroke-linejoin="round"/>
</svg>
