<svg width="1859" height="1467" viewBox="0 0 1859 1467" fill="none" xmlns="http://www.w3.org/2000/svg">
<g style="mix-blend-mode:multiply" opacity="0.3">
<path d="M900.7 764V933C900.7 946.2 890.1 956.8 876.9 956.8H544.1C531.8 974.1 511.3 1002.1 509.5 1002.1C507.7 1002.1 510.9 975.4 513.4 956.8H471.2C458.1 956.8 447.4 946.2 447.4 933V764C447.4 750.8 458.1 740.1 471.2 740.1H876.9C890.1 740.1 900.7 750.8 900.7 764Z" fill="#DAEEF7"/>
</g>
<path d="M920.1 719.1V888.1C920.1 901.2 909.5 911.9 896.3 911.9H563.5C551.2 929.1 530.7 957.2 528.9 957.2C527.1 957.2 530.3 930.5 532.8 911.9H490.6C477.5 911.9 466.8 901.2 466.8 888.1V719.1C466.8 705.9 477.5 695.2 490.6 695.2H896.3C909.5 695.2 920.1 705.9 920.1 719.1V719.1Z" fill="#FEB546"/>
<path d="M605.1 804.2C605.1 837.2 578.3 863.9 545.3 863.9C512.3 863.9 485.6 837.2 485.6 804.2C485.6 771.2 512.3 744.4 545.3 744.4C578.3 744.4 605.1 771.2 605.1 804.2Z" fill="white"/>
<path d="M554.8 851.8H537.2V834.3H554.8V851.8Z" fill="#FFC0BB"/>
<path d="M537.2 843.2V834.3H554.8V844.8C546.6 846.4 541 845.2 537.2 843.2Z" fill="#F99893"/>
<path d="M584.9 814C582.7 818.4 578.1 820.5 574.6 818.8C574.133 818.533 573.7 818.233 573.3 817.9C571.3 832.2 559.3 842.9 545.3 842.7C531.3 842.9 519.4 832.2 517.4 817.9C517 818.233 516.567 818.533 516.1 818.8C512.5 820.5 507.9 818.4 505.8 814C503.6 809.6 504.7 804.6 508.2 802.9C510 802 512.2 802.2 514.1 803.2C513.4 785.9 527.6 771.3 545.3 771.9C563.1 771.3 577.2 785.9 576.6 803.2C578.5 802.2 580.6 802 582.4 802.9C586 804.6 587.1 809.6 584.9 814V814Z" fill="#FFC0BB"/>
<path d="M524 765.1C524 765.1 532.8 757.6 552.8 758.8C572.8 760 576.6 770.5 577.7 785.4L576.6 803.2C576.6 803.2 571.4 797.8 564.6 783C564.6 783 553.4 795.6 548.5 794.1C543.6 792.6 550.4 783.5 550.4 783.5C550.4 783.5 527.5 803.2 514.1 803.2C514.1 803.2 507 780.2 517 771.7C517 771.7 509.4 772.1 509 770.6C508.6 769.1 512.6 766.9 519.9 767.7C519.9 767.7 514.7 757.7 517.6 756.6C520.5 755.6 524 765.1 524 765.1V765.1Z" fill="#07085B"/>
<path d="M556.8 823.3C556 826.8 552.1 829.5 547.2 829.7C542.4 829.8 538.2 827.3 537.2 823.9L556.8 823.3Z" fill="white"/>
<path d="M861.1 754.3H628C626.7 754.3 625.6 753.3 625.6 752V746.3C625.6 745 626.7 743.9 628 743.9H861.1C862.4 743.9 863.4 745 863.4 746.3V752C863.4 753.3 862.4 754.3 861.1 754.3Z" fill="white"/>
<path d="M679.5 781.7H628C626.7 781.7 625.6 780.7 625.6 779.4V773.7C625.6 772.4 626.7 771.3 628 771.3H679.5C680.8 771.3 681.8 772.4 681.8 773.7V779.4C681.8 780.7 680.8 781.7 679.5 781.7Z" fill="white"/>
<path d="M861.1 781.7H705.4C704.1 781.7 703 780.7 703 779.4V773.7C703 772.4 704.1 771.3 705.4 771.3H861.1C862.4 771.3 863.4 772.4 863.4 773.7V779.4C863.4 780.7 862.4 781.7 861.1 781.7V781.7Z" fill="white"/>
<path d="M746.1 809.1H628C626.7 809.1 625.6 808.1 625.6 806.8V801.1C625.6 799.8 626.7 798.7 628 798.7H746.1C747.4 798.7 748.5 799.8 748.5 801.1V806.8C748.5 808.1 747.4 809.1 746.1 809.1Z" fill="white"/>
<path d="M861.1 809.1H768.8C767.5 809.1 766.5 808.1 766.5 806.8V801.1C766.5 799.8 767.5 798.7 768.8 798.7H861.1C862.4 798.7 863.4 799.8 863.4 801.1V806.8C863.4 808.1 862.4 809.1 861.1 809.1Z" fill="white"/>
<path d="M861.1 836.5H628C626.7 836.5 625.6 835.4 625.6 834.1V828.5C625.6 827.2 626.7 826.1 628 826.1H861.1C862.4 826.1 863.4 827.2 863.4 828.5V834.1C863.4 835.4 862.4 836.5 861.1 836.5Z" fill="white"/>
<path d="M1094.3 436.8C1096.2 429 1140 450.3 1140 450.3L1108.8 573.9L1094 481.2C1094 481.2 1092.4 444.5 1094.3 436.8Z" fill="#07085B"/>
<path d="M1342.4 680.7L1355.9 841L1214.5 834.2L1230.8 692.3L1342.4 680.7Z" fill="#FFC0BB"/>
<path d="M1223.1 759.8L1230.8 692.3L1342.4 680.7L1347.1 736.2C1324.9 758.3 1285 781.2 1223.1 759.8Z" fill="#F99893"/>
<path d="M1136.3 572.7C1144.8 590.3 1140.3 610.1 1126.3 616.9C1112.2 623.7 1093.9 614.9 1085.4 597.3C1076.9 579.8 1081.4 560 1095.5 553.2C1109.5 546.4 1127.8 555.1 1136.3 572.7V572.7Z" fill="#F99893"/>
<path d="M1135.3 654C1125.2 631.3 1119.3 607 1115.8 585.6C1115.1 581 1114.1 576.5 1113 572C1108.6 553.7 1107.4 534.2 1110.5 513.8C1120.3 448.2 1173.1 395.9 1238.7 386.9C1327.2 374.6 1405.2 440.1 1410.7 526.9C1419.8 521.1 1430.3 519.2 1439.9 522.8C1458.3 529.6 1466.3 553.8 1457.7 576.8C1449.1 599.8 1427.2 612.9 1408.8 606.1C1406.3 605.1 1404 603.8 1401.8 602.2C1399 676.5 1342.1 737.4 1269.5 740.8C1233.9 742.4 1200.9 730 1175.2 708.4C1158.8 696.3 1143.3 672.8 1135.3 654Z" fill="#FFC0BB"/>
<path d="M1231.9 562.4C1232.3 566.8 1232.4 571.2 1232 575.7C1230.8 586.3 1228 589.5 1225.6 592.7C1224.9 593.7 1223.1 595.4 1222.7 598.7C1222.2 601.5 1223.7 604.6 1225.9 607.4C1230.6 612.9 1238.7 615.8 1247.1 617.3C1238.8 619.3 1228.8 618.7 1221.1 612.2C1217.3 609.1 1214.3 603.9 1214.5 598.2C1214.6 592.1 1218.3 588 1219.1 587C1223.8 581.2 1224.7 570.2 1225.2 562.5C1225.6 554.2 1225.7 545.8 1226 537.1C1229.2 545.2 1231.1 553.7 1231.9 562.4V562.4Z" fill="#F99893"/>
<path d="M1288.7 534.8C1295.9 534.5 1302.1 540.1 1302.5 547.3C1302.8 554.6 1297.2 560.8 1289.9 561.1C1282.6 561.5 1276.4 555.9 1276.1 548.6C1275.8 541.3 1281.4 535.1 1288.7 534.8Z" fill="#333333"/>
<path d="M1175.9 547.5C1183.1 547.2 1189.3 552.8 1189.7 560.1C1190 567.3 1184.4 573.5 1177.1 573.9C1169.8 574.2 1163.6 568.6 1163.3 561.3C1163 554 1168.6 547.9 1175.9 547.5Z" fill="#333333"/>
<path d="M1250.4 664.3C1230.8 666.5 1213.6 660.1 1198.7 647.6C1214.7 657.5 1231.2 663.2 1250 660.8C1267.3 658.7 1284.8 649.6 1298.2 637.9C1287.4 650.8 1269.5 661.8 1250.4 664.3Z" fill="#F99893"/>
<path d="M1298.3 503.4C1312.8 505.3 1324.8 512.9 1332.6 527.3C1326.1 524.4 1315.7 516.3 1297.2 513.8C1288.7 512.7 1278.1 513.1 1259.5 518.8C1267.3 508.7 1282.6 501.6 1298.3 503.4V503.4Z" fill="#07085B"/>
<path d="M1163.6 527.7C1145.9 533.8 1137.2 543.8 1131.4 547.9C1136.3 532.2 1146.6 522.4 1160.4 517.8C1175.5 512.9 1191.9 516.9 1201.4 525.3C1182.1 523.3 1171.7 525 1163.6 527.7Z" fill="#07085B"/>
<path d="M1378.3 764.4C1378.3 764.4 1517.7 762.3 1595.9 844.6C1674 927 1743.7 1309.4 1608.5 1419.2C1473.3 1529.1 1257.9 1412.9 1257.9 1412.9L970.6 1410.8L835.4 1252.4C835.4 1252.4 998 848.9 1031.8 821.4C1065.6 793.9 1198.7 777 1198.7 777C1251.5 853.1 1378.3 764.4 1378.3 764.4V764.4Z" fill="#02CCC0"/>
<path d="M1453.4 1044.9C1452.7 1067.2 1452.2 1089.5 1452.6 1111.8C1452.9 1134 1453.8 1156.3 1456.2 1178.4C1458.7 1200.5 1462.2 1222.5 1469.1 1243.9C1458.8 1223.8 1453.3 1201.5 1449.5 1179.3C1445.6 1157 1444.4 1134.4 1444 1111.9C1443.8 1100.6 1444.1 1089.4 1444.4 1078.1C1445 1066.9 1445.5 1055.6 1446.7 1044.4C1448.8 1022 1451.7 999.7 1456.4 977.7C1455.2 1000.2 1454.2 1022.5 1453.4 1044.9V1044.9Z" fill="white"/>
<path d="M1045.8 1062C1043.2 1078.5 1040.1 1094.9 1036.9 1111.2C1033.6 1127.5 1030 1143.8 1026.1 1160C1022.1 1176.2 1017.8 1192.4 1013.2 1208.4C1008.3 1224.4 1003.2 1240.3 997.2 1255.9C991.3 1271.5 984.5 1286.9 976.7 1301.7C968.5 1316.2 959.5 1330.7 947.3 1342.1C958.1 1329.4 966.1 1314.8 972.9 1299.8C979.7 1284.7 985.6 1269.3 990.8 1253.6C1001.3 1222.2 1009.9 1190.2 1017.7 1158C1025.6 1125.8 1032.5 1093.3 1039.2 1060.8C1045.7 1028.3 1052.1 995.7 1058.2 962.9C1055.5 996.1 1051.2 1029.2 1045.8 1062Z" fill="white"/>
<path d="M991.3 1319.5C992.2 1312.8 1043 1305.3 1061.6 1304.4C1075.8 1303.6 1169.5 1300.5 1201.4 1299.1L1199 1307.2L1199.5 1343.5L1204.8 1367.4C1176.8 1369.2 1108.4 1371.9 1094.2 1374.7C1075.2 1378.5 1042.2 1392.8 1042.2 1392.8C1042.2 1392.8 1028.4 1389.7 1045.9 1382.2C1059.9 1376.1 1069.7 1366.8 1073.9 1362.1C1076.3 1359.4 1073.7 1354.7 1071.9 1355.1C1024.4 1367.6 1019.6 1369.6 1019.6 1369.6C1019.6 1369.6 963.8 1369.3 1019.2 1356.8C1052.5 1349.3 1064.4 1344.9 1067.4 1341.2C1068.6 1339.6 1066.4 1334.2 1064.4 1334C1035.6 1332.3 983.8 1342.5 998 1335.8C1009.6 1330.3 1045.9 1324.3 1060.1 1322.1C1061 1321.9 1062.4 1316.7 1058.5 1316.3C1031 1314.1 990.6 1325.7 991.3 1319.5V1319.5Z" fill="#FFC0BB"/>
<path d="M1488.9 1238.4C1477.6 1242.4 1466.3 1246.4 1454.7 1249.7C1443.2 1253.3 1431.5 1256.2 1419.9 1259.2C1396.5 1264.7 1372.8 1269.3 1349.1 1273.2C1325.3 1277 1301.4 1279.9 1277.5 1282.4C1265.5 1283.7 1253.5 1284.6 1241.5 1285.5C1230.5 1286.3 1219.7 1287 1208.4 1287.4C1206.8 1293.8 1205.5 1300.5 1204.5 1307.1C1203.5 1314.7 1202.7 1322.4 1202.5 1330.1C1202.2 1337.8 1202.6 1345.5 1203.6 1353.1C1204.6 1360.5 1206.3 1367.8 1208.9 1374.8L1233.1 1393.5C1241.4 1399.9 1249.7 1406.3 1257.9 1412.9C1249 1407.2 1240.3 1401.4 1231.6 1395.6L1205.5 1378.1L1205 1377.7L1204.7 1377.1C1201.6 1369.7 1199.3 1361.9 1197.8 1354C1196.5 1346.1 1195.8 1338 1195.7 1330C1195.7 1322 1196.1 1314 1197.1 1306.1C1198.1 1298.2 1199.4 1290.4 1201.5 1282.4L1202.1 1279.7L1205.3 1279.5C1228.8 1278.2 1252.9 1276.2 1276.6 1273.8C1300.5 1271.5 1324.2 1268.7 1347.9 1265.5C1371.6 1262.2 1395.2 1258.5 1418.8 1254.2C1430.5 1251.7 1442.3 1249.7 1454 1246.9C1465.7 1244.5 1477.2 1241.2 1488.9 1238.4V1238.4Z" fill="white"/>
<path d="M434.3 1050.6H887.1C900.9 1050.6 913.5 1059 918.7 1071.9L1057.4 1410.3H1307.7C1314.7 1410.3 1320.4 1415.9 1320.4 1422.9C1320.4 1429.9 1314.7 1435.6 1307.7 1435.6H585C571.6 1435.6 559.5 1427.8 554.1 1415.6L408.3 1090.7C399.9 1071.9 413.7 1050.6 434.3 1050.6Z" fill="#07085B"/>
<path d="M1091.1 393.5C1091.1 393.5 1046.8 394.9 1093.3 357.4C1139.9 319.9 1264.9 275.9 1345 318.2C1345 318.2 1361.1 284.1 1384.2 292.3C1407.4 300.4 1369.2 323.8 1369.2 323.8C1369.2 323.8 1398.7 322.9 1407.8 337.4C1414.4 348.1 1396.3 348.6 1386.4 348.1C1403.3 351 1467.8 391.7 1435.4 521.9C1423.9 519.3 1358.3 424.2 1358.3 424.2C1358.3 424.2 1208.2 507.6 1223.1 441.3C1223.1 441.3 1067.6 538.3 1089.6 458.1C1089.6 458.1 1029.5 462.6 1091.1 393.5Z" fill="#07085B"/>
<path d="M1435.5 522.7C1435.5 522.7 1423.1 518.3 1409.7 528.9C1396.4 539.5 1397.9 576.8 1397.9 576.8C1397.9 576.8 1334.1 617.9 1340.8 443.8C1348 258.7 1394 458.7 1394 458.7L1435.5 522.7Z" fill="#07085B"/>
<g style="mix-blend-mode:multiply" opacity="0.3">
<path d="M613.3 385.5V577.3C613.3 593.3 600.3 606.3 584.2 606.3H524.4C527.4 629 531.6 664 529.4 664C527 664 500.2 627 485.4 606.3H119.6C103.5 606.3 90.5 593.3 90.5 577.3V385.5C90.5 369.5 103.5 356.5 119.6 356.5H584.2C600.3 356.5 613.3 369.5 613.3 385.5V385.5Z" fill="#DAEEF7"/>
</g>
<path d="M594.1 335.8V527.5C594.1 543.6 581.1 556.6 565 556.6H505.2C508.2 579.3 512.5 614.2 510.2 614.2C507.9 614.2 481 577.2 466.2 556.6H100.4C84.4 556.6 71.4 543.6 71.4 527.5V335.8C71.4 319.7 84.4 306.7 100.4 306.7H565C581.1 306.7 594.1 319.7 594.1 335.8Z" fill="#315399"/>
<path d="M243.9 431.7C243.9 471.9 211.3 504.5 171.1 504.5C130.8 504.5 98.2001 471.9 98.2001 431.7C98.2001 391.4 130.8 358.8 171.1 358.8C211.3 358.8 243.9 391.4 243.9 431.7Z" fill="white"/>
<path d="M133.2 433.6C133.2 433.6 125.9 403.9 143.1 392.8C160.4 381.7 178.7 379.2 191.3 385.6C208.7 394.4 215.8 418.4 210.3 431.7L164.1 420.1L133.2 433.6Z" fill="#040744"/>
<path d="M182.6 489.7H161.2V468.4H182.6V489.7Z" fill="#FFC0BB"/>
<path d="M161.2 479.3V468.4H182.6V481.2C172.6 483.1 165.8 481.7 161.2 479.3Z" fill="#F99893"/>
<path d="M219.3 443.6C216.7 449 211.1 451.6 206.8 449.5C206.2 449.167 205.667 448.8 205.2 448.4C202.7 465.8 188.2 478.9 171.1 478.6C154 478.9 139.4 465.8 137 448.4C136.533 448.8 136 449.167 135.4 449.5C131.1 451.6 125.5 449 122.8 443.6C120.2 438.3 121.5 432.2 125.8 430.1C128.1 429 130.6 429.2 133 430.4C132.2 409.3 149.4 391.6 171.1 392.4C192.8 391.6 210 409.3 209.2 430.4C211.5 429.2 214.1 429 216.3 430.1C220.6 432.2 221.9 438.3 219.3 443.6Z" fill="#FFC0BB"/>
<path d="M185.1 455C184.1 459.3 179.3 462.6 173.4 462.8C167.4 462.9 162.4 459.9 161.2 455.8L185.1 455Z" fill="white"/>
<path d="M131.7 417.9L134.8 408.1L139.3 398.7C139.3 398.7 146.4 398.4 147.9 395.1C149.1 392.5 159.2 391.3 159.8 391C160.3 390.8 171.1 386.2 171.1 386.2C171.1 386.2 202.5 390.5 198.8 402.7C195.1 414.9 168 428.1 167.2 427.6C169.8 424.8 173.2 407.8 173.2 407.8C161 421.9 133 430.4 133 430.4L131.7 417.9Z" fill="#040744"/>
<path d="M150 361.9C163.3 370.7 162.7 386.3 162.7 386.3C163.2 389.9 161.7 391.4 160.1 391.9C158.6 392.4 157.1 392.1 155.8 391.4C153.6 390.1 147.1 388.2 130.8 393.2C123.4 395.5 116.2 394.3 110.1 391.9C119.3 377.7 133.4 366.9 150 361.9Z" fill="#040744"/>
<path d="M145.2 390.8C144.7 390.2 144.9 389.3 145.5 388.8C148.3 387 155.3 383 163.7 382.6C164.5 382.5 165.2 383.2 165.2 384C165.2 384.7 164.6 385.3 163.9 385.3C156.2 385.7 149.5 389.5 147.1 391.2C146.5 391.6 145.6 391.4 145.2 390.8V390.8Z" fill="#FEB546"/>
<path d="M352.9 381.6H261C259.4 381.6 258.1 380.3 258.1 378.7V371.8C258.1 370.2 259.4 368.9 261 368.9H352.9C354.4 368.9 355.7 370.2 355.7 371.8V378.7C355.7 380.3 354.4 381.6 352.9 381.6Z" fill="white"/>
<path d="M321.2 415H261C259.4 415 258.1 413.7 258.1 412.1V405.2C258.1 403.6 259.4 402.3 261 402.3H321.2C322.8 402.3 324.1 403.6 324.1 405.2V412.1C324.1 413.7 322.8 415 321.2 415Z" fill="white"/>
<path d="M413.7 415H338.3C336.7 415 335.4 413.7 335.4 412.1V405.2C335.4 403.6 336.7 402.3 338.3 402.3H413.7C415.3 402.3 416.5 403.6 416.5 405.2V412.1C416.5 413.7 415.3 415 413.7 415V415Z" fill="white"/>
<path d="M534.4 381.6H374.8C373.2 381.6 371.9 380.3 371.9 378.7V371.8C371.9 370.2 373.2 368.9 374.8 368.9H534.4C536 368.9 537.3 370.2 537.3 371.8V378.7C537.3 380.3 536 381.6 534.4 381.6Z" fill="white"/>
<path d="M534.4 480.4H261C259.4 480.4 258.1 479.1 258.1 477.6V470.6C258.1 469.1 259.4 467.8 261 467.8H534.4C536 467.8 537.3 469.1 537.3 470.6V477.6C537.3 479.1 536 480.4 534.4 480.4Z" fill="white"/>
<path d="M399.5 448.4H261C259.4 448.4 258.1 447.1 258.1 445.5V438.6C258.1 437 259.4 435.7 261 435.7H399.5C401.1 435.7 402.3 437 402.3 438.6V445.5C402.3 447.1 401.1 448.4 399.5 448.4Z" fill="white"/>
<path d="M534.4 448.4H426.3C424.7 448.4 423.4 447.1 423.4 445.5V438.6C423.4 437 424.7 435.7 426.3 435.7H534.4C536 435.7 537.3 437 537.3 438.6V445.5C537.3 447.1 536 448.4 534.4 448.4Z" fill="white"/>
<path d="M715.1 1238C719.5 1259.1 710.6 1278.9 695.1 1282.2C679.7 1285.5 663.5 1271 659.1 1249.8C654.6 1228.7 663.5 1208.9 679 1205.6C694.5 1202.3 710.6 1216.8 715.1 1238Z" fill="white"/>
<path d="M535.5 97.7L545.2 170.7L493.3 132.9L334.6 51.8L457.4 63C457.4 63 519.9 78.2 523.3 81.3C526.7 84.4 535.5 97.7 535.5 97.7V97.7Z" fill="#315399" fill-opacity="0.8"/>
<path d="M535.5 97.7L334.6 51.8L589.8 53.7L535.5 97.7Z" fill="#315399"/>
<path d="M334.6 51.8L520.3 117.5L453.4 171.2L334.6 51.8Z" fill="#315399"/>
<path d="M851.1 492.2L847.7 487.2C852.9 483.7 857.6 479.5 861.7 474.5L866.3 478.4C861.8 483.8 856.7 488.4 851.1 492.2V492.2Z" fill="#FEB546"/>
<path d="M884.8 443.2L879.1 441.4C882.6 430.3 884.9 417.8 885.9 404L891.9 404.5C890.8 418.7 888.5 431.7 884.8 443.2V443.2ZM891.7 365.2L885.7 365.8C885.567 364.133 885.4 362.5 885.2 360.9C884.4 355.3 883.4 349.6 882 344.1C880.7 339 879.2 333.8 877.4 328.8L883.1 326.8C884.9 332 886.5 337.3 887.8 342.6C889.2 348.4 890.4 354.3 891.1 360.1C891.367 361.767 891.567 363.467 891.7 365.2V365.2ZM860.9 294.4C854.5 283.9 846.8 273.6 838.1 263.7L842.6 259.8C851.6 269.9 859.4 280.5 866 291.3L860.9 294.4ZM673.2 280.2C669.1 281.2 658.7 281.4 652 277.4C647 274.4 642.8 269.8 639.9 263.9L645.3 261.2C647.7 266.1 651 269.9 655 272.3C659.9 275.1 668.5 275.1 671.7 274.3C672.2 274.2 672.3 274.2 672.3 274.2C672.567 274 672.867 273.8 673.2 273.6L676.5 278.6C676.167 278.8 675.833 279.033 675.5 279.3C674.9 279.633 674.133 279.933 673.2 280.2ZM810.8 236.9C801.2 228.7 790.8 221 780 213.9L783.3 208.9C794.3 216.1 804.9 224 814.7 232.3L810.8 236.9ZM698.2 244.9L692.3 243.6C693.1 239.9 693.5 236.1 693.5 232.4C693.5 227.1 692.8 221.7 691.5 216.2C690.7 213.2 689.8 210.2 688.7 207.2L694.3 205.1C695.5 208.3 696.5 211.6 697.3 214.8C698.8 220.7 699.5 226.6 699.5 232.4C699.5 236.6 699 240.7 698.2 244.9V244.9ZM645.4 226.4L639.9 223.8C645.4 212.4 655.6 202.4 668 196.4L668.8 196L671.4 201.4L670.6 201.8C659.4 207.2 650.2 216.2 645.4 226.4ZM745 199.4C734.2 196.1 725.5 194.1 721.3 193.9C716.5 193.6 712.1 193.6 707.9 193.7L707.7 187.7C712.1 187.6 716.6 187.6 721.6 187.9C728 188.2 740.1 191.6 746.8 193.7L745 199.4ZM669.1 175C660.9 165.4 651.4 157.1 640.6 150.3L643.9 145.2C655.1 152.4 665.1 161.1 673.7 171.1L669.1 175Z" fill="#FEB546"/>
<path d="M606.2 134.9C599.9 133.2 593.5 132 587.2 131.3L587.8 125.4C594.4 126 601.2 127.3 607.8 129.1L606.2 134.9Z" fill="#FEB546"/>
<path d="M349.9 1007.9C332.7 1009.4 330.5 1031.2 330.5 1031.2C330.5 1031.2 328.3 1009.4 311.1 1007.9C328.3 1006.4 330.5 984.6 330.5 984.6C330.5 984.6 332.7 1006.4 349.9 1007.9Z" fill="#FF5B7E"/>
<path d="M1009.2 710.9C981.8 713.3 978.3 748 978.3 748C978.3 748 974.8 713.3 947.4 710.9C974.8 708.5 978.3 673.8 978.3 673.8C978.3 673.8 981.8 708.5 1009.2 710.9Z" fill="#02CCC0"/>
<path d="M62 291.5C34.6 293.9 31 328.6 31 328.6C31 328.6 27.5 293.9 0.0999756 291.5C27.5 289.1 31 254.4 31 254.4C31 254.4 34.6 289.1 62 291.5Z" fill="#02CCC0"/>
<path d="M717.1 577.7C696.2 579.8 693.5 610.6 693.5 610.6C693.5 610.6 690.8 579.8 669.9 577.7C690.8 575.6 693.5 544.8 693.5 544.8C693.5 544.8 696.2 575.6 717.1 577.7Z" fill="#FEB546"/>
<path d="M174.9 127.9C154.1 130.1 151.4 160.8 151.4 160.8C151.4 160.8 148.7 130.1 127.8 127.9C148.7 125.8 151.4 95.1 151.4 95.1C151.4 95.1 154.1 125.8 174.9 127.9Z" fill="#FEB546"/>
<path d="M1859 180C1859 279 1769.9 359.3 1660.1 359.3C1550.2 359.3 1461.1 279 1461.1 180C1461.1 81 1550.2 0.700012 1660.1 0.700012C1769.9 0.700012 1859 81 1859 180V180Z" fill="#E6F7FF"/>
<path d="M1537.7 386.1C1537.7 399 1526.1 409.5 1511.7 409.5C1497.3 409.5 1485.7 399 1485.7 386.1C1485.7 373.1 1497.3 362.7 1511.7 362.7C1526.1 362.7 1537.7 373.1 1537.7 386.1Z" fill="#E6F7FF"/>
<path d="M1739.4 204.6C1716.8 239.9 1672.8 270.2 1659.8 280C1658.9 280.6 1658.3 280.6 1657.4 280C1633.3 262.1 1602.9 235.8 1585.5 211.3C1573.3 194.3 1567 178 1569 156.7C1572.9 115.4 1607.2 96.1 1635.4 108.6C1652.7 116.2 1659 132.6 1660.5 134.3C1662.7 131.8 1674.7 104.1 1705.4 106.3C1729.8 108 1745.9 127 1750.1 150.3C1753.6 169.8 1750.1 187.9 1739.4 204.6V204.6Z" fill="#FF5B7E"/>
</svg>
