<svg width="179" height="38" viewBox="0 0 179 38" fill="none" xmlns="http://www.w3.org/2000/svg">
<path fill-rule="evenodd" clip-rule="evenodd" d="M18.9631 34.8619H14.6199C5.9767 34.8619 0 32.977 0 25.8509C0 21.0236 3.40212 18.5869 9.19492 17.8513V17.7594C4.36759 16.9778 1.60911 14.6331 1.60911 10.2195C1.60911 4.51867 6.29852 2.67969 14.3901 2.67969H22.0671H28.1365H35.8135C43.9051 2.67969 48.5945 4.51867 48.5945 10.2195C48.5945 14.6331 45.836 16.9778 41.0087 17.7594V17.8513C46.8015 18.5869 50.2036 21.0236 50.2036 25.8509C50.2036 32.977 44.2269 34.8619 35.5837 34.8619H31.0226V18.1832C31.0226 17.5802 30.6206 17.1782 30.0177 17.1782H27.0028V11.1484L18.9631 13.3593V34.8619ZM24.9929 34.8619H22.9829V15.1683H24.9929V34.8619ZM16.1831 18.5869H15.1256C10.6661 18.5869 9.47077 20.8856 9.47077 24.6555V27.0922C9.47077 31.3219 10.4822 33.9884 14.0223 33.9884H16.1831V18.5869ZM16.1831 3.5532H14.7119C11.4937 3.5532 10.7121 5.25427 10.7121 9.66783V11.8286C10.7121 15.5986 11.6776 17.7134 14.9877 17.7134H16.1831V3.5532ZM34.0205 18.5869H35.0779C39.5375 18.5869 40.7328 20.8856 40.7328 24.6555V27.0922C40.7328 31.3219 39.7214 33.9884 36.1813 33.9884H34.0205V18.5869ZM34.0205 3.5532H35.4917C38.7099 3.5532 39.4915 5.25427 39.4915 9.66783V11.8286C39.4915 15.5986 38.526 17.7134 35.2159 17.7134H34.0205V3.5532Z" fill="#315399"/>
<path d="M60.6683 5.38467V5.91708H62.4897V24.4676H60.6683V25H68.9067C74.1749 25 77.8177 23.8511 77.8177 19.5077C77.8177 16.5654 75.7441 15.0802 72.2133 14.6319V14.5759C75.1556 14.0995 76.8369 12.6704 76.8369 9.98026C76.8369 6.50554 73.9787 5.38467 69.0468 5.38467H60.6683ZM67.954 15.0802H68.5985C71.3166 15.0802 72.0452 16.4813 72.0452 18.7791V20.2643C72.0452 22.8423 71.4287 24.4676 69.271 24.4676H67.954V15.0802ZM67.954 5.91708H68.8507C70.8122 5.91708 71.2886 6.95389 71.2886 9.644V10.961C71.2886 13.2588 70.7001 14.5478 68.6826 14.5478H67.954V5.91708ZM78.7194 3.98357V4.48797H80.3727V24.4956H78.8315V25H87.154V24.4956H85.5848V3.98357H78.7194ZM103.954 25V24.4956H102.413V11.6616H95.9115V12.166H97.2005V20.7407C97.2005 22.8703 96.3319 24.0192 95.211 24.0192C94.5104 24.0192 94.1742 23.6549 94.1742 21.2731V11.6616H87.3929V12.166H88.9621V20.6006C88.9621 23.9912 90.6995 25.2802 93.3055 25.2802C95.8275 25.2802 96.7242 24.2714 97.2566 22.9544L97.5648 25H103.954ZM104.667 18.3588C104.667 22.422 106.909 25.2802 111.897 25.2802C115.876 25.2802 117.333 23.4308 117.978 21.0209L117.474 20.9368C116.857 23.0945 115.456 24.4115 113.382 24.4115C110.664 24.4115 110.076 22.1698 110.076 18.8632V17.7703H117.978C118.146 13.5951 116.269 11.3814 111.869 11.3814C107.974 11.3814 104.667 13.511 104.667 18.3588ZM110.104 17.2099V15.8368C110.104 12.8665 110.636 11.9138 111.617 11.9138C112.766 11.9138 112.99 12.8945 112.99 15.8368V17.2099H110.104ZM134.94 5.63686C137.35 5.63686 139.031 8.01873 140.572 11.4654H141.077L140.853 5.38467H140.544C140.348 5.74895 140.236 5.94511 139.788 5.94511C138.807 5.94511 137.462 5.07643 134.548 5.07643C128.803 5.07643 124.88 8.66323 124.88 15.4445C124.88 22.1418 128.523 25.2802 134.464 25.2802C137.546 25.2802 139.087 24.4115 140.04 24.4115C140.488 24.4115 140.6 24.6077 140.796 24.972H141.105L141.301 18.7231H140.796C139.227 22.3659 137.406 24.7198 135.136 24.7198C132.082 24.7198 130.597 21.3852 130.597 16.2291V14.0154C130.597 8.21488 132.11 5.63686 134.94 5.63686ZM144.732 7.12203C144.732 8.29895 145.264 9.72806 147.534 9.72806C149.551 9.72806 150.364 8.57916 150.364 7.094C150.364 5.38467 149.327 4.51599 147.59 4.51599C145.488 4.51599 144.732 5.74895 144.732 7.12203ZM143.246 11.6616V12.166H144.9V24.4956H143.359V25H151.681V24.4956H150.112V11.6616H143.246ZM153.653 20.9929C153.653 24.4676 155.643 25.2802 158.417 25.2802C161.836 25.2802 162.76 23.2626 163.013 21.0769L162.536 21.0209C162.284 22.9264 161.443 24.1593 160.098 24.1593C159.118 24.1593 158.865 23.2626 158.865 21.6093V12.166H162.508V11.6616H158.865V6.75774L153.653 8.04675V11.6616H152.112V12.166H153.653V20.9929ZM162.867 12.166H164.015L168.807 25H171.273L170.657 26.7374C169.592 29.7637 168.471 31.333 166.902 31.333C166.089 31.333 165.921 30.6884 166.201 29.8478H167.182C167.294 29.4555 167.35 29.1192 167.35 28.839C167.35 27.522 166.453 26.9055 165.024 26.9055C163.679 26.9055 162.783 27.7742 162.783 29.1753C162.783 30.9406 164.184 32.0055 166.285 32.0055C168.499 32.0055 169.956 30.8846 171.217 27.2698L176.457 12.166H177.858V11.6616H173.907V12.166H175.785L172.534 21.4692L169.48 12.166H170.993V11.6616H162.867V12.166Z" fill="#315399"/>
<path d="M62.903 34.0879H61.1437V28.6533H62.9587C63.4912 28.6533 63.9485 28.7621 64.3306 28.9797C64.7128 29.1956 65.0055 29.506 65.209 29.9111C65.4142 30.3145 65.5168 30.7983 65.5168 31.3627C65.5168 31.9288 65.4133 32.4152 65.2063 32.8221C65.0011 33.229 64.7039 33.5421 64.3147 33.7615C63.9255 33.9791 63.455 34.0879 62.903 34.0879ZM61.9636 33.3714H62.8579C63.2719 33.3714 63.6159 33.2936 63.8902 33.1379C64.1644 32.9805 64.3696 32.7531 64.5058 32.4559C64.642 32.157 64.7101 31.7925 64.7101 31.3627C64.7101 30.9363 64.642 30.5745 64.5058 30.2773C64.3713 29.9801 64.1705 29.7546 63.9034 29.6007C63.6363 29.4468 63.3046 29.3698 62.9083 29.3698H61.9636V33.3714ZM68.3042 34.1702C67.9026 34.1702 67.5567 34.0844 67.2666 33.9128C66.9783 33.7394 66.7553 33.4961 66.5979 33.183C66.4422 32.8681 66.3644 32.4993 66.3644 32.0765C66.3644 31.659 66.4422 31.291 66.5979 30.9726C66.7553 30.6541 66.9747 30.4056 67.256 30.2269C67.539 30.0482 67.8699 29.9589 68.2484 29.9589C68.4784 29.9589 68.7013 29.9969 68.9171 30.073C69.133 30.1491 69.3267 30.2685 69.4983 30.4312C69.6699 30.594 69.8052 30.8054 69.9043 31.0655C70.0033 31.3237 70.0529 31.6377 70.0529 32.0075V32.2888H66.8128V31.6944H69.2754C69.2754 31.4856 69.2329 31.3007 69.148 31.1398C69.0631 30.977 68.9437 30.8487 68.7898 30.755C68.6376 30.6612 68.459 30.6143 68.2537 30.6143C68.0308 30.6143 67.8362 30.6692 67.67 30.7789C67.5054 30.8868 67.3781 31.0283 67.2878 31.2034C67.1994 31.3768 67.1552 31.5652 67.1552 31.7687V32.233C67.1552 32.5055 67.2029 32.7372 67.2985 32.9283C67.3957 33.1193 67.5311 33.2653 67.7044 33.3661C67.8778 33.4652 68.0804 33.5147 68.3121 33.5147C68.4625 33.5147 68.5996 33.4935 68.7234 33.451C68.8473 33.4068 68.9543 33.3413 69.0445 33.2547C69.1347 33.168 69.2037 33.061 69.2515 32.9336L70.0025 33.0689C69.9423 33.29 69.8344 33.4838 69.6787 33.65C69.5248 33.8146 69.3311 33.9428 69.0976 34.0348C68.8658 34.125 68.6014 34.1702 68.3042 34.1702ZM74.0622 31.0071L73.3431 31.1344C73.313 31.0425 73.2652 30.9549 73.1998 30.8717C73.1361 30.7886 73.0494 30.7205 72.9397 30.6674C72.8301 30.6143 72.693 30.5878 72.5284 30.5878C72.3038 30.5878 72.1162 30.6382 71.9659 30.7391C71.8155 30.8381 71.7403 30.9664 71.7403 31.1238C71.7403 31.26 71.7907 31.3697 71.8916 31.4529C71.9924 31.536 72.1552 31.6041 72.3798 31.6572L73.0273 31.8058C73.4024 31.8925 73.6819 32.0261 73.8658 32.2065C74.0498 32.3869 74.1418 32.6213 74.1418 32.9097C74.1418 33.1538 74.0711 33.3714 73.9295 33.5625C73.7898 33.7518 73.5943 33.9004 73.3431 34.0083C73.0937 34.1162 72.8044 34.1702 72.4754 34.1702C72.0189 34.1702 71.6466 34.0729 71.3582 33.8783C71.0698 33.6819 70.8929 33.4033 70.8275 33.0424L71.5944 32.9256C71.6421 33.1255 71.7403 33.2768 71.8889 33.3794C72.0375 33.4802 72.2312 33.5306 72.4701 33.5306C72.7301 33.5306 72.938 33.4767 73.0937 33.3688C73.2493 33.2591 73.3272 33.1255 73.3272 32.9681C73.3272 32.8407 73.2794 32.7337 73.1839 32.647C73.0901 32.5603 72.9459 32.4949 72.7513 32.4506L72.0614 32.2994C71.6811 32.2127 71.3998 32.0747 71.2176 31.8854C71.0371 31.6961 70.9469 31.4564 70.9469 31.1663C70.9469 30.9257 71.0141 30.7152 71.1486 30.5347C71.283 30.3543 71.4688 30.2137 71.7058 30.1128C71.9429 30.0102 72.2144 29.9589 72.5205 29.9589C72.961 29.9589 73.3077 30.0544 73.5607 30.2455C73.8137 30.4348 73.9808 30.6886 74.0622 31.0071ZM75.0889 34.0879V30.012H75.8823V34.0879H75.0889ZM75.4896 29.3831C75.3516 29.3831 75.2331 29.3371 75.134 29.2451C75.0367 29.1513 74.9881 29.0399 74.9881 28.9107C74.9881 28.7798 75.0367 28.6684 75.134 28.5764C75.2331 28.4826 75.3516 28.4357 75.4896 28.4357C75.6276 28.4357 75.7452 28.4826 75.8425 28.5764C75.9416 28.6684 75.9911 28.7798 75.9911 28.9107C75.9911 29.0399 75.9416 29.1513 75.8425 29.2451C75.7452 29.3371 75.6276 29.3831 75.4896 29.3831ZM78.7334 35.7013C78.4096 35.7013 78.131 35.6588 77.8975 35.5739C77.6657 35.489 77.4765 35.3767 77.3296 35.2369C77.1828 35.0971 77.0731 34.9441 77.0006 34.7778L77.6826 34.4965C77.7303 34.5744 77.794 34.6566 77.8736 34.7433C77.955 34.8318 78.0647 34.907 78.2027 34.9689C78.3424 35.0308 78.522 35.0618 78.7413 35.0618C79.0421 35.0618 79.2906 34.9883 79.487 34.8415C79.6834 34.6964 79.7815 34.4647 79.7815 34.1463V33.3449H79.7311C79.6834 33.4316 79.6144 33.528 79.5241 33.6341C79.4357 33.7403 79.3136 33.8323 79.158 33.9101C79.0023 33.9879 78.7997 34.0269 78.5503 34.0269C78.2283 34.0269 77.9382 33.9517 77.6799 33.8013C77.4234 33.6492 77.2199 33.4254 77.0696 33.1299C76.921 32.8327 76.8467 32.4674 76.8467 32.034C76.8467 31.6006 76.9201 31.2291 77.0669 30.9195C77.2155 30.6099 77.419 30.3729 77.6772 30.2083C77.9355 30.0421 78.2283 29.9589 78.5556 29.9589C78.8086 29.9589 79.0129 30.0014 79.1686 30.0863C79.3242 30.1694 79.4454 30.2667 79.5321 30.3782C79.6206 30.4896 79.6887 30.5878 79.7364 30.6727H79.7948V30.012H80.5723V34.1781C80.5723 34.5284 80.4909 34.8159 80.3282 35.0405C80.1654 35.2652 79.9452 35.4315 79.6674 35.5394C79.3915 35.6473 79.0801 35.7013 78.7334 35.7013ZM78.7254 33.3688C78.9536 33.3688 79.1465 33.3157 79.3039 33.2096C79.4631 33.1016 79.5834 32.9477 79.6648 32.7478C79.7479 32.5462 79.7895 32.3047 79.7895 32.0234C79.7895 31.7492 79.7488 31.5077 79.6674 31.299C79.5861 31.0902 79.4667 30.9275 79.3092 30.8107C79.1518 30.6922 78.9572 30.6329 78.7254 30.6329C78.4866 30.6329 78.2876 30.6948 78.1284 30.8187C77.9691 30.9407 77.8488 31.107 77.7675 31.3175C77.6879 31.5281 77.6481 31.7633 77.6481 32.0234C77.6481 32.2905 77.6887 32.5249 77.7701 32.7266C77.8515 32.9283 77.9718 33.0857 78.131 33.1989C78.292 33.3122 78.4901 33.3688 78.7254 33.3688ZM82.5046 31.6678V34.0879H81.7111V30.012H82.4727V30.6754H82.5231C82.6169 30.4595 82.7637 30.2862 82.9636 30.1553C83.1653 30.0244 83.4192 29.9589 83.7252 29.9589C84.0029 29.9589 84.2462 30.0173 84.4549 30.134C84.6637 30.249 84.8256 30.4206 84.9405 30.6488C85.0555 30.877 85.113 31.1592 85.113 31.4953V34.0879H84.3196V31.5909C84.3196 31.2954 84.2427 31.0646 84.0887 30.8983C83.9348 30.7302 83.7234 30.6462 83.4545 30.6462C83.2706 30.6462 83.1069 30.686 82.9636 30.7656C82.8221 30.8452 82.7098 30.962 82.6266 31.1159C82.5452 31.268 82.5046 31.452 82.5046 31.6678ZM89.3061 31.0071L88.587 31.1344C88.5569 31.0425 88.5092 30.9549 88.4437 30.8717C88.38 30.7886 88.2933 30.7205 88.1837 30.6674C88.074 30.6143 87.9369 30.5878 87.7724 30.5878C87.5477 30.5878 87.3602 30.6382 87.2098 30.7391C87.0594 30.8381 86.9842 30.9664 86.9842 31.1238C86.9842 31.26 87.0347 31.3697 87.1355 31.4529C87.2363 31.536 87.3991 31.6041 87.6238 31.6572L88.2712 31.8058C88.6463 31.8925 88.9258 32.0261 89.1098 32.2065C89.2937 32.3869 89.3857 32.6213 89.3857 32.9097C89.3857 33.1538 89.315 33.3714 89.1734 33.5625C89.0337 33.7518 88.8382 33.9004 88.587 34.0083C88.3376 34.1162 88.0483 34.1702 87.7193 34.1702C87.2629 34.1702 86.8905 34.0729 86.6021 33.8783C86.3138 33.6819 86.1369 33.4033 86.0714 33.0424L86.8383 32.9256C86.8861 33.1255 86.9842 33.2768 87.1328 33.3794C87.2814 33.4802 87.4751 33.5306 87.714 33.5306C87.974 33.5306 88.1819 33.4767 88.3376 33.3688C88.4932 33.2591 88.5711 33.1255 88.5711 32.9681C88.5711 32.8407 88.5233 32.7337 88.4278 32.647C88.334 32.5603 88.1898 32.4949 87.9953 32.4506L87.3053 32.2994C86.925 32.2127 86.6437 32.0747 86.4615 31.8854C86.281 31.6961 86.1908 31.4564 86.1908 31.1663C86.1908 30.9257 86.258 30.7152 86.3925 30.5347C86.5269 30.3543 86.7127 30.2137 86.9497 30.1128C87.1868 30.0102 87.4583 29.9589 87.7644 29.9589C88.2049 29.9589 88.5516 30.0544 88.8046 30.2455C89.0576 30.4348 89.2247 30.6886 89.3061 31.0071ZM93.5713 34.1781C93.313 34.1781 93.0795 34.1303 92.8707 34.0348C92.662 33.9375 92.4966 33.7969 92.3745 33.6129C92.2542 33.4289 92.1941 33.2034 92.1941 32.9362C92.1941 32.7063 92.2383 32.517 92.3268 32.3684C92.4152 32.2198 92.5346 32.1021 92.685 32.0154C92.8354 31.9288 93.0034 31.8633 93.1892 31.8191C93.3749 31.7748 93.5642 31.7412 93.757 31.7182C94.0012 31.6899 94.1993 31.6669 94.3514 31.6492C94.5036 31.6298 94.6142 31.5988 94.6831 31.5564C94.7521 31.5139 94.7866 31.4449 94.7866 31.3494V31.3308C94.7866 31.0991 94.7212 30.9195 94.5903 30.7921C94.4611 30.6648 94.2683 30.6011 94.0118 30.6011C93.7447 30.6011 93.5341 30.6603 93.3802 30.7789C93.2281 30.8956 93.1228 31.0256 93.0645 31.1689L92.3188 30.9991C92.4073 30.7514 92.5364 30.5515 92.7062 30.3994C92.8778 30.2455 93.0751 30.134 93.298 30.065C93.5209 29.9943 93.7553 29.9589 94.0012 29.9589C94.1639 29.9589 94.3364 29.9784 94.5186 30.0173C94.7026 30.0544 94.8742 30.1234 95.0334 30.2243C95.1944 30.3251 95.3262 30.4693 95.4288 30.6568C95.5314 30.8426 95.5827 31.084 95.5827 31.3812V34.0879H94.8079V33.5306H94.776C94.7247 33.6332 94.6478 33.7341 94.5452 33.8331C94.4426 33.9322 94.3108 34.0145 94.1498 34.0799C93.9888 34.1454 93.796 34.1781 93.5713 34.1781ZM93.7438 33.5413C93.9631 33.5413 94.1507 33.4979 94.3063 33.4112C94.4638 33.3245 94.5832 33.2113 94.6646 33.0716C94.7477 32.93 94.7893 32.7788 94.7893 32.6178V32.0924C94.761 32.1207 94.7061 32.1472 94.6248 32.172C94.5452 32.195 94.4541 32.2153 94.3514 32.233C94.2488 32.249 94.1489 32.264 94.0516 32.2781C93.9543 32.2905 93.8729 32.3011 93.8075 32.31C93.6536 32.3294 93.5129 32.3622 93.3855 32.4082C93.2599 32.4542 93.1591 32.5205 93.083 32.6072C93.0087 32.6921 92.9716 32.8053 92.9716 32.9468C92.9716 33.1432 93.0441 33.2918 93.1892 33.3927C93.3342 33.4917 93.5191 33.5413 93.7438 33.5413ZM98.6169 30.012V30.6488H96.3905V30.012H98.6169ZM96.9875 29.0355H97.781V32.8911C97.781 33.045 97.804 33.1609 97.85 33.2387C97.896 33.3148 97.9552 33.367 98.0278 33.3953C98.1021 33.4218 98.1825 33.4351 98.2692 33.4351C98.3329 33.4351 98.3886 33.4307 98.4364 33.4218C98.4842 33.413 98.5213 33.4059 98.5479 33.4006L98.6912 34.056C98.6452 34.0737 98.5797 34.0914 98.4948 34.1091C98.4099 34.1286 98.3037 34.1392 98.1764 34.141C97.9676 34.1445 97.773 34.1074 97.5926 34.0295C97.4121 33.9517 97.2662 33.8314 97.1547 33.6686C97.0433 33.5059 96.9875 33.3015 96.9875 33.0556V29.0355ZM102.123 35.6164C102.005 35.6164 101.897 35.6066 101.799 35.5872C101.702 35.5695 101.63 35.55 101.582 35.5288L101.773 34.8787C101.918 34.9176 102.047 34.9344 102.16 34.9291C102.273 34.9238 102.373 34.8813 102.46 34.8017C102.549 34.7221 102.626 34.5921 102.694 34.4116L102.792 34.141L101.3 30.012H102.15L103.182 33.1751H103.224L104.257 30.012H105.108L103.429 34.6319C103.351 34.8442 103.252 35.0237 103.131 35.1706C103.011 35.3192 102.868 35.4306 102.702 35.5049C102.535 35.5792 102.342 35.6164 102.123 35.6164ZM107.507 34.1702C107.125 34.1702 106.791 34.0826 106.507 33.9074C106.222 33.7323 106.001 33.4873 105.843 33.1724C105.686 32.8575 105.607 32.4895 105.607 32.0685C105.607 31.6457 105.686 31.276 105.843 30.9593C106.001 30.6426 106.222 30.3967 106.507 30.2216C106.791 30.0465 107.125 29.9589 107.507 29.9589C107.889 29.9589 108.223 30.0465 108.507 30.2216C108.792 30.3967 109.013 30.6426 109.171 30.9593C109.328 31.276 109.407 31.6457 109.407 32.0685C109.407 32.4895 109.328 32.8575 109.171 33.1724C109.013 33.4873 108.792 33.7323 108.507 33.9074C108.223 34.0826 107.889 34.1702 107.507 34.1702ZM107.51 33.5041C107.757 33.5041 107.963 33.4386 108.125 33.3077C108.288 33.1768 108.408 33.0026 108.486 32.785C108.566 32.5674 108.606 32.3277 108.606 32.0659C108.606 31.8058 108.566 31.567 108.486 31.3494C108.408 31.13 108.288 30.954 108.125 30.8213C107.963 30.6886 107.757 30.6223 107.51 30.6223C107.26 30.6223 107.053 30.6886 106.889 30.8213C106.726 30.954 106.605 31.13 106.525 31.3494C106.447 31.567 106.408 31.8058 106.408 32.0659C106.408 32.3277 106.447 32.5674 106.525 32.785C106.605 33.0026 106.726 33.1768 106.889 33.3077C107.053 33.4386 107.26 33.5041 107.51 33.5041ZM112.949 32.3976V30.012H113.745V34.0879H112.965V33.382H112.923C112.829 33.5996 112.679 33.781 112.472 33.926C112.266 34.0693 112.011 34.141 111.705 34.141C111.443 34.141 111.211 34.0835 111.009 33.9685C110.81 33.8517 110.652 33.6792 110.537 33.451C110.424 33.2228 110.367 32.9407 110.367 32.6045V30.012H111.161V32.509C111.161 32.7867 111.238 33.0079 111.392 33.1724C111.546 33.3369 111.745 33.4192 111.991 33.4192C112.14 33.4192 112.288 33.382 112.434 33.3077C112.583 33.2334 112.706 33.1211 112.803 32.9707C112.902 32.8204 112.951 32.6293 112.949 32.3976ZM114.886 34.0879V30.012H115.653V30.6595H115.695C115.77 30.4401 115.901 30.2676 116.088 30.142C116.278 30.0146 116.492 29.9509 116.73 29.9509C116.78 29.9509 116.838 29.9527 116.906 29.9563C116.975 29.9598 117.028 29.9642 117.067 29.9695V30.7284C117.036 30.7196 116.979 30.7099 116.898 30.6993C116.816 30.6869 116.735 30.6807 116.653 30.6807C116.466 30.6807 116.299 30.7205 116.152 30.8001C116.007 30.8779 115.892 30.9867 115.807 31.1265C115.722 31.2645 115.68 31.4219 115.68 31.5988V34.0879H114.886ZM121.821 30.012V30.6488H119.518V30.012H121.821ZM120.149 34.0879V29.5396C120.149 29.2849 120.205 29.0735 120.316 28.9054C120.428 28.7356 120.575 28.6091 120.759 28.526C120.943 28.4411 121.143 28.3986 121.359 28.3986C121.518 28.3986 121.655 28.4119 121.768 28.4384C121.881 28.4632 121.965 28.4862 122.02 28.5074L121.834 29.1496C121.797 29.1389 121.749 29.1266 121.691 29.1124C121.632 29.0965 121.562 29.0885 121.479 29.0885C121.286 29.0885 121.148 29.1363 121.065 29.2318C120.983 29.3274 120.942 29.4653 120.942 29.6458V34.0879H120.149ZM122.714 34.0879V30.012H123.508V34.0879H122.714ZM123.115 29.3831C122.977 29.3831 122.858 29.3371 122.759 29.2451C122.662 29.1513 122.613 29.0399 122.613 28.9107C122.613 28.7798 122.662 28.6684 122.759 28.5764C122.858 28.4826 122.977 28.4357 123.115 28.4357C123.253 28.4357 123.37 28.4826 123.468 28.5764C123.567 28.6684 123.616 28.7798 123.616 28.9107C123.616 29.0399 123.567 29.1513 123.468 29.2451C123.37 29.3371 123.253 29.3831 123.115 29.3831ZM125.443 31.6678V34.0879H124.65V30.012H125.411V30.6754H125.462C125.555 30.4595 125.702 30.2862 125.902 30.1553C126.104 30.0244 126.358 29.9589 126.664 29.9589C126.942 29.9589 127.185 30.0173 127.394 30.134C127.602 30.249 127.764 30.4206 127.879 30.6488C127.994 30.877 128.052 31.1592 128.052 31.4953V34.0879H127.258V31.5909C127.258 31.2954 127.181 31.0646 127.027 30.8983C126.873 30.7302 126.662 30.6462 126.393 30.6462C126.209 30.6462 126.046 30.686 125.902 30.7656C125.761 30.8452 125.648 30.962 125.565 31.1159C125.484 31.268 125.443 31.452 125.443 31.6678ZM130.899 35.7013C130.576 35.7013 130.297 35.6588 130.063 35.5739C129.832 35.489 129.642 35.3767 129.496 35.2369C129.349 35.0971 129.239 34.9441 129.167 34.7778L129.849 34.4965C129.896 34.5744 129.96 34.6566 130.04 34.7433C130.121 34.8318 130.231 34.907 130.369 34.9689C130.508 35.0308 130.688 35.0618 130.907 35.0618C131.208 35.0618 131.457 34.9883 131.653 34.8415C131.849 34.6964 131.948 34.4647 131.948 34.1463V33.3449H131.897C131.849 33.4316 131.78 33.528 131.69 33.6341C131.602 33.7403 131.48 33.8323 131.324 33.9101C131.168 33.9879 130.966 34.0269 130.716 34.0269C130.394 34.0269 130.104 33.9517 129.846 33.8013C129.589 33.6492 129.386 33.4254 129.236 33.1299C129.087 32.8327 129.013 32.4674 129.013 32.034C129.013 31.6006 129.086 31.2291 129.233 30.9195C129.382 30.6099 129.585 30.3729 129.843 30.2083C130.102 30.0421 130.394 29.9589 130.722 29.9589C130.975 29.9589 131.179 30.0014 131.335 30.0863C131.49 30.1694 131.611 30.2667 131.698 30.3782C131.787 30.4896 131.855 30.5878 131.902 30.6727H131.961V30.012H132.738V34.1781C132.738 34.5284 132.657 34.8159 132.494 35.0405C132.331 35.2652 132.111 35.4315 131.833 35.5394C131.557 35.6473 131.246 35.7013 130.899 35.7013ZM130.891 33.3688C131.12 33.3688 131.312 33.3157 131.47 33.2096C131.629 33.1016 131.749 32.9477 131.831 32.7478C131.914 32.5462 131.955 32.3047 131.955 32.0234C131.955 31.7492 131.915 31.5077 131.833 31.299C131.752 31.0902 131.633 30.9275 131.475 30.8107C131.318 30.6922 131.123 30.6329 130.891 30.6329C130.653 30.6329 130.454 30.6948 130.294 30.8187C130.135 30.9407 130.015 31.107 129.933 31.3175C129.854 31.5281 129.814 31.7633 129.814 32.0234C129.814 32.2905 129.855 32.5249 129.936 32.7266C130.017 32.9283 130.138 33.0857 130.297 33.1989C130.458 33.3122 130.656 33.3688 130.891 33.3688ZM136.459 32.3976V30.012H137.255V34.0879H136.475V33.382H136.433C136.339 33.5996 136.188 33.781 135.981 33.926C135.776 34.0693 135.521 34.141 135.215 34.141C134.953 34.141 134.721 34.0835 134.519 33.9685C134.319 33.8517 134.162 33.6792 134.047 33.451C133.934 33.2228 133.877 32.9407 133.877 32.6045V30.012H134.671V32.509C134.671 32.7867 134.747 33.0079 134.901 33.1724C135.055 33.3369 135.255 33.4192 135.501 33.4192C135.65 33.4192 135.797 33.382 135.944 33.3077C136.093 33.2334 136.216 33.1211 136.313 32.9707C136.412 32.8204 136.461 32.6293 136.459 32.3976ZM138.396 34.0879V30.012H139.163V30.6595H139.205C139.28 30.4401 139.41 30.2676 139.598 30.142C139.787 30.0146 140.001 29.9509 140.24 29.9509C140.29 29.9509 140.348 29.9527 140.415 29.9563C140.484 29.9598 140.538 29.9642 140.577 29.9695V30.7284C140.545 30.7196 140.489 30.7099 140.407 30.6993C140.326 30.6869 140.245 30.6807 140.163 30.6807C139.976 30.6807 139.809 30.7205 139.662 30.8001C139.517 30.8779 139.402 30.9867 139.317 31.1265C139.232 31.2645 139.189 31.4219 139.189 31.5988V34.0879H138.396ZM142.949 34.1702C142.548 34.1702 142.202 34.0844 141.912 33.9128C141.623 33.7394 141.4 33.4961 141.243 33.183C141.087 32.8681 141.009 32.4993 141.009 32.0765C141.009 31.659 141.087 31.291 141.243 30.9726C141.4 30.6541 141.62 30.4056 141.901 30.2269C142.184 30.0482 142.515 29.9589 142.894 29.9589C143.124 29.9589 143.346 29.9969 143.562 30.073C143.778 30.1491 143.972 30.2685 144.143 30.4312C144.315 30.594 144.45 30.8054 144.549 31.0655C144.648 31.3237 144.698 31.6377 144.698 32.0075V32.2888H141.458V31.6944H143.92C143.92 31.4856 143.878 31.3007 143.793 31.1398C143.708 30.977 143.589 30.8487 143.435 30.755C143.283 30.6612 143.104 30.6143 142.899 30.6143C142.676 30.6143 142.481 30.6692 142.315 30.7789C142.151 30.8868 142.023 31.0283 141.933 31.2034C141.844 31.3768 141.8 31.5652 141.8 31.7687V32.233C141.8 32.5055 141.848 32.7372 141.944 32.9283C142.041 33.1193 142.176 33.2653 142.35 33.3661C142.523 33.4652 142.725 33.5147 142.957 33.5147C143.108 33.5147 143.245 33.4935 143.369 33.451C143.492 33.4068 143.599 33.3413 143.69 33.2547C143.78 33.168 143.849 33.061 143.897 32.9336L144.648 33.0689C144.587 33.29 144.479 33.4838 144.324 33.65C144.17 33.8146 143.976 33.9428 143.743 34.0348C143.511 34.125 143.246 34.1702 142.949 34.1702ZM149.608 30.012V30.6488H147.382V30.012H149.608ZM147.979 29.0355H148.772V32.8911C148.772 33.045 148.795 33.1609 148.841 33.2387C148.887 33.3148 148.946 33.367 149.019 33.3953C149.093 33.4218 149.174 33.4351 149.26 33.4351C149.324 33.4351 149.38 33.4307 149.428 33.4218C149.475 33.413 149.512 33.4059 149.539 33.4006L149.682 34.056C149.636 34.0737 149.571 34.0914 149.486 34.1091C149.401 34.1286 149.295 34.1392 149.167 34.141C148.959 34.1445 148.764 34.1074 148.584 34.0295C148.403 33.9517 148.257 33.8314 148.146 33.6686C148.034 33.5059 147.979 33.3015 147.979 33.0556V29.0355ZM150.56 34.0879V30.012H151.354V34.0879H150.56ZM150.961 29.3831C150.823 29.3831 150.705 29.3371 150.605 29.2451C150.508 29.1513 150.46 29.0399 150.46 28.9107C150.46 28.7798 150.508 28.6684 150.605 28.5764C150.705 28.4826 150.823 28.4357 150.961 28.4357C151.099 28.4357 151.217 28.4826 151.314 28.5764C151.413 28.6684 151.463 28.7798 151.463 28.9107C151.463 29.0399 151.413 29.1513 151.314 29.2451C151.217 29.3371 151.099 29.3831 150.961 29.3831ZM152.496 35.6164V30.012H153.271V30.6727H153.337C153.383 30.5878 153.449 30.4896 153.536 30.3782C153.623 30.2667 153.743 30.1694 153.897 30.0863C154.051 30.0014 154.254 29.9589 154.507 29.9589C154.836 29.9589 155.13 30.0421 155.388 30.2083C155.647 30.3746 155.849 30.6143 155.996 30.9275C156.145 31.2406 156.219 31.6174 156.219 32.0579C156.219 32.4984 156.145 32.8761 155.999 33.191C155.852 33.5041 155.65 33.7456 155.394 33.9154C155.137 34.0835 154.844 34.1675 154.515 34.1675C154.268 34.1675 154.065 34.1259 153.908 34.0428C153.752 33.9596 153.63 33.8623 153.541 33.7509C153.453 33.6394 153.385 33.5404 153.337 33.4537H153.289V35.6164H152.496ZM153.273 32.0499C153.273 32.3365 153.315 32.5877 153.398 32.8036C153.481 33.0194 153.602 33.1883 153.759 33.3104C153.916 33.4307 154.109 33.4908 154.338 33.4908C154.575 33.4908 154.773 33.428 154.932 33.3024C155.091 33.1751 155.211 33.0026 155.293 32.785C155.376 32.5674 155.418 32.3224 155.418 32.0499C155.418 31.781 155.377 31.5396 155.295 31.3255C155.216 31.1114 155.096 30.9425 154.935 30.8187C154.775 30.6948 154.576 30.6329 154.338 30.6329C154.108 30.6329 153.913 30.6922 153.754 30.8107C153.596 30.9292 153.477 31.0946 153.395 31.3069C153.314 31.5192 153.273 31.7669 153.273 32.0499ZM160.237 31.0071L159.518 31.1344C159.488 31.0425 159.44 30.9549 159.374 30.8717C159.311 30.7886 159.224 30.7205 159.114 30.6674C159.005 30.6143 158.868 30.5878 158.703 30.5878C158.478 30.5878 158.291 30.6382 158.141 30.7391C157.99 30.8381 157.915 30.9664 157.915 31.1238C157.915 31.26 157.965 31.3697 158.066 31.4529C158.167 31.536 158.33 31.6041 158.554 31.6572L159.202 31.8058C159.577 31.8925 159.857 32.0261 160.04 32.2065C160.224 32.3869 160.316 32.6213 160.316 32.9097C160.316 33.1538 160.246 33.3714 160.104 33.5625C159.964 33.7518 159.769 33.9004 159.518 34.0083C159.268 34.1162 158.979 34.1702 158.65 34.1702C158.194 34.1702 157.821 34.0729 157.533 33.8783C157.244 33.6819 157.068 33.4033 157.002 33.0424L157.769 32.9256C157.817 33.1255 157.915 33.2768 158.064 33.3794C158.212 33.4802 158.406 33.5306 158.645 33.5306C158.905 33.5306 159.113 33.4767 159.268 33.3688C159.424 33.2591 159.502 33.1255 159.502 32.9681C159.502 32.8407 159.454 32.7337 159.359 32.647C159.265 32.5603 159.121 32.4949 158.926 32.4506L158.236 32.2994C157.856 32.2127 157.574 32.0747 157.392 31.8854C157.212 31.6961 157.122 31.4564 157.122 31.1663C157.122 30.9257 157.189 30.7152 157.323 30.5347C157.458 30.3543 157.643 30.2137 157.88 30.1128C158.118 30.0102 158.389 29.9589 158.695 29.9589C159.136 29.9589 159.482 30.0544 159.735 30.2455C159.988 30.4348 160.155 30.6886 160.237 31.0071Z" fill="#EC6B6C"/>
</svg>
