<svg width="37" height="37" viewBox="0 0 37 37" fill="none" xmlns="http://www.w3.org/2000/svg">
<circle cx="18.5" cy="18.8906" r="18" fill="#EB4C42"/>
<path d="M26.045 21.9159V19.4949H28.467V17.6799H26.045V15.2589H24.23V17.6799H21.809V19.4949H24.23V21.9159H26.045ZM14.552 15.1929C15.685 15.1929 16.448 15.6769 16.882 16.0889L18.604 14.4189C17.556 13.4389 16.189 12.8389 14.552 12.8389C11.214 12.8379 8.5 15.5499 8.5 18.8909C8.5 22.2319 11.214 24.9439 14.552 24.9439C18.045 24.9439 20.364 22.4869 20.364 19.0309C20.364 18.5279 20.3 18.1709 20.211 17.7909H14.549V20.0469H17.881C17.723 20.9979 16.87 22.6029 14.552 22.6029C12.549 22.6029 10.915 20.9379 10.915 18.8989C10.915 16.8569 12.549 15.1929 14.552 15.1929Z" fill="white"/>
</svg>
