<svg width="21" height="20" viewBox="0 0 21 20" fill="none" xmlns="http://www.w3.org/2000/svg">
<path d="M18.1305 3.19809C17.6707 2.73662 17.1242 2.37047 16.5225 2.12063C15.9208 1.87079 15.2758 1.74219 14.6243 1.74219C13.9728 1.74219 13.3277 1.87079 12.726 2.12063C12.1243 2.37047 11.5779 2.73662 11.118 3.19809L10.4122 3.91309L9.70636 3.19809C9.24648 2.73662 8.70004 2.37047 8.09836 2.12063C7.49668 1.87079 6.8516 1.74219 6.20011 1.74219C5.54862 1.74219 4.90353 1.87079 4.30185 2.12063C3.70017 2.37047 3.15373 2.73662 2.69386 3.19809C0.750522 5.14142 0.631355 8.42309 3.07886 10.9164L10.4122 18.2498L17.7455 10.9164C20.193 8.42309 20.0739 5.14142 18.1305 3.19809Z" stroke="#6D7175" stroke-width="1.8" stroke-linecap="round" stroke-linejoin="round"/>
</svg>
