<svg width="23" height="23" viewBox="0 0 23 23" fill="none" xmlns="http://www.w3.org/2000/svg">
<path d="M6 2.50195L3.25 6.16862V19.002C3.25 19.4882 3.44315 19.9545 3.78697 20.2983C4.13079 20.6421 4.5971 20.8353 5.08333 20.8353H17.9167C18.4029 20.8353 18.8692 20.6421 19.213 20.2983C19.5568 19.9545 19.75 19.4882 19.75 19.002V6.16862L17 2.50195H6Z" stroke="#202223" stroke-width="1.5" stroke-linecap="round" stroke-linejoin="round"/>
<path d="M3.25 6.16797H19.75" stroke="#202223" stroke-width="1.5" stroke-linecap="round" stroke-linejoin="round"/>
<path d="M15.1654 9.83398C15.1654 10.8064 14.7791 11.7391 14.0914 12.4267C13.4038 13.1143 12.4712 13.5007 11.4987 13.5007C10.5262 13.5007 9.59361 13.1143 8.90597 12.4267C8.21834 11.7391 7.83203 10.8064 7.83203 9.83398" stroke="#202223" stroke-width="1.5" stroke-linecap="round" stroke-linejoin="round"/>
</svg>
