<svg width="30" height="27" viewBox="0 0 30 27" fill="none" xmlns="http://www.w3.org/2000/svg">
<path d="M24.3333 26.9996H5.66665C5.31302 26.9996 4.97389 26.8591 4.72384 26.609C4.47379 26.359 4.33331 26.0199 4.33331 25.6662V13.6662H0.333313L14.1026 1.1489C14.3481 0.925538 14.6681 0.801758 15 0.801758C15.3319 0.801758 15.6518 0.925538 15.8973 1.1489L29.6666 13.6662H25.6666V25.6662C25.6666 26.0199 25.5262 26.359 25.2761 26.609C25.0261 26.8591 24.6869 26.9996 24.3333 26.9996ZM6.99998 24.3329H23V11.2089L15 3.9369L6.99998 11.2089V24.3329ZM15 18.9996C14.1159 18.9996 13.2681 18.6484 12.643 18.0233C12.0178 17.3981 11.6666 16.5503 11.6666 15.6662C11.6666 14.7822 12.0178 13.9343 12.643 13.3092C13.2681 12.6841 14.1159 12.3329 15 12.3329C15.884 12.3329 16.7319 12.6841 17.357 13.3092C17.9821 13.9343 18.3333 14.7822 18.3333 15.6662C18.3333 16.5503 17.9821 17.3981 17.357 18.0233C16.7319 18.6484 15.884 18.9996 15 18.9996Z" fill="#EC6B6C"/>
</svg>
