<svg width="30" height="27" viewBox="0 0 30 27" fill="none" xmlns="http://www.w3.org/2000/svg">
<path d="M24.3333 27.0001H5.66665C5.31302 27.0001 4.97389 26.8596 4.72384 26.6095C4.47379 26.3595 4.33331 26.0203 4.33331 25.6667V13.6667H0.333313L14.1026 1.14939C14.3481 0.926026 14.6681 0.802246 15 0.802246C15.3319 0.802246 15.6518 0.926026 15.8973 1.14939L29.6666 13.6667H25.6666V25.6667C25.6666 26.0203 25.5262 26.3595 25.2761 26.6095C25.0261 26.8596 24.6869 27.0001 24.3333 27.0001ZM6.99998 24.3334H23V11.2094L15 3.93739L6.99998 11.2094V24.3334ZM15 19.0001C14.1159 19.0001 13.2681 18.6489 12.643 18.0237C12.0178 17.3986 11.6666 16.5508 11.6666 15.6667C11.6666 14.7827 12.0178 13.9348 12.643 13.3097C13.2681 12.6846 14.1159 12.3334 15 12.3334C15.884 12.3334 16.7319 12.6846 17.357 13.3097C17.9821 13.9348 18.3333 14.7827 18.3333 15.6667C18.3333 16.5508 17.9821 17.3986 17.357 18.0237C16.7319 18.6489 15.884 19.0001 15 19.0001Z" fill="#6D7175"/>
</svg>
