<svg width="57" height="57" viewBox="0 0 57 57" fill="none" xmlns="http://www.w3.org/2000/svg">
<rect x="0.463867" y="0.71875" width="56" height="56" rx="8" fill="#FDF0F0"/>
<path d="M19.4989 39.9688L19.4739 39.9938L19.4476 39.9688H17.2039C16.8749 39.9684 16.5595 39.8375 16.327 39.6048C16.0945 39.372 15.9639 39.0565 15.9639 38.7275V18.71C15.9662 18.3817 16.0975 18.0675 16.3295 17.8353C16.5615 17.603 16.8756 17.4714 17.2039 17.4688H39.7239C40.4089 17.4688 40.9639 18.025 40.9639 18.71V38.7275C40.9616 39.0558 40.8302 39.37 40.5982 39.6022C40.3662 39.8345 40.0521 39.9661 39.7239 39.9688H19.4989ZM38.4639 32.4688V19.9688H18.4639V37.4688L30.9639 24.9688L38.4639 32.4688ZM38.4639 36.0037L30.9639 28.5037L21.9989 37.4688H38.4639V36.0037ZM23.4639 27.4688C22.8008 27.4688 22.1649 27.2054 21.6961 26.7365C21.2273 26.2677 20.9639 25.6318 20.9639 24.9688C20.9639 24.3057 21.2273 23.6698 21.6961 23.201C22.1649 22.7321 22.8008 22.4688 23.4639 22.4688C24.1269 22.4688 24.7628 22.7321 25.2316 23.201C25.7005 23.6698 25.9639 24.3057 25.9639 24.9688C25.9639 25.6318 25.7005 26.2677 25.2316 26.7365C24.7628 27.2054 24.1269 27.4688 23.4639 27.4688Z" fill="#EC6B6C"/>
</svg>
