<svg width="37" height="37" viewBox="0 0 37 37" fill="none" xmlns="http://www.w3.org/2000/svg">
<circle cx="18.5" cy="18.8906" r="18" fill="#CD486B"/>
<g clip-path="url(#clip0_2032_1527)">
<path fill-rule="evenodd" clip-rule="evenodd" d="M15.0988 10.6901C15.9785 10.6496 16.259 10.6406 18.5 10.6406C20.741 10.6406 21.0215 10.6504 21.9005 10.6901C22.7795 10.7299 23.3795 10.8701 23.9045 11.0734C24.4542 11.2811 24.953 11.6059 25.3655 12.0259C25.7855 12.4376 26.1095 12.9356 26.3165 13.4861C26.5205 14.0111 26.66 14.6111 26.7005 15.4886C26.741 16.3699 26.75 16.6504 26.75 18.8906C26.75 21.1316 26.7402 21.4121 26.7005 22.2919C26.6608 23.1694 26.5205 23.7694 26.3165 24.2944C26.1095 24.8449 25.785 25.3438 25.3655 25.7561C24.953 26.1761 24.4542 26.5001 23.9045 26.7071C23.3795 26.9111 22.7795 27.0506 21.902 27.0911C21.0215 27.1316 20.741 27.1406 18.5 27.1406C16.259 27.1406 15.9785 27.1309 15.0988 27.0911C14.2213 27.0514 13.6213 26.9111 13.0963 26.7071C12.5457 26.5001 12.0469 26.1756 11.6345 25.7561C11.2148 25.3441 10.89 24.8455 10.6828 24.2951C10.4795 23.7701 10.34 23.1701 10.2995 22.2926C10.259 21.4114 10.25 21.1309 10.25 18.8906C10.25 16.6496 10.2597 16.3691 10.2995 15.4901C10.3392 14.6111 10.4795 14.0111 10.6828 13.4861C10.8903 12.9357 11.2153 12.4371 11.6352 12.0251C12.047 11.6055 12.5454 11.2807 13.0955 11.0734C13.6205 10.8701 14.2213 10.7306 15.0988 10.6901ZM21.8337 12.1751C20.9637 12.1354 20.7028 12.1271 18.5 12.1271C16.2972 12.1271 16.0362 12.1354 15.1662 12.1751C14.3615 12.2119 13.925 12.3461 13.634 12.4594C13.2492 12.6094 12.974 12.7871 12.6853 13.0759C12.4115 13.3422 12.2009 13.6663 12.0687 14.0246C11.9555 14.3156 11.8212 14.7521 11.7845 15.5569C11.7448 16.4269 11.7365 16.6879 11.7365 18.8906C11.7365 21.0934 11.7448 21.3544 11.7845 22.2244C11.8212 23.0291 11.9555 23.4656 12.0687 23.7566C12.2007 24.1144 12.4115 24.4391 12.6853 24.7054C12.9515 24.9791 13.2763 25.1899 13.634 25.3219C13.925 25.4351 14.3615 25.5694 15.1662 25.6061C16.0362 25.6459 16.2965 25.6541 18.5 25.6541C20.7035 25.6541 20.9637 25.6459 21.8337 25.6061C22.6385 25.5694 23.075 25.4351 23.366 25.3219C23.7508 25.1719 24.026 24.9941 24.3148 24.7054C24.5885 24.4391 24.7993 24.1144 24.9313 23.7566C25.0445 23.4656 25.1788 23.0291 25.2155 22.2244C25.2552 21.3544 25.2635 21.0934 25.2635 18.8906C25.2635 16.6879 25.2552 16.4269 25.2155 15.5569C25.1788 14.7521 25.0445 14.3156 24.9313 14.0246C24.7813 13.6399 24.6035 13.3646 24.3148 13.0759C24.0484 12.8022 23.7243 12.5915 23.366 12.4594C23.075 12.3461 22.6385 12.2119 21.8337 12.1751ZM17.4462 21.4339C18.0347 21.6788 18.69 21.7119 19.3002 21.5274C19.9104 21.3429 20.4375 20.9523 20.7917 20.4223C21.1459 19.8923 21.305 19.2558 21.242 18.6215C21.179 17.9871 20.8978 17.3944 20.4462 16.9444C20.1584 16.6567 19.8104 16.4365 19.4272 16.2995C19.0441 16.1625 18.6353 16.1121 18.2304 16.1521C17.8254 16.192 17.4344 16.3213 17.0854 16.5305C16.7363 16.7397 16.4381 17.0237 16.212 17.362C15.9859 17.7003 15.8376 18.0846 15.7779 18.4871C15.7181 18.8896 15.7484 19.3003 15.8664 19.6898C15.9844 20.0792 16.1874 20.4376 16.4605 20.7392C16.7337 21.0408 17.0704 21.278 17.4462 21.4339ZM15.5015 15.8921C15.8953 15.4984 16.3627 15.186 16.8772 14.9729C17.3917 14.7598 17.9431 14.6501 18.5 14.6501C19.0569 14.6501 19.6083 14.7598 20.1228 14.9729C20.6373 15.186 21.1047 15.4984 21.4985 15.8921C21.8923 16.2859 22.2046 16.7534 22.4177 17.2678C22.6308 17.7823 22.7405 18.3338 22.7405 18.8906C22.7405 19.4475 22.6308 19.9989 22.4177 20.5134C22.2046 21.0279 21.8923 21.4954 21.4985 21.8891C20.7032 22.6844 19.6247 23.1311 18.5 23.1311C17.3753 23.1311 16.2968 22.6844 15.5015 21.8891C14.7062 21.0939 14.2595 20.0153 14.2595 18.8906C14.2595 17.766 14.7062 16.6874 15.5015 15.8921ZM23.681 15.2816C23.7786 15.1896 23.8567 15.0789 23.9107 14.9561C23.9648 14.8333 23.9936 14.701 23.9956 14.5668C23.9975 14.4327 23.9725 14.2995 23.9221 14.1752C23.8717 14.0509 23.7968 13.938 23.702 13.8432C23.6071 13.7483 23.4942 13.6734 23.3699 13.623C23.2456 13.5726 23.1124 13.5476 22.9783 13.5496C22.8442 13.5515 22.7118 13.5804 22.589 13.6344C22.4662 13.6884 22.3555 13.7665 22.2635 13.8641C22.0845 14.0539 21.9865 14.306 21.9903 14.5668C21.9941 14.8277 22.0994 15.0768 22.2839 15.2613C22.4683 15.4457 22.7174 15.551 22.9783 15.5548C23.2392 15.5587 23.4912 15.4606 23.681 15.2816Z" fill="white"/>
</g>
<defs>
<clipPath id="clip0_2032_1527">
<rect width="18" height="18" fill="white" transform="translate(9.5 9.89062)"/>
</clipPath>
</defs>
</svg>
