<svg width="24" height="21" viewBox="0 0 24 21" fill="none" xmlns="http://www.w3.org/2000/svg">
<path d="M20.4201 3.58002C19.9184 3.07659 19.3223 2.67716 18.6659 2.40461C18.0095 2.13206 17.3058 1.99176 16.5951 1.99176C15.8844 1.99176 15.1806 2.13206 14.5243 2.40461C13.8679 2.67716 13.2718 3.07659 12.7701 3.58002L12.0001 4.36002L11.2301 3.58002C10.7284 3.07659 10.1323 2.67716 9.47591 2.40461C8.81953 2.13206 8.1158 1.99176 7.40509 1.99176C6.69437 1.99176 5.99065 2.13206 5.33427 2.40461C4.67789 2.67716 4.08177 3.07659 3.58009 3.58002C1.46009 5.70002 1.33009 9.28002 4.00009 12L12.0001 20L20.0001 12C22.6701 9.28002 22.5401 5.70002 20.4201 3.58002Z" stroke="#132F3A" stroke-width="2" stroke-linecap="round" stroke-linejoin="round"/>
</svg>
