<svg version="1.2" xmlns="http://www.w3.org/2000/svg" viewBox="0 0 236 63" width="236" height="63"><style>.a{fill:#fff}.b{fill:none;stroke:#006a8b;stroke-opacity:.8}.c{fill:#006a8b}</style><rect class="a" x="10" y="6" width="52" height="52" rx="7"></rect><rect class="b" x="10.5" y="6.5" width="51" height="51" rx="6.5"></rect><path fill-rule="evenodd" class="c" d="m42.2 18.5c0 0 0.5 0 1 0 4.5 0.2 7.9 1.3 10.2 3.3 2.6 2.3 3.8 6.1 3.6 11.3-0.3 5.2-1.9 8.7-5.2 10.7-2.5 1.5-5.2 2.2-9 2.5-0.9 0.1-13.4 0.1-13.4 0 0 0-0.5-0.1-1.1-0.1-3.8-0.1-7-1-9.3-2.7-3.1-2.2-4.6-6.2-4.3-11.8 0.1-3.4 0.8-5.8 2.2-7.8 0.6-1 1.6-2 2.6-2.6 2.4-1.7 5.5-2.6 9.4-2.8 0.9-0.1 13.3-0.1 13.3 0zm-12.7 0.7c-0.2 0-0.4 0-0.5 0-0.6 0.1-1.6 0.4-2.1 0.7-2 1-3.1 2.9-3.7 6.3-0.3 1.8-0.3 2.5-0.3 6.4 0 2.5 0 3.8 0 4.4 0.3 2.3 0.7 4.1 1.3 5.4 1.2 2.2 2.8 3 6.5 3.1l1.2 0.1v-26.3h-1c-0.6 0-1.2-0.1-1.4-0.1zm11.3 0.1h-1v26.3h1.3c1.5 0 1.9-0.1 2.7-0.3 0.9-0.3 1.9-0.9 2.5-1.5 1.4-1.5 2.2-4.1 2.5-8.1 0-1.1 0-6 0-7.1-0.2-2.8-0.7-4.8-1.4-6.3-0.7-1.4-1.6-2.2-3.1-2.6-0.6-0.2-1.2-0.3-1.9-0.4-0.3 0-1 0-1.6 0z"/><path fill-rule="evenodd" class="c" d="m121.1 20.4c1.1 0.5 1.5 1.1 1.5 2.3 0 2-1.3 2.9-4.1 2.7-1.3 0-1.6-0.1-2.1-0.4-2-1.6-1.2-4.4 1.4-4.9 0.9-0.2 2.6 0 3.3 0.3zm-43.3 0.6c7 0 7.7 0.1 9.2 0.4 6.2 1.4 8.8 4.5 8.4 10.5-0.2 4.4-1.9 7-5.5 8.6-3.1 1.3-6 1.6-14 1.6-5 0-5.8 0-5.8-0.2 0-0.2 0.3-0.3 1.2-0.3h1.1v-20.2h-1.1c-1.1 0-1.5-0.1-1.2-0.4 0.1 0 3.6-0.1 7.7 0zm96.4-0.1c7.2 0 9.5 0.2 11.9 0.9 3.5 1.1 5.4 2.8 6.4 5.8 0.5 1.5 0.5 5.5 0 7.2-0.8 2.8-2.5 4.6-5.4 5.7-3.2 1.3-5.7 1.6-13.9 1.6-5 0-5.7 0-5.7-0.2 0-0.2 0.2-0.3 1.2-0.3h1.2v-20.2h-1.2c-1 0-1.2 0-1.2-0.2 0-0.2 0.8-0.3 6.7-0.3zm-92.9 0.6l-1.7-0.1v20.2l1.7-0.1c4-0.2 5.7-1.8 6.4-5.8 0.3-1.4 0.3-7.5 0-8.9q-0.8-4.1-3.6-5c-0.5-0.1-1.8-0.3-2.8-0.3zm97.5 0l-1.7-0.1v20.2h1.1c1.4 0 3.2-0.4 4.3-1 1.1-0.6 2-2 2.5-3.8 0.5-2 0.5-9.4 0-11.1-0.8-2.3-1.9-3.5-3.7-3.9-0.5-0.1-1.6-0.3-2.5-0.3zm-35.9 2.3c0.8 0.3 1 0.5 1.2 1.1 0.8 1.8-1.3 3.4-3.2 2.5-0.4-0.2-0.7-0.5-0.8-0.8-0.2-0.3-0.1-0.4 0.4-0.8 0.6-0.4 0.6-0.5 0.4-0.8-0.3-0.5-1.3-0.5-1.8 0-0.6 0.4-0.7 1-0.6 2.3 0.1 1 0.1 1.1 0.9 1.7q2 1.3 2 3.4c0 0.7-0.1 1.5-0.3 1.9-0.4 0.9-1.7 2-3.1 2.5-1.2 0.5-1.5 0.5-4.3 0.5-2.6 0.1-3.1 0.1-3.5 0.4-0.7 0.4-0.9 0.9-0.5 1.1 0.1 0 1.4 0.1 2.7 0.1 5.7 0 8.4 0.5 10 1.8 1.5 1.3 1.8 3.7 0.7 5.6-0.9 1.5-2.5 2.4-5.1 3-1.7 0.3-7.4 0.4-9.3 0.1-1.6-0.3-3.3-1-3.7-1.5-0.9-1.1-0.7-2.3 0.5-3.1 1-0.7 1.5-0.8 2.8-0.3l1.1 0.3-0.2 0.8c-0.4 1.6 0.2 2.7 1.8 3.2 1.3 0.4 4.5 0.4 6 0 2.1-0.6 3.2-2 2.7-3.5-0.3-1.2-1.7-1.5-6.7-1.5-3.8 0-5-0.2-6-1-0.8-0.7-1.1-1.6-0.8-2.5 0.3-0.9 0.9-1.5 2.5-2.4 0.8-0.4 1.4-0.8 1.3-0.8 0-0.1-0.3-0.3-0.8-0.4-1.1-0.4-2.3-1.3-2.8-2.1-0.1-0.4-0.3-1.1-0.4-1.7-0.2-2.2 1-3.9 3.5-4.8 1.1-0.5 1.6-0.5 3.7-0.6 2.4-0.1 2.9 0 4.4 0.6 0.3 0.1 0.4-0.1 0.3-1-0.2-1.5 0.3-2.5 1.3-3 0.4-0.3 0.9-0.5 1.1-0.5 0.7-0.2 1.8-0.1 2.6 0.2zm-31.8 3.5c0.1 0 0.1 1 0.1 2.3 0 1.4 0 2.3-0.2 2.3-0.1 0-0.4-0.4-0.7-0.9q-1.7-2.8-4.9-3c-2.3-0.1-3.9 0.6-3.9 1.8 0 0.9 0.8 1.4 3.7 2 5.5 1.3 7.2 2.6 7 5.7q-0.2 3.6-4 4.6c-1.5 0.3-4.4 0.3-5.9-0.2-0.6-0.2-1.3-0.4-1.4-0.5-0.4-0.3-1.1-0.1-1.7 0.5-0.3 0.3-0.7 0.5-0.7 0.5-0.1 0-0.1-1.2-0.1-2.6 0-1.6 0-2.7 0.1-2.7 0.2 0 0.4 0.3 0.6 0.8 1.2 3 4.5 4.4 8.2 3.7 1.8-0.4 2.5-1.9 1.3-2.8-0.5-0.5-1-0.6-4.7-1.6-4.2-1-5.7-2.3-5.5-5 0.2-2 1.2-3.4 3.2-4.2 0.7-0.3 1.4-0.4 2.8-0.5 1.6 0 2 0 3.4 0.4 1.9 0.5 2.1 0.5 2.7-0.1 0.2-0.3 0.5-0.5 0.6-0.5zm50.2 0.4c1.2 0.5 2.1 1.1 2.6 1.9 0.4 0.8 0.4 1.2 0.5 6.4l0.1 5.5 1.1 0.1c0.7 0 1 0.1 1 0.3 0 0.2-0.8 0.2-5.2 0.2-4.5 0-5.2 0-5.2-0.2 0-0.2 0.2-0.3 0.7-0.3h0.8l-0.1-5.9c0-6.7 0-6.8-1.2-6.8-0.9-0.1-1.7 0.4-2.4 1.5l-0.5 0.9-0.2 10.3h0.8c0.5 0 0.7 0.1 0.7 0.3 0 0.2-0.7 0.2-5.1 0.2-4.4 0-5.1 0-5.1-0.2 0-0.2 0.2-0.3 1-0.3h1v-6.7l-0.1-6.7h-1c-0.6-0.1-0.9-0.1-0.9-0.3 0-0.2 0.7-0.3 4.4-0.3h4.4v2.8l0.4-0.7q0.9-1.4 2.3-1.9c1.1-0.4 4.1-0.4 5.2-0.1zm50.2 0.2c1.3 0.5 2.6 1.7 3.2 2.9 0.6 1.4 0.9 3.9 0.6 5.8-0.6 4-2.9 5.7-7.5 5.7-1.8 0-2.6-0.2-3.4-0.8l-0.5-0.5v7.8h2.3c2 0 2.4 0.1 2.4 0.3 0 0.2-0.9 0.2-6.8 0.2-5.8 0-6.7 0-6.8-0.2-0.1-0.2 0.1-0.3 0.9-0.3h1v-20.6h-0.9c-0.7 0-0.9-0.1-0.9-0.3 0-0.2 0.6-0.3 4.3-0.3h4.3v1.3c0 1 0 1.1 0.2 0.9 0.6-0.8 1.8-1.7 2.5-2 1.3-0.5 3.8-0.4 5.1 0.1zm18.2-0.2c3.3 0.7 5.1 2.3 5.6 5 1 4.5-1 8.1-5.1 9.2-2.2 0.6-6.2 0.5-8.4-0.1-3-1-4.9-3.5-4.9-6.8 0-3.8 2.2-6.4 6.2-7.3 1.4-0.3 5.3-0.3 6.6 0zm-111.9-0.1h4.5v14h1c0.8 0 1 0.1 1 0.3 0 0.2-0.7 0.2-5.4 0.2-4.7 0-5.4 0-5.4-0.2 0-0.2 0.2-0.3 1-0.3h1v-13.4h-1.1c-0.9 0-1.1-0.1-1.1-0.3 0-0.2 0.6-0.3 4.5-0.3zm15.1 0.7c-0.7 0.6-0.9 1.3-0.8 4.8 0.1 2.5 0.1 2.8 0.5 3.2 0.5 0.6 0.9 0.7 1.7 0.5 0.9-0.2 1.1-1 1.1-4.4 0-3.3-0.2-4.1-1.2-4.4-0.7-0.2-0.6-0.3-1.3 0.3zm92.8-0.4c-0.6 0.2-1.2 0.8-1.4 1.7-0.2 0.6-0.3 2.2-0.3 5.4 0 4.1 0 4.8 0.4 5.6 0.2 0.6 0.5 0.9 1 1.1 0.7 0.3 1.8 0.2 2.2-0.2 0.8-0.8 0.9-1.5 0.9-6.5 0-5.1-0.1-5.9-0.9-6.7-0.4-0.3-1.3-0.5-1.9-0.4zm-20.5 1.3c-1.2 1-1.3 1.7-1.3 6.3 0 3.7 0 4.2 0.4 4.9 0.4 0.7 1.2 1.2 2 1.2 0.3 0 0.7-0.2 1-0.5 0.9-0.7 1.1-2.1 1-7 0-3.5-0.1-4.3-0.4-4.7-0.2-0.3-0.5-0.6-0.7-0.6-0.7-0.3-1.3-0.1-2 0.4z"/></svg>