<svg width="170" height="37" viewBox="0 0 170 37" fill="none" xmlns="http://www.w3.org/2000/svg">
<path fill-rule="evenodd" clip-rule="evenodd" d="M93.7663 2.83677C92.1191 3.23988 91.6106 5.44615 92.8921 6.62883C93.1876 6.90136 93.4017 6.96135 94.227 7.00304C96.0101 7.0931 96.8052 6.42687 96.8052 4.84253C96.8052 3.92258 96.57 3.46823 95.893 3.08159C95.4265 2.81507 94.3576 2.69207 93.7663 2.83677ZM63.2698 3.56665C63.0676 3.76886 63.3448 3.88598 64.0256 3.88598H64.7366V11.7287V19.5713H64.0178C63.4661 19.5713 63.299 19.6168 63.299 19.7674C63.299 19.937 63.7967 19.9634 66.9945 19.9634C72.0848 19.9634 73.9744 19.6921 75.9083 18.6833C78.2464 17.4635 79.3115 15.459 79.4647 11.9901C79.6674 7.40041 78.0361 4.93794 74.0811 3.8631C73.1169 3.60103 72.6598 3.57476 68.1999 3.52561C65.5401 3.49633 63.3216 3.51476 63.2698 3.56665ZM125.508 3.68991C125.508 3.84245 125.683 3.88598 126.293 3.88598H127.077V11.7287V19.5713H126.293C125.683 19.5713 125.508 19.6148 125.508 19.7674C125.508 19.937 126.005 19.9633 129.2 19.9624C134.438 19.9608 136 19.7469 138.043 18.7514C139.903 17.8451 141.009 16.4262 141.536 14.269C141.851 12.983 141.853 9.88053 141.54 8.72229C140.899 6.34479 139.684 5.00382 137.432 4.18623C135.889 3.62587 134.448 3.49542 129.789 3.49464C126.071 3.49398 125.508 3.51959 125.508 3.68991ZM72.2184 4.2138C73.4181 4.63796 74.1965 5.93423 74.5332 8.06874C74.701 9.13233 74.706 13.857 74.5405 15.0005C74.093 18.0932 72.9565 19.3528 70.4543 19.5295L69.3109 19.6101V11.73V3.84978L70.4544 3.92206C71.0834 3.96192 71.8771 4.09316 72.2184 4.2138ZM134.355 4.15015C135.513 4.49862 136.219 5.42393 136.696 7.21911C137.044 8.5308 137.057 14.2915 136.715 15.828C136.409 17.2023 135.806 18.3107 135.102 18.7958C134.442 19.2495 133.297 19.5713 132.342 19.5713H131.651V11.7102V3.84912L132.729 3.91709C133.322 3.95448 134.054 4.0593 134.355 4.15015ZM108.126 5.54471C108.019 5.58301 107.712 5.76103 107.446 5.9405C106.777 6.39054 106.501 7.14539 106.591 8.27356C106.652 9.03351 106.636 9.12095 106.446 9.03991C105.45 8.61523 105.132 8.56792 103.618 8.61903C102.242 8.66543 101.949 8.71732 101.233 9.04162C99.6535 9.75648 98.8582 11.1185 99.0192 12.8321C99.0602 13.2676 99.1818 13.8345 99.2896 14.0919C99.5499 14.713 100.337 15.4612 101.03 15.7463C101.339 15.873 101.591 16.0097 101.591 16.05C101.592 16.0902 101.208 16.377 100.74 16.6873C99.7042 17.3733 99.2924 17.8433 99.0996 18.5591C98.9108 19.2606 99.1018 19.9365 99.6417 20.4765C100.27 21.1049 101.073 21.2706 103.493 21.2706C106.677 21.2706 107.542 21.5125 107.785 22.4724C108.074 23.6099 107.364 24.6783 106.011 25.1418C105.048 25.4717 103.06 25.4755 102.214 25.149C101.207 24.7605 100.808 23.9215 101.044 22.6915L101.16 22.0865L100.459 21.7958C99.6338 21.4538 99.298 21.5044 98.6568 22.0675C97.9216 22.7131 97.8179 23.6183 98.3807 24.4773C98.627 24.8535 99.7192 25.3723 100.742 25.5992C101.935 25.8638 105.615 25.8272 106.689 25.5401C108.361 25.0929 109.364 24.3747 109.948 23.2056C110.659 21.782 110.453 19.8961 109.477 18.8957C108.466 17.8603 106.768 17.4829 103.095 17.4781C102.232 17.4769 101.447 17.4253 101.349 17.3636C101.108 17.2109 101.259 16.8176 101.674 16.5159C101.964 16.3048 102.277 16.2686 103.925 16.2545C105.742 16.239 105.881 16.219 106.656 15.8611C107.592 15.4285 108.4 14.6277 108.661 13.8744C108.758 13.5929 108.838 12.9508 108.837 12.4476C108.837 11.3308 108.423 10.4279 107.596 9.74118C107.082 9.31428 107.051 9.2471 106.985 8.42977C106.904 7.41885 106.992 6.98162 107.346 6.62765C107.701 6.27238 108.335 6.28806 108.532 6.65706C108.667 6.9092 108.638 6.98554 108.294 7.27794C107.963 7.55949 107.92 7.66289 108.016 7.94365C108.079 8.12639 108.3 8.37643 108.508 8.49917C109.748 9.23206 111.092 8.0043 110.601 6.58583C110.452 6.15265 110.295 5.98311 109.83 5.74862C109.282 5.47216 108.571 5.38707 108.126 5.54471ZM89.066 8.853C88.7124 9.33141 88.5656 9.33585 87.3364 8.90503C86.5005 8.6121 86.2027 8.57211 85.1854 8.61576C84.2794 8.65472 83.8689 8.73653 83.421 8.9675C82.1074 9.6451 81.4574 10.6879 81.3625 12.2702C81.2393 14.3241 82.1696 15.3619 84.8632 16.1749C87.2451 16.894 87.5549 17.0149 87.9001 17.3602C88.647 18.1071 88.1881 19.2633 87.0289 19.5554C84.6626 20.1513 82.5553 18.9944 81.7857 16.6767C81.6698 16.3277 81.5208 16.0421 81.4548 16.0421C81.3865 16.0421 81.3345 16.9482 81.3345 18.1335C81.3345 19.2838 81.3658 20.2249 81.4039 20.2249C81.442 20.2249 81.6539 20.019 81.8748 19.7674C82.2652 19.3227 82.7131 19.1831 82.9747 19.4245C83.0431 19.4875 83.4517 19.6704 83.883 19.8309C84.8215 20.1803 86.664 20.2276 87.6236 19.927C89.2537 19.4163 90.1175 18.2382 90.202 16.4105C90.3133 14.0024 89.2513 12.9528 85.7202 11.9811C83.8809 11.4748 83.3733 11.1278 83.3733 10.3763C83.3733 9.43257 84.3465 8.89797 85.8472 9.01718C87.2123 9.12554 88.2476 9.89111 88.9777 11.3318C89.161 11.6939 89.369 11.9901 89.4397 11.9901C89.5175 11.9901 89.5681 11.2946 89.5681 10.2255C89.5681 9.25494 89.5204 8.46088 89.462 8.46088C89.4036 8.46088 89.2255 8.63733 89.066 8.853ZM118.255 8.83941C117.645 9.12214 117.15 9.62472 116.765 10.3542L116.491 10.8751V9.7987V8.72229H113.681C111.318 8.72229 110.871 8.75236 110.871 8.91117C110.871 9.04385 111.056 9.11195 111.492 9.13992L112.112 9.17978L112.147 14.3755L112.181 19.5713H111.526C111.031 19.5713 110.871 19.6192 110.871 19.7674C110.871 19.9364 111.321 19.9634 114.138 19.9634C116.955 19.9634 117.406 19.9364 117.406 19.7674C117.406 19.6299 117.267 19.5713 116.941 19.5713H116.477L116.516 15.5519L116.556 11.5326L116.911 10.8593C117.376 9.977 117.842 9.61295 118.441 9.66354C119.219 9.72942 119.231 9.81046 119.233 14.9637L119.235 19.5713H118.778C118.458 19.5713 118.32 19.6304 118.32 19.7674C118.32 19.9365 118.778 19.9634 121.653 19.9634C124.475 19.9634 124.986 19.9344 124.986 19.7742C124.986 19.6381 124.793 19.5739 124.3 19.5454L123.613 19.506L123.548 15.1925C123.487 11.1423 123.466 10.8423 123.204 10.2767C122.907 9.63491 122.332 9.11756 121.552 8.79169C120.85 8.49825 118.932 8.52596 118.255 8.83941ZM150.405 8.84307C149.923 9.05796 149.187 9.76156 148.812 10.3665C148.682 10.5754 148.655 10.4584 148.649 9.66994L148.641 8.72229H145.896C143.544 8.72229 143.152 8.75026 143.152 8.91835C143.152 9.06357 143.304 9.11442 143.74 9.11442H144.328V17.1532V25.1919H143.679C143.155 25.1919 143.044 25.2299 143.105 25.388C143.169 25.5567 143.778 25.584 147.479 25.584C151.213 25.584 151.777 25.5583 151.777 25.388C151.777 25.2251 151.523 25.1919 150.275 25.1919H148.772V22.1611V19.1303L149.131 19.4732C149.658 19.9759 150.15 20.1232 151.32 20.1281C154.259 20.1407 155.702 18.7904 156.104 15.6517C156.287 14.2242 156.109 12.2689 155.696 11.1629C155.346 10.2291 154.505 9.28618 153.677 8.90085C152.839 8.51002 151.217 8.48153 150.405 8.84307ZM161.089 8.79354C158.546 9.47859 157.14 11.4772 157.14 14.4082C157.14 16.9781 158.318 18.9708 160.268 19.7003C161.638 20.2126 164.221 20.2702 165.616 19.8195C168.205 18.9827 169.483 16.1805 168.882 12.6543C168.523 10.544 167.414 9.34095 165.304 8.77118C164.453 8.54126 161.977 8.55446 161.089 8.79354ZM90.875 8.91835C90.875 9.06893 91.0421 9.11442 91.5938 9.11442H92.3127V14.3429V19.5713H91.6592C91.1654 19.5713 91.0057 19.6193 91.0057 19.7674C91.0057 19.9368 91.4777 19.9634 94.4691 19.9634C97.4605 19.9634 97.9324 19.9368 97.9324 19.7674C97.9324 19.6193 97.7727 19.5713 97.279 19.5713H96.6255V14.1468V8.72229H93.7503C91.2816 8.72229 90.875 8.75 90.875 8.91835ZM104.269 8.98293C104.904 9.22435 105.036 9.82483 105.034 12.4476C105.031 15.0748 104.895 15.7012 104.29 15.853C103.8 15.976 103.543 15.884 103.239 15.4773C102.99 15.1439 102.96 14.9018 102.92 12.9397C102.865 10.2459 102.937 9.70915 103.423 9.22382C103.845 8.80123 103.814 8.81 104.269 8.98293ZM163.963 9.26801C164.441 9.82249 164.514 10.4985 164.517 14.4082C164.52 18.3067 164.454 18.9077 163.963 19.4707C163.669 19.8075 162.989 19.8925 162.521 19.6508C162.229 19.4994 162.062 19.265 161.885 18.7568C161.674 18.1531 161.645 17.6245 161.645 14.4736C161.645 11.9153 161.695 10.685 161.818 10.2064C161.983 9.56655 162.326 9.10397 162.756 8.94398C163.088 8.8202 163.724 8.99104 163.963 9.26801ZM150.922 9.58772C151.039 9.63243 151.234 9.85294 151.356 10.0779C151.544 10.4241 151.585 10.9837 151.624 13.7225C151.679 17.5505 151.552 18.6405 150.987 19.2055C150.786 19.4068 150.496 19.5713 150.343 19.5713C149.824 19.5713 149.281 19.1767 149.026 18.615C148.804 18.1259 148.777 17.7285 148.774 14.8563C148.771 11.236 148.86 10.7339 149.642 9.95203C150.073 9.52081 150.46 9.41048 150.922 9.58772ZM128.963 28.2258C128.652 28.3109 128.344 28.9396 128.344 29.49C128.344 29.8639 128.288 29.9541 128.009 30.024C127.594 30.1282 127.624 30.5372 128.051 30.5982C128.333 30.6383 128.344 30.6909 128.344 32.0033V33.3667H128.671H128.998V31.9942V30.6217H129.52C129.991 30.6217 130.043 30.5891 130.043 30.295C130.043 30.0009 129.991 29.9682 129.52 29.9682C129.012 29.9682 128.998 29.9558 128.998 29.52C128.998 28.9699 129.318 28.6169 129.744 28.6983C130.003 28.7477 130.05 28.7101 130.017 28.4808C129.988 28.2744 129.878 28.1983 129.586 28.1832C129.37 28.1719 129.09 28.191 128.963 28.2258ZM70.3169 30.8026V33.3667H71.4973C72.9537 33.3667 73.4449 33.1796 73.935 32.4383C74.2622 31.9432 74.303 31.7645 74.3029 30.8268C74.3027 28.958 73.6785 28.3736 71.5937 28.2898L70.3169 28.2385V30.8026ZM83.3769 28.476C83.2524 28.6262 83.2428 28.7427 83.3426 28.9008C83.5236 29.1878 83.9091 29.1783 84.0906 28.8821C84.2067 28.6928 84.185 28.6083 83.9819 28.4573C83.6609 28.219 83.5884 28.2212 83.3769 28.476ZM131.11 28.3837C131.014 28.4447 130.955 28.6349 130.979 28.8065C131.012 29.0399 131.105 29.1185 131.348 29.1185C131.718 29.1185 131.857 28.7615 131.606 28.4587C131.425 28.241 131.353 28.2299 131.11 28.3837ZM152.151 28.3837C152.055 28.4447 151.996 28.6349 152.021 28.8065C152.054 29.0399 152.147 29.1185 152.39 29.1185C152.759 29.1185 152.899 28.7615 152.648 28.4587C152.467 28.241 152.394 28.2299 152.151 28.3837ZM72.5781 29.062C73.262 29.2519 73.583 29.8041 73.5837 30.7917C73.5846 32.1273 73.0082 32.7131 71.6933 32.7131H71.101V30.8178V28.9225L71.5911 28.9233C71.8608 28.9236 72.3048 28.986 72.5781 29.062ZM104.82 29.4954C104.82 29.8278 104.755 29.9547 104.558 30.0061C104.402 30.047 104.297 30.1844 104.297 30.348C104.297 30.5345 104.38 30.6217 104.558 30.6217C104.799 30.6217 104.82 30.7102 104.824 31.7654C104.826 32.5228 104.888 32.9885 105.006 33.1439C105.207 33.4088 105.974 33.5655 106.229 33.3936C106.487 33.2192 106.276 32.8638 105.887 32.8187C105.544 32.7791 105.538 32.7599 105.5 31.7001L105.462 30.6217H105.925C106.332 30.6217 106.388 30.582 106.388 30.295C106.388 30.0087 106.331 29.9682 105.93 29.9682C105.495 29.9682 105.473 29.9463 105.473 29.5107C105.473 29.1098 105.433 29.0532 105.146 29.0532C104.862 29.0532 104.82 29.1108 104.82 29.4954ZM149.386 29.4954C149.386 29.8278 149.321 29.9547 149.124 30.0061C148.98 30.0436 148.863 30.1737 148.863 30.295C148.863 30.4163 148.98 30.5463 149.124 30.5838C149.359 30.6454 149.386 30.7621 149.386 31.7539C149.386 32.7494 149.416 32.8867 149.706 33.1765C150.033 33.5035 150.482 33.5855 150.81 33.3779C151.08 33.2067 150.879 32.8438 150.514 32.8438C150.112 32.8438 150.039 32.6417 150.039 31.526V30.6217H150.496C150.897 30.6217 150.954 30.5812 150.954 30.295C150.954 30.0087 150.897 29.9682 150.496 29.9682C150.061 29.9682 150.039 29.9463 150.039 29.5107C150.039 29.1098 149.998 29.0532 149.712 29.0532C149.428 29.0532 149.386 29.1108 149.386 29.4954ZM76.5248 29.99C75.7299 30.4297 75.3328 31.2293 75.4983 32.0568C75.6074 32.6025 76.3086 33.3038 76.8542 33.4129C77.7045 33.583 78.7719 33.072 78.4291 32.659C78.2971 32.4999 78.2265 32.4998 77.923 32.6582C77.7289 32.7594 77.4425 32.8425 77.2863 32.843C76.995 32.8438 76.198 32.2615 76.198 32.0479C76.198 31.9824 76.7567 31.9288 77.4396 31.9288H78.6812V31.4907C78.6812 30.9784 78.2234 30.238 77.7624 30.0046C77.3656 29.8039 76.8717 29.798 76.5248 29.99ZM80.5136 29.9833C80.0019 30.1875 79.7267 30.5023 79.7267 30.8832C79.7267 31.3263 80.0104 31.5836 80.8365 31.8903C81.5861 32.1683 81.7476 32.5008 81.2443 32.7302C80.9749 32.853 80.8509 32.8398 80.5756 32.6594C80.2452 32.4428 79.7267 32.478 79.7267 32.7168C79.7267 32.7811 79.8484 32.9471 79.9971 33.0856C80.8833 33.9113 82.6632 33.0414 82.1942 32.012C82.0538 31.704 81.2721 31.2753 80.8509 31.2753C80.7534 31.2753 80.6004 31.1871 80.5109 31.0792C80.2963 30.8207 80.5525 30.491 80.9683 30.491C81.1303 30.491 81.3362 30.5792 81.4257 30.6871C81.6121 30.9116 81.6833 30.9229 81.9293 30.7671C82.1984 30.5965 81.9059 30.1552 81.409 29.9819C80.9279 29.8142 80.9374 29.8142 80.5136 29.9833ZM86.0479 30.0882C85.4441 30.4564 85.2158 30.8591 85.2158 31.5558C85.2158 32.0245 85.2952 32.2646 85.5509 32.5685C86.0672 33.1822 87.1254 33.3668 87.6694 32.9379C87.9061 32.7513 87.9377 32.847 87.8039 33.3433C87.6009 34.0951 86.8111 34.2763 85.7059 33.8243C85.3837 33.6926 85.4051 34.0789 85.7385 34.4123C86.1212 34.7951 87.3953 34.782 87.8931 34.3904C88.4818 33.9273 88.6138 33.4174 88.6138 31.6062V29.9682H88.287C88.1073 29.9682 87.9603 30.024 87.9603 30.0922C87.9603 30.1604 87.7563 30.131 87.5071 30.0269C86.9012 29.7737 86.5386 29.7888 86.0479 30.0882ZM90.9358 30.0189C90.7295 30.1302 90.5467 30.1603 90.5033 30.09C90.4619 30.0229 90.3139 29.9682 90.1744 29.9682C89.9362 29.9682 89.9207 30.0725 89.9207 31.6674V33.3667H90.2474C90.5717 33.3667 90.5741 33.3579 90.5741 32.1903C90.5741 31.1881 90.6128 30.9752 90.8355 30.7524C91.1237 30.4642 91.5022 30.419 91.8897 30.6263C92.1138 30.7463 92.1424 30.9102 92.1424 32.0729V33.3841L92.4849 33.3426C92.8168 33.3026 92.8281 33.2718 92.8567 32.325C92.892 31.1567 92.7696 30.5374 92.4379 30.2057C92.1026 29.8701 91.378 29.7801 90.9358 30.0189ZM94.6878 30.0184C94.1505 30.2546 93.912 30.7871 94.1346 31.2532C94.2574 31.5108 94.5057 31.6713 95.0841 31.8671C95.5148 32.0129 95.8613 32.2041 95.8541 32.292C95.8253 32.6438 95.789 32.688 95.4612 32.7702C95.2432 32.825 95.0059 32.7806 94.8019 32.6468C94.498 32.4478 93.9721 32.4825 93.9721 32.7016C93.9721 32.7575 94.0751 32.8965 94.2011 33.0105C95.0869 33.8124 96.586 33.3733 96.586 32.3121C96.586 31.8599 96.2545 31.5795 95.4314 31.335C94.919 31.1828 94.7563 31.0733 94.7563 30.8805C94.7563 30.5196 95.3452 30.3921 95.6671 30.6834C95.8236 30.8251 96.0127 30.8753 96.1845 30.8208C96.5302 30.711 96.5255 30.6011 96.1612 30.2664C95.7689 29.9061 95.1718 29.8056 94.6878 30.0184ZM100.93 30.0982C99.7346 30.8273 99.6929 32.4352 100.85 33.1933C101.29 33.4817 102.13 33.4755 102.455 33.1816C102.669 32.9877 102.705 32.9859 102.774 33.165C102.816 33.2759 102.97 33.3667 103.117 33.3667C103.37 33.3667 103.382 33.2882 103.382 31.6674V29.9682H103.055C102.876 29.9682 102.728 30.024 102.728 30.0922C102.728 30.1604 102.524 30.131 102.275 30.0269C101.674 29.7758 101.439 29.7882 100.93 30.0982ZM114.761 30.0665C113.513 30.7033 113.393 32.325 114.533 33.1613C114.993 33.4983 115.86 33.5034 116.365 33.172C117.459 32.4555 117.311 30.5211 116.126 30.0257C115.542 29.7816 115.306 29.7886 114.761 30.0665ZM123.517 30.0538C123.292 30.2126 123.183 30.2331 123.146 30.1235C123.118 30.0381 122.953 29.9682 122.779 29.9682H122.463V31.6674V33.3667H122.774C123.074 33.3667 123.086 33.3268 123.142 32.1718C123.192 31.121 123.235 30.9478 123.499 30.734C123.664 30.6004 123.973 30.491 124.186 30.491C124.512 30.491 124.566 30.445 124.531 30.1969C124.477 29.8189 123.954 29.745 123.517 30.0538ZM133.933 30.0189C133.727 30.1302 133.544 30.1603 133.501 30.09C133.46 30.0229 133.312 29.9682 133.172 29.9682C132.934 29.9682 132.918 30.0725 132.918 31.6674V33.3667H133.245C133.569 33.3667 133.572 33.3579 133.572 32.1903C133.572 31.1881 133.61 30.9752 133.833 30.7524C134.121 30.4642 134.5 30.419 134.887 30.6263C135.111 30.7462 135.14 30.9102 135.14 32.0641V33.3667H135.514H135.889L135.905 32.419C135.926 31.2808 135.768 30.5381 135.436 30.2057C135.1 29.8701 134.376 29.7801 133.933 30.0189ZM137.933 30.0882C137.329 30.4564 137.1 30.8591 137.1 31.5558C137.1 32.7229 138.202 33.489 139.251 33.051C139.528 32.9352 139.778 32.8642 139.807 32.8933C139.837 32.9225 139.774 33.152 139.669 33.4035C139.366 34.1305 138.681 34.2659 137.576 33.818C137.366 33.733 137.345 33.7631 137.425 34.0332C137.57 34.5197 137.871 34.6738 138.676 34.6738C139.239 34.6738 139.505 34.6054 139.778 34.3904C140.366 33.9273 140.498 33.4174 140.498 31.6062V29.9682H140.183C140.009 29.9682 139.846 30.0305 139.821 30.1067C139.791 30.1961 139.636 30.1733 139.385 30.0422C138.866 29.7717 138.429 29.7856 137.933 30.0882ZM142.625 30.0313C141.771 30.4024 141.394 31.7396 141.901 32.5977C142.386 33.4203 143.472 33.6523 144.464 33.1454C144.818 32.9642 144.825 32.9444 144.61 32.7079C144.409 32.4853 144.358 32.4795 144.112 32.6519C143.727 32.9218 143.207 32.8905 142.803 32.5729C142.15 32.0593 142.333 31.9288 143.706 31.9288H144.954L144.867 31.4387C144.74 30.7286 144.342 30.1429 143.873 29.9797C143.351 29.7975 143.143 29.806 142.625 30.0313ZM147.101 30.0422C146.85 30.1733 146.695 30.1961 146.665 30.1067C146.64 30.0305 146.507 29.9682 146.369 29.9682C146.135 29.9682 146.118 30.0799 146.118 31.6674V33.3667H146.445C146.769 33.3667 146.772 33.3572 146.772 32.1998C146.772 31.0948 146.79 31.0184 147.116 30.762C147.305 30.613 147.593 30.491 147.756 30.491C148.052 30.491 148.274 30.1789 148.137 29.9564C148.025 29.7751 147.535 29.8156 147.101 30.0422ZM155.041 30.031C154.79 30.1402 154.589 30.1646 154.543 30.0913C154.501 30.0236 154.353 29.9682 154.213 29.9682C153.972 29.9682 153.96 30.0798 153.96 32.3863V34.8045H154.286C154.601 34.8045 154.613 34.774 154.613 33.9549C154.613 33.108 154.686 32.9685 154.975 33.2578C155.204 33.4869 156.207 33.4418 156.599 33.1847C157.655 32.4926 157.556 30.642 156.432 30.0665C155.899 29.7937 155.604 29.7862 155.041 30.031ZM158.969 30.028C158.286 30.325 158.057 31.0396 158.512 31.4516C158.644 31.5708 159.031 31.7635 159.372 31.8797C160.077 32.1199 160.263 32.4027 159.895 32.6725C159.633 32.8645 159.059 32.7978 158.911 32.5581C158.815 32.402 158.273 32.5411 158.273 32.7219C158.273 32.9684 158.806 33.3671 159.155 33.3817C160.039 33.4187 160.553 33.181 160.758 32.6404C160.969 32.0873 160.678 31.7009 159.816 31.3863C158.957 31.0732 158.833 30.957 159.061 30.6813C159.267 30.4342 159.764 30.4373 159.972 30.6871C160.158 30.9116 160.229 30.9229 160.475 30.7671C160.744 30.5965 160.452 30.1552 159.955 29.9819C159.452 29.8067 159.481 29.8054 158.969 30.028ZM83.3861 31.6674V33.3667H83.7128H84.0395V31.6674V29.9682H83.7128H83.3861V31.6674ZM109.612 30.4583C109.724 30.728 110.044 31.401 110.322 31.9542L110.827 32.96L110.439 33.8251L110.051 34.6901L110.445 34.6492C110.819 34.6105 110.893 34.4927 111.881 32.3631C112.454 31.1281 112.922 30.0841 112.922 30.0429C112.922 30.0019 112.759 29.9682 112.559 29.9682C112.231 29.9682 112.147 30.0733 111.699 31.0465L111.203 32.1249L110.661 31.0465C110.182 30.0918 110.079 29.9682 109.764 29.9682H109.407L109.612 30.4583ZM118.171 31.338C118.212 32.607 118.24 32.7326 118.553 33.0451C118.926 33.4172 119.719 33.5155 120.214 33.2507C120.393 33.1545 120.515 33.1494 120.568 33.2355C120.612 33.3077 120.763 33.3667 120.902 33.3667C121.141 33.3667 121.156 33.2624 121.156 31.6674V29.9682H120.829C120.506 29.9682 120.503 29.9809 120.503 31.0851C120.503 32.0968 120.472 32.2323 120.182 32.5229C119.793 32.9119 119.415 32.932 119.065 32.5824C118.842 32.3597 118.804 32.1467 118.804 31.1446V29.9682H118.465H118.126L118.171 31.338ZM130.958 31.6674V33.3667H131.354H131.751L131.734 31.6674L131.717 29.9682H131.338H130.958V31.6674ZM151.999 31.6674V33.3667H152.391H152.784V31.6674V29.9682H152.391H151.999V31.6674ZM77.7551 30.8332C77.903 31.0213 77.992 31.2272 77.9528 31.2907C77.8504 31.4566 76.198 31.4364 76.198 31.2694C76.198 31.0095 76.8408 30.491 77.1628 30.491C77.3557 30.491 77.5945 30.6289 77.7551 30.8332ZM87.5754 30.7596C87.9697 31.154 87.8845 32.0094 87.4162 32.3576C86.7977 32.8177 85.8692 32.3214 85.8692 31.5308C85.8692 30.6694 86.9822 30.1663 87.5754 30.7596ZM102.343 30.8251C102.803 31.315 102.78 32.1122 102.294 32.5309C102.093 32.703 101.819 32.8438 101.683 32.8438C101.547 32.8438 101.272 32.703 101.072 32.5309C100.782 32.2808 100.709 32.1075 100.709 31.6674C100.709 31.2273 100.782 31.054 101.072 30.8039C101.541 30.4004 101.951 30.4074 102.343 30.8251ZM115.857 30.5722C116.111 30.6696 116.451 31.2899 116.451 31.6547C116.451 32.0829 116.183 32.5437 115.843 32.6987C115.371 32.9135 115.167 32.8788 114.812 32.5229C113.976 31.687 114.792 30.1634 115.857 30.5722ZM139.46 30.7596C139.854 31.154 139.769 32.0094 139.301 32.3576C138.682 32.8177 137.754 32.3214 137.754 31.5308C137.754 30.6694 138.867 30.1663 139.46 30.7596ZM143.887 30.8081C144.051 30.9825 144.146 31.1884 144.099 31.2656C144.051 31.3429 143.662 31.406 143.235 31.406C142.553 31.406 142.459 31.375 142.459 31.152C142.459 30.8516 142.926 30.491 143.315 30.491C143.466 30.491 143.724 30.6338 143.887 30.8081ZM156.27 30.8048C156.571 31.0633 156.633 31.2178 156.62 31.6801C156.595 32.6487 155.684 33.1584 154.987 32.5939C154.735 32.3896 154.679 32.2208 154.679 31.6674C154.679 31.114 154.735 30.9452 154.987 30.7409C155.402 30.4049 155.83 30.4263 156.27 30.8048ZM98.1353 32.5542C97.8319 32.5919 97.7791 32.6719 97.7031 33.2106C97.6556 33.5481 97.5865 33.927 97.55 34.0529C97.4994 34.2261 97.56 34.2816 97.7993 34.2816C98.0779 34.2816 98.1429 34.1801 98.3469 33.4263C98.4743 32.9558 98.5565 32.5576 98.5298 32.5411C98.503 32.5248 98.3255 32.5306 98.1353 32.5542Z" fill="#315399"/>
<path fill-rule="evenodd" clip-rule="evenodd" d="M18.2927 0.0743463C13.3006 0.404491 9.37419 1.57326 6.22187 3.66737C4.99242 4.48407 3.63749 5.82979 2.85998 7.00645C1.10643 9.66003 0.230674 12.7867 0.0368816 17.0857C-0.292046 24.382 1.58094 29.5405 5.58527 32.3671C8.58507 34.4848 12.6228 35.6509 17.5959 35.8361C18.3437 35.8639 18.9727 35.9145 18.9937 35.9485C19.0479 36.0361 35.0573 36.0258 36.2621 35.9374C41.1861 35.5759 44.6158 34.6069 47.8321 32.6688C52.0543 30.1245 54.2281 25.6543 54.5163 18.9237C54.8034 12.2167 53.2586 7.32359 49.9337 4.40912C46.9872 1.8264 42.5415 0.387178 36.8283 0.166545C36.1151 0.139002 35.5317 0.0886659 35.5317 0.0546943C35.5317 -0.0242805 19.5085 -0.00608959 18.2927 0.0743463ZM20.8676 1.08597L22.1642 1.08882V18.0495V35.0103L20.685 34.9646C15.8525 34.8151 13.7953 33.8056 12.3202 30.8596C11.5234 29.2681 10.9585 26.8749 10.682 23.9192C10.6148 23.2006 10.5865 21.5166 10.5869 18.2572C10.5876 13.2364 10.6318 12.4102 11.0293 9.9874C11.7375 5.67147 13.2232 3.14296 15.8091 1.8527C16.4162 1.54988 17.66 1.18613 18.5119 1.06244C18.6123 1.04791 18.8917 1.04659 19.1328 1.05952C19.3738 1.07245 20.1545 1.08436 20.8676 1.08597ZM35.7613 1.16575C36.6831 1.25948 37.4142 1.40223 38.2338 1.64851C40.0853 2.20476 41.2317 3.19674 42.1766 5.05984C43.1382 6.95604 43.693 9.50142 43.9306 13.1067C44.026 14.5553 44.0253 20.8332 43.9295 22.3132C43.5945 27.4861 42.588 30.7952 40.766 32.7135C40.0065 33.513 38.723 34.2835 37.5926 34.6182C36.5703 34.9211 35.9495 34.9871 34.1255 34.9873L32.3907 34.9873V18.0381V1.08882H33.6978C34.4167 1.08882 35.3453 1.12345 35.7613 1.16575Z" fill="#315399"/>
</svg>
