<svg width="24" height="27" viewBox="0 0 24 27" fill="none" xmlns="http://www.w3.org/2000/svg">
<path d="M20 11.8307C20 18.3307 12 24.8307 12 24.8307C12 24.8307 4 18.3307 4 11.8307C4 9.53219 4.84285 7.32779 6.34315 5.70247C7.84344 4.07716 9.87827 3.16406 12 3.16406C14.1217 3.16406 16.1566 4.07716 17.6569 5.70247C19.1571 7.32779 20 9.53219 20 11.8307V11.8307Z" stroke="#315399" stroke-width="2" stroke-linecap="round" stroke-linejoin="round"/>
<path d="M12 15.082C13.6569 15.082 15 13.627 15 11.832C15 10.0371 13.6569 8.58203 12 8.58203C10.3431 8.58203 9 10.0371 9 11.832C9 13.627 10.3431 15.082 12 15.082Z" stroke="#315399" stroke-width="2" stroke-linecap="round" stroke-linejoin="round"/>
</svg>
