<svg width="57" height="57" viewBox="0 0 57 57" fill="none" xmlns="http://www.w3.org/2000/svg">
<rect x="0.463867" y="0.219727" width="56" height="56" rx="8" fill="#FDF0F0"/>
<path d="M34.7139 36.9697H37.2139V30.7197H25.9639V19.4697H19.7139V21.9697H22.2139V24.4697H19.7139V26.9697H23.4639V29.4697H19.7139V31.9697H22.2139V34.4697H19.7139V36.9697H22.2139V34.4697H24.7139V36.9697H27.2139V33.2197H29.7139V36.9697H32.2139V34.4697H34.7139V36.9697ZM28.4639 28.2197H38.4639C38.7954 28.2197 39.1133 28.3514 39.3478 28.5858C39.5822 28.8203 39.7139 29.1382 39.7139 29.4697V38.2197C39.7139 38.5512 39.5822 38.8692 39.3478 39.1036C39.1133 39.338 38.7954 39.4697 38.4639 39.4697H18.4639C18.1323 39.4697 17.8144 39.338 17.58 39.1036C17.3456 38.8692 17.2139 38.5512 17.2139 38.2197V18.2197C17.2139 17.8882 17.3456 17.5703 17.58 17.3358C17.8144 17.1014 18.1323 16.9697 18.4639 16.9697H27.2139C27.5454 16.9697 27.8633 17.1014 28.0978 17.3358C28.3322 17.5703 28.4639 17.8882 28.4639 18.2197V28.2197Z" fill="#EC6B6C"/>
</svg>
