<svg width="311" height="149" viewBox="0 0 311 149" fill="none" xmlns="http://www.w3.org/2000/svg">
<path d="M0 0H311V140C311 140 216.725 148.5 155.998 148.5C95.2719 148.5 0 140 0 140V0Z" fill="url(#paint0_linear_1399_306)"/>
<g opacity="0.1">
<mask id="mask0_1399_306" style="mask-type:alpha" maskUnits="userSpaceOnUse" x="0" y="0" width="311" height="148">
<path d="M0 0H311V139.529C311 139.529 216.725 148 155.998 148C95.2719 148 0 139.529 0 139.529V0Z" fill="url(#paint1_linear_1399_306)"/>
</mask>
<g mask="url(#mask0_1399_306)">
<path d="M397.731 18.442C397.731 72.1111 354.216 115.618 300.538 115.618C246.861 115.618 203.346 72.1111 203.346 18.442C203.346 -35.227 246.861 -78.7344 300.538 -78.7344C354.216 -78.7344 397.731 -35.227 397.731 18.442ZM238.961 18.442C238.961 52.4446 266.53 80.0091 300.538 80.0091C334.546 80.0091 362.115 52.4446 362.115 18.442C362.115 -15.5605 334.546 -43.125 300.538 -43.125C266.53 -43.125 238.961 -15.5605 238.961 18.442Z" fill="url(#paint2_linear_1399_306)"/>
<path d="M65.6918 145.958C65.6918 185.837 33.3582 218.165 -6.52739 218.165C-46.4129 218.165 -78.7466 185.837 -78.7466 145.958C-78.7466 106.079 -46.4129 73.7505 -6.52739 73.7505C33.3582 73.7505 65.6918 106.079 65.6918 145.958ZM-52.2826 145.958C-52.2826 171.224 -31.7973 191.706 -6.52739 191.706C18.7425 191.706 39.2278 171.224 39.2278 145.958C39.2278 120.692 18.7425 100.21 -6.52739 100.21C-31.7973 100.21 -52.2826 120.692 -52.2826 145.958Z" fill="url(#paint3_linear_1399_306)"/>
<path d="M94.696 27.9055C94.696 30.6577 92.4645 32.8887 89.7118 32.8887C86.9591 32.8887 84.7275 30.6577 84.7275 27.9055C84.7275 25.1534 86.9591 22.9224 89.7118 22.9224C92.4645 22.9224 94.696 25.1534 94.696 27.9055ZM86.9519 27.9055C86.9519 29.4294 88.1876 30.6648 89.7118 30.6648C91.236 30.6648 92.4716 29.4294 92.4716 27.9055C92.4716 26.3816 91.236 25.1463 89.7118 25.1463C88.1876 25.1463 86.9519 26.3816 86.9519 27.9055Z" fill="white"/>
<path d="M185.404 99.6628C185.404 101.865 183.619 103.649 181.417 103.649C179.215 103.649 177.43 101.865 177.43 99.6628C177.43 97.4611 179.215 95.6763 181.417 95.6763C183.619 95.6763 185.404 97.4611 185.404 99.6628ZM179.209 99.6628C179.209 100.882 180.198 101.87 181.417 101.87C182.636 101.87 183.625 100.882 183.625 99.6628C183.625 98.4437 182.636 97.4554 181.417 97.4554C180.198 97.4554 179.209 98.4437 179.209 99.6628Z" fill="white"/>
<path d="M287.078 34.8816C287.078 37.6337 284.846 39.8648 282.094 39.8648C279.341 39.8648 277.109 37.6337 277.109 34.8816C277.109 32.1295 279.341 29.8984 282.094 29.8984C284.846 29.8984 287.078 32.1295 287.078 34.8816ZM279.334 34.8816C279.334 36.4055 280.569 37.6408 282.094 37.6408C283.618 37.6408 284.853 36.4055 284.853 34.8816C284.853 33.3577 283.618 32.1224 282.094 32.1224C280.569 32.1224 279.334 33.3577 279.334 34.8816Z" fill="white"/>
</g>
</g>
<defs>
<linearGradient id="paint0_linear_1399_306" x1="155.5" y1="0" x2="155.5" y2="148.5" gradientUnits="userSpaceOnUse">
<stop stop-color="#315399"/>
<stop offset="1" stop-color="#1F4289"/>
</linearGradient>
<linearGradient id="paint1_linear_1399_306" x1="155.5" y1="0" x2="155.5" y2="148" gradientUnits="userSpaceOnUse">
<stop stop-color="#315399"/>
<stop offset="1" stop-color="#1F4289"/>
</linearGradient>
<linearGradient id="paint2_linear_1399_306" x1="198.362" y1="-69.2664" x2="332.401" y2="135.063" gradientUnits="userSpaceOnUse">
<stop stop-color="white"/>
<stop offset="1" stop-color="#C4C4C4" stop-opacity="0"/>
</linearGradient>
<linearGradient id="paint3_linear_1399_306" x1="-82.45" y1="80.7857" x2="17.1481" y2="232.614" gradientUnits="userSpaceOnUse">
<stop stop-color="white"/>
<stop offset="1" stop-color="#C4C4C4" stop-opacity="0"/>
</linearGradient>
</defs>
</svg>
