<svg xmlns="http://www.w3.org/2000/svg" viewBox="0 0 610 495" width="610" height="495" preserveAspectRatio="xMidYMid meet" style="width: 100%; height: 100%; transform: translate3d(0px, 0px, 0px);"><defs><clipPath id="__lottie_element_2"><rect width="610" height="495" x="0" y="0"></rect></clipPath><filter id="__lottie_element_7" filterUnits="objectBoundingBox" x="0%" y="0%" width="100%" height="100%"><feComponentTransfer in="SourceGraphic"><feFuncA type="table" tableValues="1.0 0.0"></feFuncA></feComponentTransfer></filter><mask id="__lottie_element_6" mask-type="alpha"><g filter="url(#__lottie_element_7)"><rect width="610" height="495" x="0" y="0" fill="#ffffff" opacity="0"></rect><g transform="matrix(1,0,0,1,69.75,394.426025390625)" opacity="1" style="display: block;"><g opacity="1" transform="matrix(1,0,0,1,236.75,48.66600036621094)"><path fill="rgb(255,255,255)" fill-opacity="1" d=" M236.5,48.41600036621094 C236.5,48.41600036621094 -236.5,48.41600036621094 -236.5,48.41600036621094 C-236.5,48.41600036621094 -236.5,-48.41600036621094 -236.5,-48.41600036621094 C-236.5,-48.41600036621094 236.5,-48.41600036621094 236.5,-48.41600036621094 C236.5,-48.41600036621094 236.5,48.41600036621094 236.5,48.41600036621094z"></path></g></g></g></mask></defs><g clip-path="url(#__lottie_element_2)"><g transform="matrix(1,0,0,1,483.85797119140625,85)" opacity="1" style="display: block;"><g opacity="1" transform="matrix(1,0,0,1,48.3380012512207,13.381999969482422)"><path fill="rgb(239,243,247)" fill-opacity="1" d=" M-29.0939998626709,4.318999767303467 C-29.0939998626709,4.318999767303467 -19.979999542236328,-14.312000274658203 -1.2890000343322754,-13.345999717712402 C17.400999069213867,-12.378999710083008 23.52400016784668,4.318999767303467 23.52400016784668,4.318999767303467 C23.52400016784668,4.318999767303467 38.34700012207031,-0.1720000058412552 48.3380012512207,13.381999969482422 C48.3380012512207,13.381999969482422 -48.3380012512207,13.381999969482422 -48.3380012512207,13.381999969482422 C-48.3380012512207,13.381999969482422 -42.39899826049805,3.2929999828338623 -29.0939998626709,4.318999767303467z"></path></g></g><g transform="matrix(2.4800000190734863,0,0,2.4800000190734863,51.31775665283203,87.19464111328125)" opacity="1" style="display: block;"><g opacity="1" transform="matrix(1,0,0,1,48.3380012512207,13.381999969482422)"><path fill="rgb(239,243,247)" fill-opacity="1" d=" M-29.0939998626709,4.318999767303467 C-29.0939998626709,4.318999767303467 -19.979999542236328,-14.312000274658203 -1.2890000343322754,-13.345999717712402 C17.400999069213867,-12.378999710083008 23.52400016784668,4.318999767303467 23.52400016784668,4.318999767303467 C23.52400016784668,4.318999767303467 38.34700012207031,-0.1720000058412552 48.3380012512207,13.381999969482422 C48.3380012512207,13.381999969482422 -48.3380012512207,13.381999969482422 -48.3380012512207,13.381999969482422 C-48.3380012512207,13.381999969482422 -42.39899826049805,3.2929999828338623 -29.0939998626709,4.318999767303467z"></path></g></g><g transform="matrix(1.7300000190734863,0,0,1.7300000190734863,357.5712890625,151.23114013671875)" opacity="1" style="display: block;"><g opacity="1" transform="matrix(1,0,0,1,48.3380012512207,13.381999969482422)"><path fill="rgb(239,243,247)" fill-opacity="1" d=" M-29.0939998626709,4.318999767303467 C-29.0939998626709,4.318999767303467 -19.979999542236328,-14.312000274658203 -1.2890000343322754,-13.345999717712402 C17.400999069213867,-12.378999710083008 23.52400016784668,4.318999767303467 23.52400016784668,4.318999767303467 C23.52400016784668,4.318999767303467 38.34700012207031,-0.1720000058412552 48.3380012512207,13.381999969482422 C48.3380012512207,13.381999969482422 -48.3380012512207,13.381999969482422 -48.3380012512207,13.381999969482422 C-48.3380012512207,13.381999969482422 -42.39899826049805,3.2929999828338623 -29.0939998626709,4.318999767303467z"></path></g></g><g transform="matrix(1,0,0,1,92.86399841308594,172.0889892578125)" opacity="1" style="display: block;"><g opacity="1" transform="matrix(1,0,0,1,74.927001953125,140.4949951171875)"><path fill="rgb(21,96,189)" fill-opacity="1" d=" M20.148000717163086,53.268001556396484 C20.148000717163086,53.268001556396484 3.2929999828338623,51.02899932861328 3.2929999828338623,51.02899932861328 C3.2929999828338623,51.02899932861328 2.994999885559082,-28.791000366210938 2.994999885559082,-28.791000366210938 C2.994999885559082,-28.791000366210938 -10.232000350952148,-47.74599838256836 -27.57200050354004,-53.268001556396484 C-27.57200050354004,-53.268001556396484 -10.413999557495117,-52.845001220703125 -10.413999557495117,-52.845001220703125 C-10.413999557495117,-52.845001220703125 27.57200050354004,-46.74800109863281 27.57200050354004,-46.74800109863281 C27.57200050354004,-46.74800109863281 20.148000717163086,53.268001556396484 20.148000717163086,53.268001556396484z"></path></g><g opacity="1" transform="matrix(1,0,0,1,34.803001403808594,153.6269989013672)"><path fill="rgb(239,243,247)" fill-opacity="1" d=" M-0.5270000100135803,-11.795000076293945 C-0.5270000100135803,-11.795000076293945 -11.96500015258789,0.949999988079071 -9.312000274658203,13.550999641418457 C-9.312000274658203,13.550999641418457 11.96500015258789,-10.13599967956543 11.96500015258789,-10.13599967956543 C11.96500015258789,-10.13599967956543 10.064000129699707,-13.550999641418457 10.064000129699707,-13.550999641418457 C10.064000129699707,-13.550999641418457 -0.5270000100135803,-11.795000076293945 -0.5270000100135803,-11.795000076293945z"></path></g><g opacity="1" transform="matrix(1,0,0,1,82.04199981689453,197.7969970703125)"><path fill="rgb(239,243,247)" fill-opacity="1" d=" M-3.821000099182129,-6.2729997634887695 C-3.821000099182129,-6.2729997634887695 -4.876999855041504,-2.7290000915527344 -4.876999855041504,-2.7290000915527344 C-4.876999855041504,-2.7290000915527344 -10.048999786376953,-2.693000078201294 -11.295000076293945,4.519999980926514 C-11.295000076293945,4.519999980926514 1.9110000133514404,6.2729997634887695 1.9110000133514404,6.2729997634887695 C1.9110000133514404,6.2729997634887695 10.017000198364258,0.22200000286102295 10.017000198364258,0.22200000286102295 C10.017000198364258,0.22200000286102295 11.295000076293945,-4.264999866485596 11.295000076293945,-4.264999866485596 C11.295000076293945,-4.264999866485596 -3.821000099182129,-6.2729997634887695 -3.821000099182129,-6.2729997634887695z"></path></g><g opacity="1" transform="matrix(1,0,0,1,52.45899963378906,114.84400177001953)"><path fill="rgb(0,104,250)" fill-opacity="1" d=" M15.788999557495117,-4.480999946594238 C15.788999557495117,-4.480999946594238 -5.230000019073486,-8.072999954223633 -5.230000019073486,-8.072999954223633 C-5.230000019073486,-8.072999954223633 -6.0920000076293945,24.73200035095215 -6.0920000076293945,24.73200035095215 C-6.0920000076293945,24.73200035095215 -21.09000015258789,27.959999084472656 -21.09000015258789,27.959999084472656 C-21.09000015258789,27.959999084472656 -24.038000106811523,-13.083999633789062 -24.038000106811523,-13.083999633789062 C-25.461999893188477,-20.847000122070312 -19.384000778198242,-27.959999084472656 -11.494999885559082,-27.77199935913086 C-11.494999885559082,-27.77199935913086 -5.111000061035156,-27.618000030517578 -5.111000061035156,-27.618000030517578 C-5.111000061035156,-27.618000030517578 -5.104000091552734,-27.617000579833984 -5.104000091552734,-27.617000579833984 C12.236000061035156,-22.0939998626709 25.461999893188477,-3.1389999389648438 25.461999893188477,-3.1389999389648438 C25.461999893188477,-3.1389999389648438 15.788999557495117,-4.480999946594238 15.788999557495117,-4.480999946594238z"></path></g><g opacity="1" transform="matrix(1,0,0,1,22.736000061035156,8.190999984741211)"><path fill="rgb(253,192,41)" fill-opacity="1" d=" M18.604000091552734,6.71999979019165 C18.604000091552734,6.71999979019165 18.479000091552734,7.659999847412109 18.479000091552734,7.659999847412109 C18.479000091552734,7.659999847412109 17.312999725341797,7.656000137329102 17.312999725341797,7.656000137329102 C17.10300064086914,6.982999801635742 16.85700035095215,6.435999870300293 16.579999923706055,6.11899995803833 C15.22599983215332,4.5980000495910645 14.302000045776367,3.4210000038146973 13.12399959564209,3.9089999198913574 C12.234999656677246,4.28000020980835 11.99899959564209,6.546000003814697 11.934000015258789,7.625 C11.934000015258789,7.625 8.765999794006348,7.607999801635742 8.765999794006348,7.607999801635742 C8.765999794006348,7.607999801635742 -19.29599952697754,7.442999839782715 -19.29599952697754,7.442999839782715 C-19.29599952697754,7.442999839782715 -19.30299949645996,7.389999866485596 -19.30299949645996,7.389999866485596 C-17.454999923706055,7.204999923706055 -15.642000198364258,4.177999973297119 -15.12399959564209,0.2759999930858612 C-14.612000465393066,-3.575000047683716 -15.541000366210938,-6.927999973297119 -17.226999282836914,-7.659999847412109 C-17.226999282836914,-7.659999847412109 19.30299949645996,1.4490000009536743 19.30299949645996,1.4490000009536743 C19.30299949645996,1.4490000009536743 19.20400047302246,2.197000026702881 19.20400047302246,2.197000026702881 C19.20400047302246,2.197000026702881 18.604000091552734,6.71999979019165 18.604000091552734,6.71999979019165z"></path></g><g opacity="1" transform="matrix(1,0,0,1,4.059000015258789,7.922999858856201)"><path fill="rgb(214,39,85)" fill-opacity="1" d=" M3.624000072479248,-0.07800000160932541 C3.809000015258789,-2.006999969482422 3.625999927520752,-3.7690000534057617 3.171999931335449,-5.105000019073486 C2.7839999198913574,-6.250999927520752 2.188999891281128,-7.072000026702881 1.4509999752044678,-7.390999794006348 C1.4509999752044678,-7.390999794006348 0.8830000162124634,-7.5320000648498535 0.8830000162124634,-7.5320000648498535 C-0.9150000214576721,-7.672999858856201 -2.746999979019165,-4.999000072479248 -3.447999954223633,-1.343000054359436 C-3.5139999389648438,-1.0390000343322754 -3.562000036239624,-0.7260000109672546 -3.6050000190734863,-0.40700000524520874 C-3.809000015258789,1.1349999904632568 -3.7820000648498535,2.5969998836517334 -3.569999933242798,3.8429999351501465 C-3.2039999961853027,5.98799991607666 -2.2829999923706055,7.489999771118164 -1.0360000133514404,7.656000137329102 C-0.9010000228881836,7.672999858856201 -0.7580000162124634,7.672999858856201 -0.6259999871253967,7.6579999923706055 C1.222000002861023,7.473999977111816 3.0360000133514404,4.446000099182129 3.553999900817871,0.5440000295639038 C3.5820000171661377,0.3330000042915344 3.6029999256134033,0.12800000607967377 3.624000072479248,-0.07800000160932541z"></path></g><g opacity="1" transform="matrix(1,0,0,1,69.06900024414062,16.160999298095703)"><path fill="rgb(17,16,34)" fill-opacity="1" d=" M-5.372000217437744,-2.134999990463257 C-5.372000217437744,-2.134999990463257 5.784999847412109,-0.6539999842643738 5.784999847412109,-0.6539999842643738 C4.559000015258789,-0.3409999907016754 3.496000051498413,0.057999998331069946 2.992000102996826,0.42100000381469727 C2.5969998836517334,0.699999988079071 2.6710000038146973,1.315999984741211 3.005000114440918,2.134999990463257 C3.005000114440918,2.134999990463257 -5.784999847412109,0.9679999947547913 -5.784999847412109,0.9679999947547913 C-5.784999847412109,0.9679999947547913 -5.372000217437744,-2.134999990463257 -5.372000217437744,-2.134999990463257z"></path></g><g opacity="1" transform="matrix(1,0,0,1,84.81800079345703,18.381999969482422)"><path fill="rgb(17,16,34)" fill-opacity="1" d=" M3.3570001125335693,0.7960000038146973 C3.3570001125335693,0.7960000038146973 3.193000078201294,2.0299999713897705 3.193000078201294,2.0299999713897705 C3.193000078201294,2.0299999713897705 -2.8529999256134033,1.2280000448226929 -2.8529999256134033,1.2280000448226929 C-3.256999969482422,-0.19300000369548798 -3.5420000553131104,-1.3830000162124634 -3.6050000190734863,-2.0299999713897705 C-3.6050000190734863,-2.0299999713897705 3.6050000190734863,-1.0720000267028809 3.6050000190734863,-1.0720000267028809 C3.6050000190734863,-1.0720000267028809 3.3570001125335693,0.7960000038146973 3.3570001125335693,0.7960000038146973z"></path></g><g opacity="1" transform="matrix(1,0,0,1,52.56700134277344,14.10099983215332)"><path fill="rgb(214,39,85)" fill-opacity="1" d=" M10.718000411987305,3.0269999504089355 C10.718000411987305,3.0269999504089355 10.626999855041504,3.7130000591278076 10.626999855041504,3.7130000591278076 C10.626999855041504,3.7130000591278076 -11.227999687194824,0.8109999895095825 -11.227999687194824,0.8109999895095825 C-11.227999687194824,0.8109999895095825 -10.626999855041504,-3.7130000591278076 -10.626999855041504,-3.7130000591278076 C-10.626999855041504,-3.7130000591278076 11.227999687194824,-0.8109999895095825 11.227999687194824,-0.8109999895095825 C11.227999687194824,-0.8109999895095825 11.130000114440918,-0.07599999755620956 11.130000114440918,-0.07599999755620956 C11.130000114440918,-0.07599999755620956 10.718000411987305,3.0269999504089355 10.718000411987305,3.0269999504089355z"></path></g><g opacity="1" transform="matrix(1,0,0,1,36.01499938964844,18.694000244140625)"><path fill="rgb(241,153,73)" fill-opacity="1" d=" M5.163000106811523,4.059999942779541 C5.163000106811523,4.059999942779541 -0.13500000536441803,7.081999778747559 -0.13500000536441803,7.081999778747559 C-0.13500000536441803,7.081999778747559 -5.1620001792907715,0.18299999833106995 -4.51200008392334,-2.8949999809265137 C-4.51200008392334,-2.8949999809265137 -1.343999981880188,-2.878000020980835 -1.343999981880188,-2.878000020980835 C-1.2790000438690186,-3.9570000171661377 -1.0429999828338623,-6.2220001220703125 -0.15399999916553497,-6.5920000076293945 C1.0240000486373901,-7.080999851226807 1.9470000267028809,-5.9039998054504395 3.3010001182556152,-4.382999897003174 C3.578000068664551,-4.065999984741211 3.825000047683716,-3.5190000534057617 4.034999847412109,-2.8459999561309814 C4.840000152587891,-0.2849999964237213 5.163000106811523,4.059999942779541 5.163000106811523,4.059999942779541z"></path></g><g opacity="1" transform="matrix(1,0,0,1,91.65799713134766,35.97999954223633)"><path fill="rgb(21,96,189)" fill-opacity="1" d=" M2.187999963760376,-1.3170000314712524 C2.187999963760376,-1.3170000314712524 1.694000005722046,2.3929998874664307 1.694000005722046,2.3929998874664307 C1.694000005722046,2.3929998874664307 -2.187999963760376,-2.3929998874664307 -2.187999963760376,-2.3929998874664307 C-2.187999963760376,-2.3929998874664307 2.187999963760376,-1.3170000314712524 2.187999963760376,-1.3170000314712524z"></path></g><g opacity="1" transform="matrix(1,0,0,1,99.38999938964844,46.055999755859375)"><path fill="rgb(64,143,255)" fill-opacity="1" d=" M-6.0370001792907715,-7.682000160217285 C-6.0370001792907715,-7.682000160217285 -2.125999927520752,-2.865999937057495 -2.125999927520752,-2.865999937057495 C-2.125999927520752,-2.865999937057495 1.6059999465942383,1.7309999465942383 1.6059999465942383,1.7309999465942383 C1.6059999465942383,1.7309999465942383 12.291000366210938,-3.815999984741211 16.091999053955078,-3.369999885559082 C16.361000061035156,-3.3410000801086426 16.614999771118164,-3.2880001068115234 16.858999252319336,-3.2160000801086426 C20.142000198364258,-2.2990000247955322 21.674999237060547,1.843999981880188 20.5939998626709,5.47599983215332 C19.43000030517578,9.390000343322754 18.957000732421875,13.833000183105469 15.01099967956543,14.038000106811523 C11.064000129699707,14.24899959564209 -6.448999881744385,16.110000610351562 -6.448999881744385,16.110000610351562 C-6.448999881744385,16.110000610351562 -21.674999237060547,-11.548999786376953 -21.674999237060547,-11.548999786376953 C-21.674999237060547,-11.548999786376953 -19.284000396728516,-12.786999702453613 -19.284000396728516,-12.786999702453613 C-19.284000396728516,-12.786999702453613 -13.956000328063965,-15.550000190734863 -13.956000328063965,-15.550000190734863 C-13.956000328063965,-15.550000190734863 -12.880000114440918,-16.110000610351562 -12.880000114440918,-16.110000610351562 C-12.880000114440918,-16.110000610351562 -11.005000114440918,-13.803999900817871 -11.005000114440918,-13.803999900817871 C-11.005000114440918,-13.803999900817871 -9.918999671936035,-12.468999862670898 -9.918999671936035,-12.468999862670898 C-9.918999671936035,-12.468999862670898 -6.0370001792907715,-7.682000160217285 -6.0370001792907715,-7.682000160217285z"></path></g><g opacity="1" transform="matrix(1,0,0,1,106.75599670410156,42.40800094604492)"><path fill="rgb(21,96,189)" fill-opacity="1" d=" M-1.024999976158142,-5.379000186920166 C-1.024999976158142,-5.379000186920166 9.493000030517578,0.4320000112056732 9.493000030517578,0.4320000112056732 C9.24899959564209,0.36000001430511475 8.996000289916992,0.3070000112056732 8.72599983215332,0.27799999713897705 C4.925000190734863,-0.16899999976158142 -5.761000156402588,5.379000186920166 -5.761000156402588,5.379000186920166 C-5.761000156402588,5.379000186920166 -9.493000030517578,0.7820000052452087 -9.493000030517578,0.7820000052452087 C-9.493000030517578,0.7820000052452087 -1.024999976158142,-5.379000186920166 -1.024999976158142,-5.379000186920166z"></path></g><g opacity="1" transform="matrix(1,0,0,1,73.98899841308594,58.30400085449219)"><path fill="rgb(64,143,255)" fill-opacity="1" d=" M40.4119987487793,1.7890000343322754 C40.4119987487793,1.7890000343322754 31.641000747680664,18.476999282836914 31.641000747680664,18.476999282836914 C31.641000747680664,18.476999282836914 28.509000778198242,35.44200134277344 28.509000778198242,35.44200134277344 C28.509000778198242,35.44200134277344 27.736000061035156,35.47700119018555 26.399999618530273,35.487998962402344 C20.142000198364258,35.54999923706055 1.4579999446868896,35.202999114990234 -9.47599983215332,29.3439998626709 C-9.47599983215332,29.3439998626709 -2.1740000247955322,8.720000267028809 -2.1740000247955322,8.720000267028809 C-2.1740000247955322,8.720000267028809 -2.0250000953674316,-8.291999816894531 -2.0250000953674316,-8.291999816894531 C-2.0250000953674316,-8.291999816894531 -27.405000686645508,-8.848999977111816 -27.405000686645508,-8.848999977111816 C-27.405000686645508,-8.848999977111816 -40.4119987487793,-31.214000701904297 -40.4119987487793,-31.214000701904297 C-40.4119987487793,-31.214000701904297 -38.108001708984375,-32.529998779296875 -38.108001708984375,-32.529998779296875 C-38.108001708984375,-32.529998779296875 -32.81100082397461,-35.54899978637695 -32.81100082397461,-35.54899978637695 C-32.81100082397461,-35.54899978637695 -19.899999618530273,-19.09000015258789 -19.899999618530273,-19.09000015258789 C-19.899999618530273,-19.09000015258789 4.664000034332275,-26.152000427246094 4.664000034332275,-26.152000427246094 C5.427999973297119,-25.433000564575195 6.117000102996826,-25.03499984741211 6.117000102996826,-25.03499984741211 C6.117000102996826,-25.03499984741211 3.7260000705718994,-23.797000885009766 3.7260000705718994,-23.797000885009766 C3.7260000705718994,-23.797000885009766 18.952999114990234,3.861999988555908 18.952999114990234,3.861999988555908 C18.952999114990234,3.861999988555908 36.46500015258789,2 40.4119987487793,1.7890000343322754z"></path></g><g opacity="1" transform="matrix(1,0,0,1,78.54900360107422,23.927000045776367)"><path fill="rgb(241,153,73)" fill-opacity="1" d=" M6.883999824523926,6.578000068664551 C6.883999824523926,6.578000068664551 1.555999994277954,9.340999603271484 1.555999994277954,9.340999603271484 C1.555999994277954,9.340999603271484 0.8669999837875366,8.944000244140625 0.10300000011920929,8.223999977111816 C-0.8930000066757202,7.290999889373779 -2.0190000534057617,5.820000171661377 -1.9359999895095825,3.9690001010894775 C-1.8209999799728394,1.4850000143051147 -5.435999870300293,-3.063999891281128 -6.474999904632568,-5.630000114440918 C-6.809000015258789,-6.449999809265137 -6.883999824523926,-7.065000057220459 -6.48799991607666,-7.343999862670898 C-5.984000205993652,-7.706999778747559 -4.921999931335449,-8.107000350952148 -3.696000099182129,-8.418999671936035 C-0.9819999933242798,-9.100000381469727 2.5460000038146973,-9.340999603271484 2.6480000019073486,-7.706999778747559 C2.6489999294281006,-7.668000221252441 2.6559998989105225,-7.622000217437744 2.6630001068115234,-7.576000213623047 C2.7269999980926514,-6.928999900817871 3.010999917984009,-5.738999843597412 3.4149999618530273,-4.317999839782715 C4.633999824523926,0.035999998450279236 6.883999824523926,6.578000068664551 6.883999824523926,6.578000068664551z"></path></g><g opacity="1" transform="matrix(1,0,0,1,96.05699920654297,55.643001556396484)"><path fill="rgb(21,96,189)" fill-opacity="1" d=" M9.571999549865723,21.136999130249023 C-18.04400062561035,11.336000442504883 -18.343000411987305,-21.13599967956543 -18.343000411987305,-21.13599967956543 C-18.343000411987305,-21.13599967956543 -3.118000030517578,6.540999889373779 -3.118000030517578,6.540999889373779 C-3.118000030517578,6.540999889373779 18.343000411987305,4.449999809265137 18.343000411987305,4.449999809265137 C18.343000411987305,4.449999809265137 9.571999549865723,21.136999130249023 9.571999549865723,21.136999130249023z"></path></g><g opacity="1" transform="matrix(1,0,0,1,98.5770034790039,30.124000549316406)"><path fill="rgb(241,153,73)" fill-opacity="1" d=" M8.821000099182129,-8.329999923706055 C9.444999694824219,-8.416999816894531 10.03600025177002,-8.213000297546387 10.152000427246094,-7.2220001220703125 C10.423999786376953,-4.953000068664551 7.611000061035156,-2.6440000534057617 7.611000061035156,-2.6440000534057617 C7.611000061035156,-2.6440000534057617 6.923999786376953,7.178999900817871 6.923999786376953,7.178999900817871 C6.923999786376953,7.178999900817871 -1.5440000295639038,13.34000015258789 -1.5440000295639038,13.34000015258789 C-1.5440000295639038,13.34000015258789 2.5179998874664307,5.313000202178955 2.5179998874664307,5.313000202178955 C2.5179998874664307,5.313000202178955 -4.9629998207092285,4.813000202178955 -4.9629998207092285,4.813000202178955 C-4.9629998207092285,4.813000202178955 -9.338000297546387,3.73799991607666 -9.338000297546387,3.73799991607666 C-9.338000297546387,3.73799991607666 -10.423999786376953,2.4030001163482666 -10.423999786376953,2.4030001163482666 C-10.423999786376953,2.4030001163482666 -10.21399974822998,-5.791999816894531 -9.585000038146973,-10.531999588012695 C-9.439000129699707,-11.62600040435791 -9.27299976348877,-12.53499984741211 -9.079000473022461,-13.114999771118164 C-9.079000473022461,-13.114999771118164 -9.010000228881836,-13.34000015258789 -9.010000228881836,-13.34000015258789 C-3.931999921798706,-11.77400016784668 3.5490000247955322,-12.843999862670898 3.5490000247955322,-12.843999862670898 C3.5490000247955322,-12.843999862670898 3.252000093460083,-2.871000051498413 4.611000061035156,-2.515000104904175 C5.96999979019165,-2.1649999618530273 7.131999969482422,-7.623000144958496 7.131999969482422,-7.623000144958496 C7.131999969482422,-7.623000144958496 8.01200008392334,-8.222999572753906 8.821000099182129,-8.329999923706055z"></path></g><g opacity="1" transform="matrix(1,0,0,1,95.43800354003906,17.148000717163086)"><path fill="rgb(51,51,51)" fill-opacity="1" d=" M13.008000373840332,-2.493000030517578 C13.008000373840332,-2.493000030517578 12.00100040435791,4.6519999504089355 12.00100040435791,4.6519999504089355 C11.192999839782715,4.758999824523926 10.312000274658203,5.359000205993652 10.312000274658203,5.359000205993652 C10.312000274658203,5.359000205993652 9.151000022888184,10.815999984741211 7.790999889373779,10.465999603271484 C6.432000160217285,10.109999656677246 6.728000164031982,0.13699999451637268 6.728000164031982,0.13699999451637268 C6.728000164031982,0.13699999451637268 -0.7509999871253967,1.2070000171661377 -5.828999996185303,-0.35899999737739563 C-5.828999996185303,-0.35899999737739563 -5.828000068664551,-0.36500000953674316 -5.828000068664551,-0.36500000953674316 C-7.423999786376953,-0.8500000238418579 -8.776000022888184,-1.6030000448226929 -9.59000015258789,-2.7269999980926514 C-13.008000373840332,-7.438000202178955 -11.3100004196167,-9.628000259399414 -5.788000106811523,-7.579999923706055 C-0.26600000262260437,-5.5320000648498535 12.446000099182129,-10.815999984741211 13.008000373840332,-2.493000030517578z"></path></g><g opacity="1" transform="matrix(1,0,0,1,97.33899688720703,38.92599868774414)"><path fill="rgb(234,141,78)" fill-opacity="1" d=" M3.9860000610351562,-3.765000104904175 C3.9860000610351562,-3.765000104904175 -0.07500000298023224,4.263000011444092 -0.07500000298023224,4.263000011444092 C-0.07500000298023224,4.263000011444092 -3.9860000610351562,-0.5529999732971191 -3.9860000610351562,-0.5529999732971191 C-3.9860000610351562,-0.5529999732971191 -3.493000030517578,-4.263000011444092 -3.493000030517578,-4.263000011444092 C-3.493000030517578,-4.263000011444092 3.9860000610351562,-3.765000104904175 3.9860000610351562,-3.765000104904175z"></path></g></g><g transform="matrix(1,0,0,1,505.05999755859375,260.75)" opacity="1" style="display: block;"><g opacity="1" transform="matrix(1,0,0,1,21.20599937438965,50.527000427246094)"><path fill="rgb(239,243,247)" fill-opacity="1" d=" M20.93000030517578,-49.70199966430664 C20.924999237060547,-49.66600036621094 20.915000915527344,-49.62900161743164 20.902000427246094,-49.59400177001953 C20.902000427246094,-49.59400177001953 20.040000915527344,-47.382999420166016 20.040000915527344,-47.382999420166016 C20.040000915527344,-47.382999420166016 20.040000915527344,-47.38199996948242 20.040000915527344,-47.38199996948242 C20.040000915527344,-47.38199996948242 19.667999267578125,-46.43000030517578 19.667999267578125,-46.43000030517578 C19.667999267578125,-46.43000030517578 19.667999267578125,-46.428001403808594 19.667999267578125,-46.428001403808594 C19.667999267578125,-46.428001403808594 15.305999755859375,-35.21699905395508 15.305999755859375,-35.21699905395508 C15.305999755859375,-35.21699905395508 15.079000473022461,-34.63199996948242 15.079000473022461,-34.63199996948242 C15.079000473022461,-34.63199996948242 14.954000473022461,-34.31100082397461 14.954000473022461,-34.31100082397461 C14.954000473022461,-34.31100082397461 14.710000038146973,-33.6870002746582 14.710000038146973,-33.6870002746582 C14.710000038146973,-33.6870002746582 -17.966999053955078,50.277000427246094 -17.966999053955078,50.277000427246094 C-17.966999053955078,50.277000427246094 -20.95599937438965,50.137001037597656 -20.95599937438965,50.137001037597656 C-20.95599937438965,50.137001037597656 13.58899974822998,-34.10900115966797 13.58899974822998,-34.10900115966797 C13.58899974822998,-34.10900115966797 13.59000015258789,-34.111000061035156 13.59000015258789,-34.111000061035156 C13.59000015258789,-34.111000061035156 13.87399959564209,-34.80500030517578 13.87399959564209,-34.80500030517578 C13.87399959564209,-34.80500030517578 18.820999145507812,-46.86800003051758 18.820999145507812,-46.86800003051758 C18.820999145507812,-46.86800003051758 19.187999725341797,-47.762001037597656 19.187999725341797,-47.762001037597656 C19.187999725341797,-47.762001037597656 20.086999893188477,-49.95600128173828 20.086999893188477,-49.95600128173828 C20.176000595092773,-50.17399978637695 20.422000885009766,-50.27799987792969 20.641000747680664,-50.19300079345703 C20.841999053955078,-50.11199951171875 20.957000732421875,-49.90800094604492 20.93000030517578,-49.70199966430664z"></path></g><g opacity="1" transform="matrix(1,0,0,1,54.60599899291992,15.487000465393066)"><path fill="rgb(253,192,41)" fill-opacity="1" d=" M19.809999465942383,-1.3240000009536743 C19.809999465942383,-1.3240000009536743 12.288000106811523,-0.27000001072883606 4.701000213623047,-6.806000232696533 C-1.7890000343322754,-12.397000312805176 -10.869999885559082,-12.446000099182129 -13.361000061035156,-12.343999862670898 C-13.383000373840332,-12.350000381469727 -14.095999717712402,-12.59000015258789 -14.211999893188477,-12.720000267028809 C-14.211999893188477,-12.720000267028809 -14.57800006866455,-11.82800006866455 -14.57800006866455,-11.82800006866455 C-14.57800006866455,-11.82800006866455 -14.114999771118164,-11.383999824523926 -13.730999946594238,-11.38700008392334 C-13.730999946594238,-11.38700008392334 -13.729000091552734,-11.387999534606934 -13.729000091552734,-11.387999534606934 C-13.729000091552734,-11.38700008392334 -13.729000091552734,-11.38599967956543 -13.729000091552734,-11.383999824523926 C-12.602999687194824,-6.545000076293945 -17.1560001373291,-1.1469999551773071 -18.770000457763672,0.5770000219345093 C-18.770000457763672,0.5770000219345093 -18.770000457763672,0.5799999833106995 -18.770000457763672,0.5799999833106995 C-18.770000457763672,0.5799999833106995 -18.770999908447266,0.5799999833106995 -18.770999908447266,0.5799999833106995 C-18.770999908447266,0.5799999833106995 -19.524999618530273,0.2370000034570694 -19.524999618530273,0.2370000034570694 C-19.524999618530273,0.2370000034570694 -19.80900001525879,0.9300000071525574 -19.80900001525879,0.9300000071525574 C-19.80900001525879,0.9300000071525574 -19.809999465942383,0.9319999814033508 -19.809999465942383,0.9319999814033508 C-19.809999465942383,0.9319999814033508 -19.194000244140625,1.2879999876022339 -18.68899917602539,1.3539999723434448 C-18.68899917602539,1.3539999723434448 -18.548999786376953,1.0099999904632568 -18.548999786376953,1.0099999904632568 C-16.25200080871582,0.6990000009536743 -9.102999687194824,0.32199999690055847 -1.6820000410079956,5.947999954223633 C7.21999979019165,12.696000099182129 16.57699966430664,12.720000267028809 16.57699966430664,12.720000267028809 C16.57699966430664,12.720000267028809 14.09000015258789,4.741000175476074 14.09000015258789,4.741000175476074 C14.09000015258789,4.741000175476074 19.809999465942383,-1.3240000009536743 19.809999465942383,-1.3240000009536743z"></path></g><g opacity="1" transform="matrix(1,0,0,1,40.04199981689453,10.085000038146973)"><path fill="rgb(253,192,41)" fill-opacity="1" d=" M3.5480000972747803,0.43799999356269836 C2.878000020980835,3.437000036239624 -4.205999851226807,5.98199987411499 -4.205999851226807,5.98199987411499 C-4.205999851226807,5.98199987411499 -4.205999851226807,5.979000091552734 -4.205999851226807,5.979000091552734 C-2.5920000076293945,4.254000186920166 1.9609999656677246,-1.1430000066757202 0.8349999785423279,-5.98199987411499 C0.9350000023841858,-5.881999969482422 4.205999851226807,-2.515000104904175 3.5480000972747803,0.43799999356269836z"></path></g></g><g mask="url(#__lottie_element_6)" style="display: block;"><g transform="matrix(1,0,0,1,60.3699951171875,236.86001586914062)" opacity="1"><g opacity="1" transform="matrix(1,0,0,1,218.3040008544922,62.055999755859375)"><path fill="rgb(64,143,255)" fill-opacity="1" d=" M91.56500244140625,61.80500030517578 C91.56500244140625,61.80500030517578 16.209999084472656,48.604000091552734 16.209999084472656,48.604000091552734 C16.209999084472656,48.604000091552734 -66.56199645996094,34.10300064086914 -66.56199645996094,34.10300064086914 C-66.56199645996094,34.10300064086914 -91.56400299072266,29.72100067138672 -91.56400299072266,29.72100067138672 C-91.56400299072266,29.72100067138672 -82.15399932861328,22.422000885009766 -82.15399932861328,22.422000885009766 C-82.15399932861328,22.422000885009766 -68.4520034790039,11.793999671936035 -68.4520034790039,11.793999671936035 C-68.4520034790039,11.793999671936035 -64.76799774169922,8.934000015258789 -64.76799774169922,8.934000015258789 C-64.76799774169922,8.934000015258789 26.41900062561035,-61.80500030517578 26.41900062561035,-61.80500030517578 C26.41900062561035,-61.80500030517578 75.72100067138672,31.746999740600586 75.72100067138672,31.746999740600586 C75.72100067138672,31.746999740600586 91.56500244140625,61.80500030517578 91.56500244140625,61.80500030517578z"></path></g><g opacity="1" transform="matrix(1,0,0,1,309.5419921875,62.055999755859375)"><path fill="rgb(0,104,250)" fill-opacity="1" d=" M64.81800079345703,58.71699905395508 C64.81800079345703,58.71699905395508 -64.81800079345703,-61.805999755859375 -64.81800079345703,-61.805999755859375 C-64.81800079345703,-61.805999755859375 0.3269999921321869,61.805999755859375 0.3269999921321869,61.805999755859375 C0.3269999921321869,61.805999755859375 64.81800079345703,58.71699905395508 64.81800079345703,58.71699905395508z"></path></g><g opacity="1" transform="matrix(1,0,0,1,181.18600463867188,89.55699920654297)"><path fill="rgb(0,104,250)" fill-opacity="1" d=" M54.446998596191406,15.708000183105469 C54.446998596191406,15.708000183105469 -29.445999145507812,6.60099983215332 -29.445999145507812,6.60099983215332 C-29.445999145507812,6.60099983215332 -54.448001861572266,2.2200000286102295 -54.448001861572266,2.2200000286102295 C-54.448001861572266,2.2200000286102295 -45.0359992980957,-5.079999923706055 -45.0359992980957,-5.079999923706055 C-45.0359992980957,-5.079999923706055 -31.336000442504883,-15.708000183105469 -31.336000442504883,-15.708000183105469 C-8.789999961853027,-7.0329999923706055 23.9950008392334,3.9749999046325684 54.446998596191406,15.708000183105469z"></path></g><g opacity="1" transform="matrix(1,0,0,1,238.52499389648438,128.00399780273438)"><path fill="rgb(64,143,255)" fill-opacity="1" d=" M238.27499389648438,-10.946000099182129 C238.27499389648438,-10.946000099182129 143.9250030517578,78.08200073242188 143.9250030517578,78.08200073242188 C143.9250030517578,78.08200073242188 -158.52699279785156,37.92100143432617 -158.52699279785156,37.92100143432617 C-158.52699279785156,37.92100143432617 -238.27499389648438,-78.08200073242188 -238.27499389648438,-78.08200073242188 C-238.27499389648438,-78.08200073242188 -2.944000005722046,-22.34000015258789 -2.944000005722046,-22.34000015258789 C-2.944000005722046,-22.34000015258789 238.27499389648438,-10.946000099182129 238.27499389648438,-10.946000099182129z"></path></g><g opacity="1" transform="matrix(1,0,0,1,346.6929931640625,155.875)"><path fill="rgb(0,104,250)" fill-opacity="1" d=" M130.10699462890625,-38.81700134277344 C130.10699462890625,-38.81700134277344 35.757999420166016,50.21099853515625 35.757999420166016,50.21099853515625 C35.757999420166016,50.21099853515625 -130.10699462890625,28.187000274658203 -130.10699462890625,28.187000274658203 C-130.10699462890625,28.187000274658203 -111.11100006103516,-50.21099853515625 -111.11100006103516,-50.21099853515625 C-111.11100006103516,-50.21099853515625 130.10699462890625,-38.81700134277344 130.10699462890625,-38.81700134277344z"></path></g><g opacity="1" transform="matrix(1,0,0,1,147.49400329589844,97.46700286865234)"><path fill="rgb(43,41,94)" fill-opacity="1" d=" M-45.03799819946289,-0.020999999716877937 C-45.03799819946289,-0.020999999716877937 -44.89899826049805,-1.0850000381469727 -44.89899826049805,-1.0850000381469727 C-26.273000717163086,1.343999981880188 42.58700180053711,-2.38100004196167 43.29199981689453,-2.4210000038146973 C43.29199981689453,-2.4210000038146973 45.03799819946289,-2.007999897003174 45.03799819946289,-2.007999897003174 C44.332000732421875,-1.9670000076293945 -26.312000274658203,2.4210000038146973 -45.03799819946289,-0.020999999716877937z"></path></g><g opacity="1" transform="matrix(1,0,0,1,84.14399719238281,118.51100158691406)"><path fill="rgb(239,243,247)" fill-opacity="1" d=" M37.74399948120117,-10.883999824523926 C35.143001556396484,-19.929000854492188 29.3439998626709,-27.766000747680664 21.488000869750977,-32.902000427246094 C16.726999282836914,-36.01900100708008 11.211000442504883,-38.141998291015625 5.196000099182129,-38.93899917602539 C0.18700000643730164,-39.60599899291992 -4.7270002365112305,-39.29499816894531 -9.352999687194824,-38.152000427246094 C-19.972999572753906,-35.53300094604492 -29.077999114990234,-28.54400062561035 -34.35200119018555,-18.961000442504883 C-36.63399887084961,-14.817000389099121 -38.19599914550781,-10.187999725341797 -38.85599899291992,-5.2170000076293945 C-39.65299987792969,0.7860000133514404 -39.04999923706055,6.64900016784668 -37.29399871826172,12.04800033569336 C-34.185001373291016,21.614999771118164 -27.46500015258789,29.71500015258789 -18.538999557495117,34.513999938964844 C-14.480999946594238,36.694000244140625 -9.968999862670898,38.191001892089844 -5.131999969482422,38.83300018310547 C0.6899999976158142,39.60599899291992 6.383999824523926,39.06100082397461 11.645999908447266,37.42499923706055 C21.114999771118164,34.48500061035156 29.190000534057617,28.023000717163086 34.12099838256836,19.378999710083008 C36.560001373291016,15.102999687194824 38.23099899291992,10.291999816894531 38.91899871826172,5.110000133514404 C39.65399932861328,-0.4230000078678131 39.19599914550781,-5.8429999351501465 37.74399948120117,-10.883999824523926z M23.476999282836914,13.414999961853027 C20.06100082397461,19.267000198364258 14.50100040435791,23.61199951171875 8.01200008392334,25.524999618530273 C4.546000003814697,26.54800033569336 0.8149999976158142,26.875999450683594 -2.996999979019165,26.3700008392334 C-6.3520002365112305,25.924999237060547 -9.479999542236328,24.871999740600586 -12.279000282287598,23.334999084472656 C-18.225000381469727,20.073999404907227 -22.70199966430664,14.638999938964844 -24.788000106811523,8.229000091552734 C-25.98200035095215,4.565999984741211 -26.395000457763672,0.5839999914169312 -25.854000091552734,-3.490000009536743 C-25.41900062561035,-6.763000011444092 -24.4060001373291,-9.817999839782715 -22.93400001525879,-12.565999984741211 C-19.437000274658203,-19.073999404907227 -13.352999687194824,-23.854000091552734 -6.224999904632568,-25.719999313354492 C-2.9809999465942383,-26.57200050354004 0.47600001096725464,-26.816999435424805 4.002999782562256,-26.349000930786133 C8.010000228881836,-25.816999435424805 11.687999725341797,-24.41900062561035 14.87600040435791,-22.368000030517578 C20.292999267578125,-18.88800048828125 24.29199981689453,-13.520000457763672 26.072999954223633,-7.316999912261963 C27.055999755859375,-3.9040000438690186 27.363000869750977,-0.23600000143051147 26.864999771118164,3.509999990463257 C26.38599967956543,7.117000102996826 25.20599937438965,10.458000183105469 23.476999282836914,13.414999961853027z"></path></g><g opacity="1" transform="matrix(1,0,0,1,90.21199798583984,87.52400207519531)"><path fill="rgb(253,192,41)" fill-opacity="1" d=" M15.420999526977539,-1.9160000085830688 C15.420999526977539,-1.9160000085830688 8.807999610900879,8.618000030517578 8.807999610900879,8.618000030517578 C5.619999885559082,6.566999912261963 1.9420000314712524,5.169000148773193 -2.063999891281128,4.63700008392334 C-5.5920000076293945,4.169000148773193 -9.04800033569336,4.414999961853027 -12.291999816894531,5.26800012588501 C-12.291999816894531,5.26800012588501 -15.420999526977539,-7.165999889373779 -15.420999526977539,-7.165999889373779 C-10.793999671936035,-8.309000015258789 -5.881999969482422,-8.619000434875488 -0.871999979019165,-7.953999996185303 C5.142000198364258,-7.15500020980835 10.66100025177002,-5.0320000648498535 15.420999526977539,-1.9160000085830688z"></path></g><g opacity="1" transform="matrix(1,0,0,1,80.697998046875,149.98199462890625)"><path fill="rgb(253,192,41)" fill-opacity="1" d=" M15.093000411987305,5.953999996185303 C9.831000328063965,7.590000152587891 4.13700008392334,8.13599967956543 -1.684999942779541,7.361999988555908 C-6.521999835968018,6.7210001945495605 -11.03499984741211,5.223999977111816 -15.093000411987305,3.0429999828338623 C-15.093000411987305,3.0429999828338623 -8.831999778747559,-8.13599967956543 -8.831999778747559,-8.13599967956543 C-6.0320000648498535,-6.598999977111816 -2.9049999713897705,-5.546000003814697 0.44999998807907104,-5.10099983215332 C4.26200008392334,-4.59499979019165 7.992000102996826,-4.922999858856201 11.458000183105469,-5.945000171661377 C11.458000183105469,-5.945000171661377 15.093000411987305,5.953999996185303 15.093000411987305,5.953999996185303z"></path></g><g opacity="1" transform="matrix(1,0,0,1,52.88399887084961,114.7979965209961)"><path fill="rgb(253,192,41)" fill-opacity="1" d=" M6.50600004196167,11.687000274658203 C6.50600004196167,11.687000274658203 -6,15.503999710083008 -6,15.503999710083008 C-7.75600004196167,10.107000350952148 -8.359999656677246,4.243000030517578 -7.563000202178955,-1.7599999904632568 C-6.9029998779296875,-6.730999946594238 -5.339000225067139,-11.359999656677246 -3.056999921798706,-15.503999710083008 C-3.056999921798706,-15.503999710083008 8.359999656677246,-9.109000205993652 8.359999656677246,-9.109000205993652 C6.88700008392334,-6.361000061035156 5.874000072479248,-3.305000066757202 5.440000057220459,-0.03400000184774399 C4.89900016784668,4.040999889373779 5.311999797821045,8.02299976348877 6.50600004196167,11.687000274658203z"></path></g><g opacity="1" transform="matrix(1,0,0,1,115.74299621582031,122.50199890136719)"><path fill="rgb(253,192,41)" fill-opacity="1" d=" M7.355000019073486,0.8619999885559082 C6.666999816894531,6.045000076293945 4.994999885559082,10.857000350952148 2.555000066757202,15.131999969482422 C2.555000066757202,15.131999969482422 -8.08899974822998,9.166999816894531 -8.08899974822998,9.166999816894531 C-6.359000205993652,6.210999965667725 -5.177999973297119,2.86899995803833 -4.698999881744385,-0.7390000224113464 C-4.202000141143799,-4.484000205993652 -4.508999824523926,-8.152000427246094 -5.492000102996826,-11.565999984741211 C-5.492000102996826,-11.565999984741211 6.177999973297119,-15.131999969482422 6.177999973297119,-15.131999969482422 C7.63100004196167,-10.09000015258789 8.08899974822998,-4.671000003814697 7.355000019073486,0.8619999885559082z"></path></g><g opacity="1" transform="matrix(1,0,0,1,50.595001220703125,73.63899993896484)"><path fill="rgb(43,41,94)" fill-opacity="1" d=" M50.06399917602539,23.648000717163086 C41.75,21.92799949645996 22.81399917602539,15.767000198364258 -12.119999885559082,-2.246999979019165 C-32.98899841308594,-13.008000373840332 -49.88999938964844,-23.547000885009766 -50.06399917602539,-23.648000717163086 C-50.06399917602539,-23.648000717163086 -48.52000045776367,-23.283000946044922 -48.52000045776367,-23.283000946044922 C-48.34700012207031,-23.180999755859375 -32.46900177001953,-13.951000213623047 -11.623000144958496,-3.2009999752044678 C15.937999725341797,11.01200008392334 37.36600112915039,19.27400016784668 48.42499923706055,22.503999710083008 C48.42499923706055,22.503999710083008 48.99399948120117,22.8799991607666 48.99399948120117,22.8799991607666 C48.99399948120117,22.8799991607666 50.06399917602539,23.648000717163086 50.06399917602539,23.648000717163086z"></path></g></g></g><g transform="matrix(1,0,0,1,75.05300903320312,384.3349914550781)" opacity="1" style="display: block;"><g opacity="1" transform="matrix(1,0,0,1,215.177001953125,7.452000141143799)"><path fill="rgb(239,243,247)" fill-opacity="1" d=" M172.78199768066406,-2.6649999618530273 C154.76300048828125,0.7799999713897705 132.5050048828125,1.5750000476837158 120.58000183105469,-2.134999990463257 C108.65599822998047,-5.84499979019165 80.17900085449219,-4.052999973297119 64.93299865722656,1.5750000476837158 C49.68600082397461,7.202000141143799 1.159000039100647,-6.639999866485596 -12.00100040435791,-5.314000129699707 C-25.160999298095703,-3.989000082015991 -49.80500030517578,3.1649999618530273 -55.900001525878906,2.1050000190734863 C-61.99399948120117,1.0449999570846558 -89.5530014038086,-5.197999954223633 -108.10199737548828,-0.6190000176429749 C-126.6510009765625,3.9600000381469727 -194.25799560546875,-7.202000141143799 -214.927001953125,4.198999881744385 C-214.927001953125,4.198999881744385 214.927001953125,4.171000003814697 214.927001953125,4.171000003814697 C214.927001953125,4.171000003814697 190.80099487304688,-6.109000205993652 172.78199768066406,-2.6649999618530273z"></path></g></g></g></svg>