<svg width="405" height="451" viewBox="0 0 405 451" fill="none" xmlns="http://www.w3.org/2000/svg">
<path d="M345.25 244.44L272.52 216.94C271.325 216.488 270.231 215.805 269.3 214.93C268.37 214.056 267.62 213.006 267.096 211.841C266.571 210.676 266.281 209.42 266.242 208.143C266.204 206.866 266.417 205.594 266.87 204.4L304.93 103.74C305.843 101.327 307.676 99.3748 310.028 98.3134C312.38 97.252 315.056 97.1681 317.47 98.08L363.6 115.52L385.38 165.82L357.79 238.82C356.869 241.226 355.032 243.169 352.682 244.222C350.331 245.276 347.658 245.354 345.25 244.44V244.44Z" fill="#F5F5F5"/>
<path d="M363.6 115.52L352.88 143.85C352.459 144.962 352.261 146.145 352.297 147.333C352.334 148.522 352.604 149.691 353.093 150.775C353.581 151.858 354.278 152.835 355.144 153.649C356.01 154.464 357.028 155.099 358.14 155.52L385.38 165.82L363.6 115.52Z" fill="#EBEBEB"/>
<path d="M352.31 146.48C352.31 146.48 349.36 153.22 356.31 158.48C356.572 158.676 356.846 158.856 357.13 159.02C360.45 161.02 382.29 174.02 382.49 173.49L385.37 165.87L358.13 155.57C358.13 155.57 351.43 152.72 352.31 146.48Z" fill="#E0E0E0"/>
<path d="M347.22 140.39C347.08 140.76 339.44 138.2 330.15 134.69C320.86 131.18 313.44 128.03 313.58 127.69C313.72 127.35 321.36 129.88 330.65 133.39C339.94 136.9 347.36 140 347.22 140.39Z" fill="#E0E0E0"/>
<path d="M362.89 164.63C362.75 164.99 350.25 160.63 334.96 154.82C319.67 149.01 307.38 144.05 307.52 143.68C307.66 143.31 320.16 147.68 335.46 153.5C350.76 159.32 363 164.26 362.89 164.63Z" fill="#E0E0E0"/>
<path d="M362.82 179.89C362.68 180.25 349.06 175.44 332.39 169.13C315.72 162.82 302.32 157.42 302.46 157.06C302.6 156.7 316.22 161.51 332.89 167.82C349.56 174.13 363 179.52 362.82 179.89Z" fill="#E0E0E0"/>
<path d="M358.05 192.51C357.91 192.87 344.29 188.06 327.62 181.75C310.95 175.44 297.55 170 297.69 169.68C297.83 169.36 311.45 174.13 328.12 180.43C344.79 186.73 358.19 192.14 358.05 192.51Z" fill="#E0E0E0"/>
<path d="M353.28 205.13C353.14 205.49 339.51 200.68 322.85 194.37C306.19 188.06 292.78 182.66 292.91 182.3C293.04 181.94 306.67 186.75 323.35 193.05C340.03 199.35 353.41 204.76 353.28 205.13Z" fill="#E0E0E0"/>
<path d="M348.5 217.75C348.37 218.11 334.74 213.29 318.08 206.99C301.42 200.69 288 195.28 288.14 194.92C288.28 194.56 301.9 199.37 318.57 205.67C335.24 211.97 348.64 217.38 348.5 217.75Z" fill="#E0E0E0"/>
<path d="M102.766 139.937L6.88563 173.514C3.5705 174.675 1.82419 178.304 2.98513 181.619L51.0915 318.989C52.2524 322.304 55.881 324.05 59.1961 322.889L155.077 289.313C158.392 288.152 160.138 284.523 158.977 281.208L110.871 143.838C109.71 140.523 106.081 138.776 102.766 139.937Z" fill="#EBEBEB"/>
<path d="M103.996 148.476L11.2484 180.955L58.9284 317.108L151.676 284.628L103.996 148.476Z" fill="#E0E0E0"/>
<path d="M102.336 147.835L9.58856 180.315L56.3596 313.872L149.107 281.392L102.336 147.835Z" fill="#FAFAFA"/>
<path d="M149.09 281.39L102.2 147.88L102.37 147.96L9.63998 180.45L9.72998 180.27C27.21 230.43 43.48 276.76 56.47 313.83L56.32 313.76L149.1 281.39L56.39 314H56.28V313.89C43.28 276.82 27.06 230.49 9.47998 180.34V180.2H9.60998L102.35 147.74H102.48V147.86L149.09 281.39Z" fill="#E0E0E0"/>
<path d="M116.2 292.91C116.2 292.91 136.85 275.49 140.43 257.35C138.358 260.225 135.725 262.652 132.69 264.482C129.655 266.312 126.28 267.509 122.77 268C122.77 268 122.36 287 116.2 292.91Z" fill="#E0E0E0"/>
<path d="M41.2844 210.074L36.405 211.783C34.6223 212.407 33.6832 214.359 34.3075 216.141L36.0163 221.021C36.6406 222.803 38.5918 223.743 40.3744 223.118L45.2539 221.41C47.0366 220.785 47.9756 218.834 47.3513 217.051L45.6426 212.172C45.0183 210.389 43.0671 209.45 41.2844 210.074Z" fill="#EBEBEB"/>
<path d="M40.69 218.48C40.656 218.498 40.6183 218.507 40.58 218.507C40.5417 218.507 40.504 218.498 40.47 218.48L38.23 217.18C38.1757 217.139 38.1385 217.079 38.1252 217.012C38.112 216.945 38.1237 216.875 38.158 216.816C38.1924 216.757 38.2472 216.713 38.312 216.692C38.3768 216.67 38.4472 216.673 38.51 216.7L40.51 217.84L42.87 212.84C42.9044 212.773 42.9625 212.722 43.0328 212.696C43.1031 212.67 43.1806 212.672 43.25 212.7C43.2838 212.716 43.3141 212.739 43.3391 212.767C43.3641 212.794 43.3832 212.827 43.3953 212.863C43.4074 212.898 43.4123 212.935 43.4097 212.973C43.407 213.01 43.3969 213.047 43.38 213.08L40.89 218.4C40.8643 218.427 40.8332 218.448 40.7987 218.462C40.7642 218.475 40.7271 218.482 40.69 218.48V218.48Z" fill="white"/>
<path d="M104.73 189.4C104.73 189.48 92.73 193.77 77.84 198.98C62.95 204.19 50.84 208.35 50.84 208.28C50.84 208.21 62.84 203.91 77.74 198.7C92.64 193.49 104.71 189.33 104.73 189.4Z" fill="#E0E0E0"/>
<path d="M76.45 208.62C76.45 208.62 76.14 208.76 75.58 208.98L73.16 209.88C71.16 210.62 68.28 211.63 65.16 212.73C62.04 213.83 59.16 214.81 57.16 215.5L54.71 216.31C54.4134 216.419 54.1093 216.506 53.8 216.57C54.0796 216.424 54.3706 216.3 54.67 216.2L57.09 215.31C59.09 214.56 61.97 213.55 65.09 212.45C68.21 211.35 71.09 210.38 73.09 209.68L75.54 208.87C75.8356 208.761 76.14 208.677 76.45 208.62V208.62Z" fill="#E0E0E0"/>
<path d="M106 193.08C106 193.15 94 197.44 79.1 202.65C64.2 207.86 52.1 212.03 52.1 211.95C52.1 211.87 64.1 207.59 79.01 202.38C93.92 197.17 106 193 106 193.08Z" fill="#E0E0E0"/>
<path d="M48.2499 229.972L43.3705 231.681C41.5878 232.305 40.6488 234.257 41.2731 236.039L42.9818 240.919C43.6061 242.701 45.5573 243.64 47.34 243.016L52.2194 241.307C54.0021 240.683 54.9411 238.732 54.3169 236.949L52.6081 232.07C51.9838 230.287 50.0326 229.348 48.2499 229.972Z" fill="#EBEBEB"/>
<path d="M47.66 238.38C47.6242 238.398 47.5849 238.407 47.545 238.407C47.5051 238.407 47.4658 238.398 47.43 238.38L45.2 237.08C45.1677 237.062 45.1393 237.038 45.1166 237.009C45.0939 236.98 45.0774 236.947 45.068 236.912C45.0586 236.876 45.0566 236.839 45.0621 236.802C45.0677 236.766 45.0805 236.731 45.1 236.7C45.1176 236.668 45.1416 236.639 45.1706 236.617C45.1995 236.594 45.2328 236.577 45.2684 236.568C45.304 236.559 45.3411 236.557 45.3775 236.562C45.4139 236.568 45.4488 236.581 45.48 236.6L47.48 237.74L49.84 232.69C49.8725 232.624 49.9288 232.573 49.9974 232.547C50.0661 232.521 50.1421 232.522 50.21 232.55C50.2776 232.581 50.3303 232.637 50.3565 232.706C50.3828 232.775 50.3804 232.852 50.35 232.92L47.86 238.25C47.8378 238.285 47.8085 238.314 47.774 238.337C47.7395 238.359 47.7007 238.374 47.66 238.38V238.38Z" fill="white"/>
<path d="M111.7 209.3C111.7 209.38 99.7 213.66 84.8 218.88C69.9 224.1 57.8 228.25 57.8 228.18C57.8 228.11 69.8 223.81 84.7 218.6C99.6 213.39 111.68 209.23 111.7 209.3Z" fill="#E0E0E0"/>
<path d="M83.42 228.52C83.42 228.52 83.11 228.66 82.54 228.88L80.13 229.78C78.13 230.52 75.25 231.53 72.13 232.63C69.01 233.73 66.13 234.71 64.13 235.4L61.68 236.21C61.3834 236.319 61.0793 236.406 60.77 236.47C61.0484 236.321 61.3396 236.197 61.64 236.1L64.06 235.21C66.06 234.46 68.94 233.45 72.06 232.35C75.18 231.25 78.06 230.28 80.06 229.58L82.51 228.77C82.8056 228.661 83.11 228.577 83.42 228.52Z" fill="#E0E0E0"/>
<path d="M113 213C113 213.07 101 217.36 86.1 222.57C71.2 227.78 59.1 231.95 59.1 231.87C59.1 231.79 71.1 227.51 86 222.3C100.9 217.09 113 212.9 113 213Z" fill="#E0E0E0"/>
<path d="M55.2255 249.87L50.346 251.579C48.5634 252.203 47.6243 254.155 48.2486 255.937L49.9573 260.817C50.5816 262.599 52.5328 263.538 54.3155 262.914L59.1949 261.205C60.9776 260.581 61.9167 258.63 61.2924 256.847L59.5836 251.968C58.9593 250.185 57.0081 249.246 55.2255 249.87Z" fill="#EBEBEB"/>
<path d="M54.63 258.28C54.5942 258.298 54.5549 258.307 54.515 258.307C54.4751 258.307 54.4358 258.298 54.4 258.28L52.16 257C52.1235 256.984 52.0907 256.961 52.0639 256.932C52.037 256.903 52.0167 256.868 52.0042 256.83C51.9918 256.793 51.9875 256.753 51.9916 256.713C51.9957 256.674 52.0082 256.636 52.0282 256.601C52.0482 256.567 52.0753 256.538 52.1076 256.514C52.1399 256.491 52.1768 256.476 52.2157 256.468C52.2547 256.46 52.2948 256.461 52.3335 256.47C52.3721 256.479 52.4085 256.496 52.44 256.52L54.44 257.66L56.8 252.61C56.814 252.575 56.835 252.543 56.8617 252.516C56.8884 252.489 56.9202 252.468 56.9552 252.454C56.9903 252.44 57.0279 252.433 57.0656 252.434C57.1034 252.435 57.1407 252.443 57.1752 252.459C57.2096 252.474 57.2406 252.496 57.2661 252.524C57.2917 252.552 57.3114 252.585 57.324 252.62C57.3366 252.656 57.3419 252.694 57.3395 252.732C57.3371 252.769 57.327 252.806 57.31 252.84L54.82 258.17C54.7711 258.227 54.704 258.266 54.63 258.28V258.28Z" fill="white"/>
<path d="M118.67 229.2C118.67 229.28 106.67 233.56 91.77 238.78C76.87 244 64.77 248.15 64.77 248.07C64.77 247.99 76.77 243.71 91.68 238.5C106.59 233.29 118.64 229.13 118.67 229.2Z" fill="#E0E0E0"/>
<path d="M90.39 248.41C90.1062 248.555 89.812 248.679 89.51 248.78L87.09 249.68C85.09 250.42 82.22 251.43 79.09 252.53C75.96 253.63 73.09 254.6 71.09 255.3L68.64 256.11C68.3429 256.217 68.0389 256.304 67.73 256.37C68.0084 256.221 68.2996 256.097 68.6 256L71.02 255.1C73.02 254.36 75.9 253.35 79.02 252.25C82.14 251.15 85.02 250.18 87.02 249.48L89.46 248.67C89.7648 248.566 90.0753 248.479 90.39 248.41V248.41Z" fill="#E0E0E0"/>
<path d="M120 232.88C120 232.95 108 237.24 93.1 242.45C78.2 247.66 66.1 251.83 66.1 251.75C66.1 251.67 78.1 247.39 93 242.17C107.9 236.95 119.93 232.8 120 232.88Z" fill="#E0E0E0"/>
<path d="M62.191 269.768L57.3115 271.477C55.5289 272.101 54.5898 274.053 55.2141 275.835L56.9229 280.715C57.5471 282.497 59.4983 283.436 61.281 282.812L66.1605 281.103C67.9431 280.479 68.8822 278.528 68.2579 276.745L66.5491 271.866C65.9249 270.083 63.9737 269.144 62.191 269.768Z" fill="#EBEBEB"/>
<path d="M61.59 278.18C61.5552 278.195 61.5178 278.203 61.48 278.203C61.4422 278.203 61.4048 278.195 61.37 278.18L59.13 276.88C59.0663 276.842 59.0206 276.779 59.0028 276.707C58.9849 276.635 58.9965 276.559 59.035 276.495C59.0735 276.431 59.1356 276.386 59.2078 276.368C59.28 276.35 59.3563 276.362 59.42 276.4L61.42 277.54L63.78 272.54C63.8106 272.472 63.8667 272.42 63.936 272.393C64.0054 272.367 64.0824 272.37 64.15 272.4C64.2158 272.432 64.2669 272.489 64.2929 272.557C64.3189 272.626 64.3178 272.702 64.29 272.77L61.79 278.1C61.7361 278.151 61.6645 278.18 61.59 278.18Z" fill="white"/>
<path d="M125.64 249.1C125.64 249.18 113.64 253.46 98.74 258.67C83.84 263.88 71.74 268.05 71.74 267.97C71.74 267.89 83.74 263.61 98.64 258.4C113.54 253.19 125.61 249 125.64 249.1Z" fill="#E0E0E0"/>
<path d="M97.35 268.31C97.0716 268.459 96.7804 268.583 96.48 268.68L94.06 269.58C92.06 270.32 89.18 271.33 86.06 272.43C82.94 273.53 80.06 274.5 78.06 275.2L75.61 276.01C75.03 276.19 74.7 276.28 74.7 276.27C74.9784 276.121 75.2696 275.997 75.57 275.9L77.99 275C79.99 274.26 82.87 273.25 85.99 272.15C89.11 271.05 91.99 270.08 93.99 269.38L96.44 268.57C96.7371 268.463 97.0411 268.376 97.35 268.31Z" fill="#E0E0E0"/>
<path d="M126.93 252.78C126.93 252.85 114.93 257.14 100.03 262.35C85.13 267.56 73.03 271.72 73.03 271.65C73.03 271.58 85.03 267.29 99.93 262.07C114.83 256.85 126.9 252.7 126.93 252.78Z" fill="#E0E0E0"/>
<path d="M20.09 167.3L22.53 174.3C23.2124 176.249 24.6406 177.847 26.5007 178.743C28.3608 179.639 30.5006 179.761 32.45 179.08L83.75 161.08C84.7144 160.743 85.603 160.22 86.3649 159.539C87.1268 158.859 87.747 158.035 88.19 157.114C88.6331 156.194 88.8903 155.195 88.9469 154.175C89.0035 153.155 88.8584 152.134 88.52 151.17L86.08 144.17L20.09 167.3Z" fill="#E0E0E0"/>
<path d="M53.77 157.82C52.4072 158.299 50.9328 158.364 49.5335 158.005C48.1341 157.646 46.8727 156.88 45.9089 155.804C44.9452 154.728 44.3224 153.39 44.1195 151.959C43.9166 150.529 44.1426 149.07 44.769 147.769C45.3954 146.467 46.3939 145.38 47.6382 144.646C48.8826 143.912 50.3167 143.564 51.759 143.645C53.2014 143.727 54.5872 144.235 55.7408 145.104C56.8945 145.974 57.7643 147.166 58.24 148.53C58.8764 150.355 58.7632 152.357 57.9253 154.099C57.0873 155.84 55.593 157.179 53.77 157.82ZM49.87 146.69C49.0295 146.983 48.2949 147.52 47.7592 148.231C47.2235 148.942 46.9107 149.796 46.8605 150.684C46.8102 151.573 47.0247 152.457 47.4769 153.224C47.929 153.991 48.5984 154.606 49.4005 154.993C50.2026 155.379 51.1012 155.519 51.9827 155.394C52.8642 155.27 53.6889 154.887 54.3526 154.293C55.0163 153.7 55.4891 152.923 55.7111 152.061C55.9331 151.199 55.8945 150.29 55.6 149.45C55.2055 148.325 54.3805 147.402 53.3061 146.884C52.2317 146.367 50.9959 146.297 49.87 146.69V146.69Z" fill="#E0E0E0"/>
<path d="M94.77 176C94.77 176.13 81.29 181 64.56 186.85C47.83 192.7 34.23 197.35 34.18 197.22C34.13 197.09 47.66 192.22 64.39 186.37C81.12 180.52 94.72 175.83 94.77 176Z" fill="#E0E0E0"/>
<path d="M77.44 178.45C77.44 178.58 71.54 180.79 64.15 183.38C56.76 185.97 50.73 188 50.68 187.82C50.63 187.64 56.59 185.48 63.98 182.89C71.37 180.3 77.4 178.32 77.44 178.45Z" fill="#E0E0E0"/>
<path d="M344 381.08C347.682 379.351 351.822 378.85 355.81 379.65C357.95 380 360.19 380.65 361.64 382.25C363.09 383.85 363.38 386.69 361.7 388.07C360.615 388.808 359.304 389.137 358 389C354.87 389 351.41 388.41 348.92 390.29C347.49 391.36 346.55 393.14 344.85 393.67C343.994 393.869 343.097 393.782 342.296 393.42C341.496 393.059 340.836 392.444 340.42 391.67C339.612 390.106 339.433 388.292 339.92 386.6C340.13 385.428 340.607 384.32 341.315 383.363C342.022 382.406 342.941 381.624 344 381.08Z" fill="#315399"/>
<path d="M335.72 365.2C337.92 368.33 342.19 367.3 344.17 365.38C346.15 363.46 346.98 360.69 347.74 358.05C349.48 352 351.24 345.66 349.95 339.5C349.629 337.649 348.81 335.92 347.58 334.5C346.953 333.795 346.152 333.267 345.257 332.969C344.362 332.671 343.405 332.612 342.48 332.8C340.32 333.37 338.99 335.48 338.02 337.48C335.168 343.409 333.675 349.9 333.65 356.48C333.65 359.54 334 362.74 335.72 365.27" fill="#315399"/>
<path d="M329.69 369.7C330.82 368.225 331.573 366.497 331.883 364.666C332.193 362.834 332.051 360.954 331.47 359.19C330.261 355.676 328.109 352.563 325.25 350.19C321.999 347.297 318.215 345.065 314.11 343.62C312.524 342.979 310.818 342.689 309.11 342.77C308.256 342.818 307.426 343.075 306.694 343.518C305.962 343.961 305.349 344.576 304.91 345.31C303.73 347.55 304.91 350.26 306.07 352.47C308.211 356.372 310.658 360.097 313.39 363.61C315.58 366.44 318.09 369.23 321.44 370.51C324.79 371.79 328.25 371.63 330.02 369.32" fill="#315399"/>
<path d="M335.58 412.51C335.69 412.044 335.754 411.568 335.77 411.09C335.88 410.09 336 408.75 336.15 407.2C336.342 405.282 336.636 403.376 337.03 401.49C337.538 399.195 338.23 396.944 339.1 394.76C339.954 392.578 341.112 390.528 342.54 388.67C343.703 387.155 345.189 385.919 346.89 385.05C348.042 384.478 349.277 384.093 350.55 383.91C351.029 383.893 351.505 383.826 351.97 383.71C351.488 383.658 351.002 383.658 350.52 383.71C349.201 383.816 347.911 384.155 346.71 384.71C344.919 385.552 343.348 386.798 342.12 388.35C340.634 390.237 339.435 392.333 338.56 394.57C337.673 396.785 336.983 399.074 336.5 401.41C336.132 403.32 335.878 405.25 335.74 407.19C335.61 408.84 335.57 410.19 335.55 411.1C335.505 411.57 335.515 412.043 335.58 412.51Z" fill="#263238"/>
<path d="M335.84 409.52C335.87 409.301 335.87 409.079 335.84 408.86V407C335.84 405.36 335.84 403 335.92 400C336.07 394.13 336.57 387.82 337.55 378.92C338.47 370.55 339.71 360.81 341.02 354.48C341.3 353.04 341.58 351.74 341.85 350.61C342.12 349.48 342.32 348.49 342.53 347.7C342.74 346.91 342.85 346.34 342.97 345.86C343.025 345.643 343.065 345.422 343.09 345.2C342.99 345.397 342.912 345.605 342.86 345.82C342.71 346.3 342.53 346.9 342.31 347.64C342.09 348.38 341.81 349.4 341.53 350.53C341.25 351.66 340.92 352.95 340.61 354.39C339.007 361.888 337.802 369.465 337 377.09C336 386.01 335.58 394.09 335.55 400.01C335.55 402.95 335.55 405.33 335.65 407.01C335.65 407.78 335.73 408.41 335.76 408.9C335.768 409.109 335.795 409.316 335.84 409.52Z" fill="#263238"/>
<path d="M335.88 393.86C335.936 393.194 335.936 392.526 335.88 391.86C335.767 390.068 335.563 388.282 335.27 386.51C334.841 383.879 334.26 381.274 333.53 378.71C332.684 375.554 331.594 372.468 330.27 369.48C328.007 363.973 324.765 358.921 320.7 354.57C319.991 353.826 319.237 353.128 318.44 352.48C318.1 352.18 317.79 351.89 317.44 351.66L316.57 351.06C316.046 350.658 315.487 350.303 314.9 350C316.82 351.5 318.641 353.124 320.35 354.86C324.292 359.241 327.452 364.268 329.69 369.72C330.987 372.69 332.082 375.743 332.97 378.86C333.722 381.399 334.34 383.976 334.82 386.58C335.23 388.81 335.47 390.58 335.61 391.88C335.651 392.546 335.742 393.208 335.88 393.86V393.86Z" fill="#263238"/>
<path d="M320.74 421.49L322.31 442.99H349.94L351.5 421.49H320.74Z" fill="#263238"/>
<path d="M354.81 413.01H318.08V421.49H354.81V413.01Z" fill="#263238"/>
<path d="M318.08 442.17V444.51H319.8H354.19V442.17H318.08Z" fill="#455A64"/>
<path d="M321.49 448.65L319.8 444.51H352.88L350.9 448.65H321.49Z" fill="#455A64"/>
<path d="M351 428.51C351 428.51 351 428.59 350.87 428.71L350.46 429.26L348.85 431.32L348.78 431.41L348.71 431.31L344.76 425.85H345L341.1 431.36L340.98 431.53L340.84 431.37L336.23 425.87H336.49L336.24 426.19L332.11 431.36L331.98 431.54L331.85 431.36C330.45 429.36 329.14 427.52 327.95 425.85H328.18L323.39 431.31L323.3 431.41L323.23 431.3C322.6 430.24 322.1 429.39 321.73 428.78L321.35 428.11C321.299 428.036 321.259 427.955 321.23 427.87C321.23 427.87 321.29 427.93 321.39 428.08L321.82 428.73L323.39 431.2H323.24L327.96 425.67L328.08 425.53L328.19 425.68L332.12 431.17H331.85L336 426L336.26 425.68L336.39 425.51L336.52 425.67L341.13 431.18H340.87L344.8 425.69L344.91 425.53L345.03 425.69C346.58 427.92 347.91 429.81 348.9 431.22H348.75L350.43 429.22L350.88 428.7L351 428.51Z" fill="#E0E0E0"/>
<path d="M351.89 421.34C351.89 421.44 344.97 421.52 336.43 421.52C327.89 421.52 320.97 421.44 320.97 421.34C320.97 421.24 327.89 421.17 336.43 421.17C344.97 421.17 351.89 421.25 351.89 421.34Z" fill="#455A64"/>
<path d="M353.29 444.75C353.29 444.84 345.76 444.92 336.49 444.92C327.22 444.92 319.69 444.84 319.69 444.75C319.69 444.66 327.21 444.57 336.49 444.57C345.77 444.57 353.29 444.65 353.29 444.75Z" fill="#263238"/>
<path d="M80.8 376.15C80.72 376.24 80.09 375.86 79.39 375.3C78.69 374.74 78.18 374.21 78.26 374.11C78.34 374.01 78.96 374.4 79.66 374.96C80.36 375.52 80.87 376.05 80.8 376.15Z" fill="#263238"/>
<path d="M100 347.51C100.272 344.843 100.052 342.148 99.35 339.56C98.51 337.01 96.55 334.68 93.93 334.13C90.93 333.51 87.87 335.4 86.19 337.96C84.51 340.52 83.94 343.62 83.44 346.63C80.0282 367.429 78.7716 388.524 79.69 409.58L91.93 411.3C97.26 389.33 99 370.12 100 347.51Z" fill="#455A64"/>
<path d="M92.18 334L92.12 334.2L91.92 334.75L91.1 336.87C90.93 337.33 90.7 337.87 90.52 338.4L89.93 340.25L89.24 342.38L88.61 344.81C87.5824 348.824 86.7911 352.894 86.24 357C85.58 361.6 85.15 366.7 84.8 372.06C84.18 382.79 84.08 392.53 83.8 399.57C83.67 403.1 83.55 405.95 83.42 407.91C83.35 408.91 83.3 409.62 83.26 410.18C83.26 410.41 83.26 410.61 83.26 410.76C83.26 410.91 83.26 410.96 83.26 410.96C83.26 410.96 83.26 410.9 83.26 410.76C83.26 410.62 83.26 410.41 83.26 410.17C83.26 409.62 83.26 408.86 83.33 407.9C83.41 405.9 83.48 403.09 83.57 399.56C83.77 392.56 83.82 382.78 84.45 372.04C84.79 366.67 85.24 361.56 85.92 356.94C86.4935 352.847 87.3184 348.792 88.39 344.8L89.05 342.37C89.31 341.623 89.55 340.913 89.77 340.24L90.41 338.39C90.6 337.83 90.84 337.33 91.02 336.87L91.92 334.79C92.0133 334.57 92.0933 334.39 92.16 334.25C92.1528 334.166 92.1595 334.082 92.18 334V334Z" fill="#263238"/>
<path d="M93.31 334.05C93.9479 334.804 94.4549 335.659 94.81 336.58C95.7459 339.109 96.1245 341.811 95.92 344.5C95.6 351.27 94.99 360.59 94.19 370.89C93.39 381.19 92.48 390.49 91.76 397.22C91.39 400.58 91.08 403.3 90.85 405.22C90.73 406.13 90.64 406.85 90.57 407.38L90.49 407.94C90.4946 408.003 90.4946 408.067 90.49 408.13C90.49 408.13 90.49 408.07 90.49 407.94C90.49 407.81 90.49 407.6 90.49 407.37C90.49 406.84 90.6 406.12 90.68 405.2C90.87 403.28 91.13 400.57 91.45 397.2C92.09 390.46 92.94 381.2 93.75 370.86C94.56 360.52 95.21 351.25 95.61 344.5C95.8277 341.842 95.4871 339.168 94.61 336.65C94.2544 335.747 93.8193 334.877 93.31 334.05V334.05Z" fill="#263238"/>
<path d="M101.8 365.74C100.997 365.682 100.211 365.478 99.48 365.14C98.7032 364.938 97.9684 364.599 97.31 364.14C98.1142 364.192 98.9013 364.396 99.63 364.74C100.408 364.94 101.143 365.279 101.8 365.74V365.74Z" fill="#263238"/>
<path d="M103.28 353.26C102.617 353.79 101.87 354.206 101.07 354.49C100.327 354.902 99.5183 355.182 98.68 355.32C100.082 354.372 101.639 353.675 103.28 353.26V353.26Z" fill="#263238"/>
<path d="M102.51 343.07C101.301 343.288 100.057 343.202 98.89 342.82C99.4816 342.65 100.104 342.62 100.71 342.73C101.328 342.703 101.944 342.819 102.51 343.07Z" fill="#263238"/>
<path d="M89.87 336.55C89.77 336.61 89.23 335.94 88.68 335.06C88.2797 334.551 87.9963 333.961 87.85 333.33C87.95 333.27 88.49 333.93 89.05 334.82C89.61 335.71 90 336.48 89.87 336.55Z" fill="#263238"/>
<path d="M85.7 342.71C85.1431 342.91 84.546 342.972 83.96 342.89C83.3707 342.947 82.7766 342.857 82.23 342.63C82.7868 342.43 83.384 342.368 83.97 342.45C84.5592 342.394 85.1534 342.483 85.7 342.71V342.71Z" fill="#263238"/>
<path d="M82.7 355C82.0599 354.974 81.4341 354.803 80.87 354.5C80.2526 354.325 79.6821 354.014 79.2 353.59C79.84 353.616 80.4658 353.787 81.03 354.09C81.6473 354.266 82.2178 354.576 82.7 355V355Z" fill="#263238"/>
<path d="M82.38 365.39C82.38 365.51 81.71 365.76 80.82 365.94C79.93 366.12 79.2 366.19 79.17 366.07C79.14 365.95 79.85 365.7 80.73 365.52C81.2607 365.341 81.8277 365.296 82.38 365.39Z" fill="#263238"/>
<path d="M81 382.35C81 382.47 80.28 382.7 79.34 382.87C78.7784 383.037 78.1846 383.065 77.61 382.95C78.1144 382.649 78.6837 382.474 79.27 382.44C79.8302 382.267 80.4248 382.236 81 382.35Z" fill="#263238"/>
<path d="M80 391.71C80.06 391.81 79.44 392.25 78.62 392.71C77.8 393.17 77.09 393.41 77.04 393.3C76.99 393.19 77.6 392.76 78.42 392.3C79.24 391.84 80 391.6 80 391.71Z" fill="#263238"/>
<path d="M87.67 402.33C87.57 402.39 87.03 401.65 86.47 400.67C86.065 400.109 85.7853 399.468 85.65 398.79C85.75 398.73 86.29 399.47 86.85 400.45C87.2551 401.011 87.5347 401.652 87.67 402.33V402.33Z" fill="#263238"/>
<path d="M89.88 384.68C89.96 384.76 89.36 385.49 88.54 386.3C87.72 387.11 86.98 387.69 86.89 387.6C86.8 387.51 87.41 386.79 88.23 385.98C89.05 385.17 89.79 384.59 89.88 384.68Z" fill="#263238"/>
<path d="M89.39 375.41C89.3 375.5 88.75 375.04 88.15 374.41C87.55 373.78 87.15 373.17 87.23 373.09C87.31 373.01 87.87 373.46 88.47 374.09C89.07 374.72 89.48 375.33 89.39 375.41Z" fill="#263238"/>
<path d="M90.91 363.58C91 363.66 90.5 364.37 89.79 365.15C89.08 365.93 88.44 366.52 88.35 366.44C88.26 366.36 88.76 365.65 89.46 364.86C90.16 364.07 90.82 363.5 90.91 363.58Z" fill="#263238"/>
<path d="M91.76 355C91.67 355.09 90.98 354.54 90.2 353.78C89.42 353.02 88.87 352.33 88.95 352.24C89.03 352.15 89.73 352.7 90.51 353.47C91.29 354.24 91.84 354.91 91.76 355Z" fill="#263238"/>
<path d="M93.44 343.38C93.3076 344.011 93.0379 344.605 92.65 345.12C92.12 346.02 91.6 346.7 91.5 346.64C91.4 346.58 91.74 345.8 92.28 344.9C92.82 344 93.33 343.32 93.44 343.38Z" fill="#263238"/>
<path d="M96.59 332.62C96.7 332.68 96.39 333.46 95.9 334.36C95.41 335.26 94.9 335.95 94.82 335.9C94.9152 335.275 95.1511 334.68 95.51 334.16C96 333.25 96.48 332.57 96.59 332.62Z" fill="#263238"/>
<path d="M100.17 337.51C100.22 337.62 99.73 337.96 99.07 338.28C98.41 338.6 97.84 338.76 97.79 338.65C97.74 338.54 98.23 338.2 98.89 337.88C99.55 337.56 100.12 337.4 100.17 337.51Z" fill="#263238"/>
<path d="M100.25 376.15C98.5889 376.029 97.0158 375.357 95.78 374.24C96.5586 374.476 97.3122 374.787 98.03 375.17C98.8015 375.42 99.5454 375.748 100.25 376.15V376.15Z" fill="#263238"/>
<path d="M98.79 384.33C98.79 384.45 98.08 384.69 97.14 384.87C96.5813 385.049 95.9869 385.087 95.41 384.98C95.9102 384.673 96.4753 384.488 97.06 384.44C98 384.26 98.77 384.21 98.79 384.33Z" fill="#263238"/>
<path d="M97 398.36C96.93 398.46 96 397.81 95.14 396.73C94.5673 396.113 94.1642 395.359 93.97 394.54C94.5289 395.134 95.0341 395.777 95.48 396.46C96.0439 397.045 96.5528 397.681 97 398.36V398.36Z" fill="#263238"/>
<path d="M77.31 404.78C77.23 404.69 77.73 404.13 78.42 403.54C79.11 402.95 79.74 402.54 79.82 402.64C79.9 402.74 79.4 403.28 78.71 403.88C78.02 404.48 77.39 404.87 77.31 404.78Z" fill="#263238"/>
<path d="M71.65 374.16C70.85 371.67 69.36 368.77 66.75 368.73C65.9723 368.772 65.2203 369.023 64.5728 369.456C63.9253 369.888 63.4062 370.488 63.07 371.19C62.3517 372.578 62.007 374.129 62.07 375.69C62.3923 386.774 64.281 397.756 67.68 408.31H77.25C77.1341 396.708 75.2456 385.192 71.65 374.16V374.16Z" fill="#455A64"/>
<path d="M54.36 358.49C53.8867 356.158 52.6436 354.052 50.8302 352.51C49.0168 350.969 46.7382 350.081 44.36 349.99C40.13 350.73 38.49 354.89 37.99 359.15C37.49 363.41 38.81 367.65 40.12 371.74C44.3067 384.86 48.5 397.983 52.7 411.11L64.6 409.81C60.88 392.23 58.72 375.93 54.36 358.49Z" fill="#455A64"/>
<path d="M66.75 368.73C66.4407 369.155 66.1697 369.607 65.94 370.08C65.4467 371.432 65.2922 372.884 65.49 374.31C65.67 376.13 65.88 378.31 66.19 380.71C66.5 383.11 66.93 385.71 67.47 388.49C68.55 393.99 69.77 398.91 70.54 402.49C70.93 404.28 71.23 405.74 71.41 406.75C71.49 407.22 71.56 407.6 71.61 407.92C71.66 408.24 71.67 408.33 71.61 408.33C71.5581 408.204 71.5179 408.073 71.49 407.94L71.21 406.79C70.95 405.72 70.61 404.29 70.21 402.56C69.36 398.98 68.09 394.07 67.01 388.56C66.47 385.8 66.01 383.16 65.76 380.74C65.6 379.54 65.5 378.38 65.4 377.31C65.3 376.24 65.2 375.23 65.15 374.31C64.9791 372.842 65.1856 371.355 65.75 369.99C65.988 369.502 66.3292 369.073 66.75 368.73V368.73Z" fill="#263238"/>
<path d="M44.58 349.65C44.0498 350.254 43.5682 350.9 43.14 351.58C42.0448 353.481 41.4239 355.618 41.33 357.81C41.2803 361.06 41.7772 364.295 42.8 367.38C43.8 370.92 44.99 374.81 46.2 378.88C48.57 387.04 50.71 394.42 52.28 399.81L54.08 406.17C54.28 406.89 54.43 407.46 54.55 407.9C54.6154 408.098 54.659 408.303 54.68 408.51C54.5883 408.324 54.5146 408.13 54.46 407.93C54.33 407.49 54.14 406.93 53.92 406.21C53.45 404.68 52.79 402.53 51.99 399.9L45.78 379C44.58 374.91 43.45 371 42.41 367.48C41.3913 364.351 40.921 361.069 41.02 357.78C41.1489 355.546 41.8366 353.38 43.02 351.48C43.4354 350.788 43.9625 350.17 44.58 349.65Z" fill="#263238"/>
<path d="M62.05 408.54C61.9493 408.355 61.8592 408.165 61.78 407.97C61.63 407.58 61.38 407.03 61.11 406.29C60.54 404.83 59.81 402.68 59.11 399.98C58.41 397.28 57.61 393.98 56.89 390.38C56.17 386.78 55.45 382.75 54.65 378.55C53.85 374.35 52.91 370.4 51.84 366.87C50.9117 363.732 49.7518 360.667 48.37 357.7C47.4306 355.704 46.3581 353.773 45.16 351.92C44.75 351.26 44.38 350.77 44.16 350.43C44.0347 350.26 43.9243 350.079 43.83 349.89C43.9767 350.038 44.1105 350.199 44.23 350.37C44.48 350.71 44.87 351.17 45.3 351.83C46.5647 353.653 47.6848 355.572 48.65 357.57C50.0844 360.529 51.2782 363.599 52.22 366.75C53.3494 370.606 54.2773 374.518 55 378.47C55.79 382.66 56.53 386.66 57.21 390.31C57.89 393.96 58.61 397.19 59.33 399.9C60.05 402.61 60.72 404.76 61.24 406.23C61.48 406.98 61.71 407.54 61.84 407.93C61.9327 408.125 62.0031 408.329 62.05 408.54V408.54Z" fill="#263238"/>
<path d="M40.38 369.78C40.38 369.89 39.76 370.15 38.93 370.35C38.1 370.55 37.41 370.62 37.39 370.5C37.37 370.38 38 370.13 38.83 369.93C39.66 369.73 40.35 369.66 40.38 369.78Z" fill="#263238"/>
<path d="M39.12 361.66C38.47 361.843 37.7942 361.917 37.12 361.88C36.4548 361.974 35.7784 361.954 35.12 361.82C35.7427 361.523 36.4317 361.392 37.12 361.44C37.7945 361.342 38.483 361.417 39.12 361.66Z" fill="#263238"/>
<path d="M40.46 354.24C40.38 354.34 39.73 353.92 39.02 353.31C38.31 352.7 37.78 352.13 37.86 352.04C37.94 351.95 38.58 352.36 39.3 352.97C40.02 353.58 40.54 354.15 40.46 354.24Z" fill="#263238"/>
<path d="M44.09 347.38C44.21 347.38 44.17 347.99 44.16 348.68C44.15 349.37 44.16 349.96 44.01 349.98C43.86 350 43.7 349.42 43.72 348.67C43.74 347.92 44 347.35 44.09 347.38Z" fill="#263238"/>
<path d="M51.5 350.61C51.6 350.68 51.31 351.27 50.85 351.92C50.39 352.57 49.94 353.05 49.85 352.98C49.76 352.91 50.04 352.33 50.49 351.67C50.94 351.01 51.4 350.54 51.5 350.61Z" fill="#263238"/>
<path d="M56.31 359C56.31 359.12 55.74 359.47 54.94 359.8C54.14 360.13 53.44 360.3 53.4 360.19C53.36 360.08 53.97 359.72 54.77 359.4C55.57 359.08 56.27 358.86 56.31 359Z" fill="#263238"/>
<path d="M59.23 367.57C58.7008 368.029 58.0457 368.318 57.35 368.4C56.6834 368.616 55.9696 368.64 55.29 368.47C55.9316 368.216 56.6041 368.047 57.29 367.97C57.918 367.758 58.5695 367.624 59.23 367.57V367.57Z" fill="#263238"/>
<path d="M45.83 365.13C45.72 365.13 45.83 364.5 46.02 363.8C46.21 363.1 46.51 362.57 46.62 362.61C46.73 362.65 46.62 363.24 46.43 363.94C46.24 364.64 46 365.17 45.83 365.13Z" fill="#263238"/>
<path d="M47.7 375.93C47.7404 375.3 47.9252 374.687 48.24 374.14C48.65 373.2 49.07 372.48 49.18 372.53C49.1395 373.16 48.9548 373.773 48.64 374.32C48.23 375.26 47.81 376 47.7 375.93Z" fill="#263238"/>
<path d="M43.08 378.89C42.4907 378.876 41.9098 378.747 41.37 378.51C40.46 378.22 39.72 377.96 39.75 377.84C40.3452 377.764 40.95 377.85 41.5 378.09C42.43 378.38 43.13 378.78 43.08 378.89Z" fill="#263238"/>
<path d="M45.74 387.69C45.81 387.79 45.3 388.27 44.61 388.77C43.92 389.27 43.28 389.59 43.21 389.5C43.14 389.41 43.65 388.91 44.35 388.41C45.05 387.91 45.67 387.59 45.74 387.69Z" fill="#263238"/>
<path d="M47.88 396.47C47.88 396.58 47.28 396.84 46.47 397.03C45.66 397.22 44.99 397.29 44.96 397.18C44.93 397.07 45.56 396.81 46.37 396.61C47.18 396.41 47.85 396.35 47.88 396.47Z" fill="#263238"/>
<path d="M59.47 374.91C59.53 375.01 58.99 375.44 58.21 375.73C57.43 376.02 56.73 376.06 56.71 375.95C56.69 375.84 57.31 375.61 58.05 375.32C58.79 375.03 59.41 374.8 59.47 374.91Z" fill="#263238"/>
<path d="M61.12 388.56C61.07 388.67 60.43 388.48 59.69 388.13C58.95 387.78 58.39 387.41 58.44 387.3C58.49 387.19 59.14 387.39 59.88 387.73C60.62 388.07 61.18 388.45 61.12 388.56Z" fill="#263238"/>
<path d="M64.05 398.34C63.3877 398.307 62.7401 398.133 62.15 397.83C61.15 397.44 60.38 397.03 60.42 396.91C61.0791 396.944 61.7233 397.118 62.31 397.42C63.31 397.81 64.09 398.22 64.05 398.34Z" fill="#263238"/>
<path d="M48.35 406C48.29 405.89 49.07 405.37 49.97 404.66C50.87 403.95 51.57 403.31 51.66 403.4C51.75 403.49 51.18 404.26 50.24 405C49.717 405.505 49.0618 405.852 48.35 406V406Z" fill="#263238"/>
<path d="M56.07 401C55.95 401 55.78 400.36 55.48 399.6C55.18 398.84 54.88 398.23 54.98 398.16C55.08 398.09 55.58 398.61 55.89 399.44C56.2 400.27 56.19 401 56.07 401Z" fill="#263238"/>
<path d="M54 389.27C53.93 389.37 53.43 389.13 52.88 388.74C52.33 388.35 51.95 387.95 52.02 387.85C52.09 387.75 52.59 387.99 53.14 388.38C53.69 388.77 54.1 389.17 54 389.27Z" fill="#263238"/>
<path d="M72 370.85C72.07 370.95 71.58 371.43 70.91 371.92C70.24 372.41 69.64 372.74 69.57 372.64C69.5 372.54 69.98 372.07 70.65 371.57C71.32 371.07 72 370.75 72 370.85Z" fill="#263238"/>
<path d="M74.75 378.27C74.75 378.39 74 378.55 73.06 378.45C72.12 378.35 71.41 378.03 71.44 377.92C71.47 377.81 72.21 377.92 73.11 378.01C74.01 378.1 74.74 378.15 74.75 378.27Z" fill="#263238"/>
<path d="M63.08 379.94C63.08 380.05 62.41 380.3 61.49 380.36C60.57 380.42 59.85 380.27 59.86 380.15C59.87 380.03 60.59 379.99 61.47 379.93C62.35 379.87 63.06 379.82 63.08 379.94Z" fill="#263238"/>
<path d="M64.09 372.92C64.09 373.04 63.37 373.06 62.59 372.69C61.81 372.32 61.36 371.79 61.44 371.69C61.52 371.59 62.06 371.97 62.77 372.29C63.48 372.61 64.1 372.8 64.09 372.92Z" fill="#263238"/>
<path d="M75.75 386.24C75.69 386.34 74.96 386 74.12 385.47C73.28 384.94 72.66 384.47 72.73 384.33C72.8 384.19 73.52 384.58 74.36 385.1C75.2 385.62 75.82 386.14 75.75 386.24Z" fill="#263238"/>
<path d="M104.22 407.06H41.97V418.09H104.22V407.06Z" fill="#315399"/>
<path d="M46.62 415.91L54.19 448.88H91.29L99.57 415.91H46.62Z" fill="#315399"/>
<path d="M104.19 418.11C104.19 418.23 90.19 418.33 72.83 418.33C55.47 418.33 41.47 418.23 41.47 418.11C41.47 417.99 55.47 417.89 72.83 417.89C90.19 417.89 104.19 418 104.19 418.11Z" fill="#263238"/>
<path d="M69.57 380.18C69.47 380.24 69.04 379.75 68.62 379.07C68.2 378.39 67.94 377.79 68.04 377.73C68.14 377.67 68.57 378.16 68.99 378.84C69.41 379.52 69.67 380.11 69.57 380.18Z" fill="#263238"/>
<path d="M69.59 389.05C69.56 388.475 69.6734 387.901 69.92 387.38C70.21 386.49 70.55 385.8 70.66 385.84C70.6908 386.419 70.5774 386.996 70.33 387.52C70 388.4 69.71 389.09 69.59 389.05Z" fill="#263238"/>
<path d="M72.63 398.37C72.52 398.43 72.06 397.68 71.63 396.71C71.285 396.147 71.0666 395.516 70.99 394.86C71.1 394.8 71.56 395.55 71.99 396.52C72.335 397.083 72.5534 397.714 72.63 398.37V398.37Z" fill="#263238"/>
<path d="M66.06 405.87C65.97 405.79 66.34 405.22 66.89 404.58C67.44 403.94 67.95 403.5 68.05 403.58C68.15 403.66 67.77 404.24 67.22 404.87C66.67 405.5 66.15 406 66.06 405.87Z" fill="#263238"/>
<path d="M64.68 392.26C64.68 392.38 64.06 392.37 63.34 392.26C62.62 392.15 62.06 391.94 62.08 391.82C62.1 391.7 62.7 391.71 63.41 391.82C64.12 391.93 64.7 392.14 64.68 392.26Z" fill="#263238"/>
<path d="M281.25 331.24H133.63V448.96H281.25V331.24Z" fill="#E0E0E0"/>
<g opacity="0.3">
<path d="M144.38 331.48C161.76 337.68 180.93 339.01 199.58 339.36C203.45 339.43 207.36 339.42 211.1 340.36C214.84 341.3 218.45 343.43 220.37 346.78C222.46 350.43 222.24 355 221.05 359.03C219.86 363.06 217.81 366.79 216.33 370.72C213.71 377.673 212.908 385.18 214 392.53C214.336 395.661 215.39 398.672 217.08 401.33C217.936 402.65 219.089 403.752 220.447 404.547C221.805 405.343 223.33 405.809 224.9 405.91C230.51 405.99 234.35 400.48 237.13 395.6C248.54 375.6 260.88 352.9 268.18 331.07L144.38 331.48Z" fill="black"/>
</g>
<path d="M183.93 448.33C183.78 448.33 183.67 422.24 183.67 390.06C183.67 357.88 183.78 331.78 183.93 331.78C184.08 331.78 184.19 357.87 184.19 390.06C184.19 422.25 184.07 448.33 183.93 448.33Z" fill="#455A64"/>
<path d="M244.42 244.24C243.98 241.3 235.2 231.6 235.2 231.6C235.2 231.6 230.82 213.99 229.5 208.8C229.061 207.3 228.418 205.866 227.59 204.54C224.485 199.368 220.07 195.108 214.79 192.19L202.64 185.36L199.74 178.9L170.56 163.9L162.65 177.9C162.65 177.9 143.44 184 140.9 188.33C138.36 192.66 142.16 251.13 142.16 251.13C142.16 251.13 134.16 284.85 132.43 291.83C130.7 298.81 132.97 307.13 132.97 307.13L147.28 289.18C151.73 283.6 161.49 281.03 168.5 281.13L228.41 281.4L226 264.62L274.47 274C274.47 274 282.8 257.74 283.47 257.42C284.14 257.1 244.42 244.24 244.42 244.24Z" fill="#315399"/>
<path d="M169.32 183.35C168.9 182.92 172.7 195.77 177.48 208.86C180.052 215.934 181.361 223.404 181.35 230.93V278.33L210.07 276.38L205.78 245.16C205.78 245.16 202.28 225.02 201.3 217.36C200.4 210.36 197.3 191.36 197.3 191.36C197.3 191.36 181.35 195.6 169.32 183.35Z" fill="white"/>
<path d="M233.06 256C233.015 255.759 233.015 255.511 233.06 255.27C233.126 254.616 233.253 253.97 233.44 253.34C234.047 251.237 235.175 249.321 236.72 247.77C238.273 246.224 240.188 245.089 242.29 244.47C242.92 244.283 243.566 244.156 244.22 244.09C244.458 244.045 244.702 244.045 244.94 244.09C244.94 244.18 243.94 244.29 242.4 244.82C240.401 245.506 238.586 246.64 237.094 248.136C235.601 249.632 234.471 251.45 233.79 253.45C233.26 255 233.15 256 233.06 256Z" fill="#263238"/>
<path d="M234.54 244.64C235.874 243.857 237.384 243.42 238.93 243.37C240.461 243.158 242.021 243.344 243.46 243.91C243.46 244.07 241.46 243.68 238.97 243.91C236.48 244.14 234.6 244.79 234.54 244.64Z" fill="#263238"/>
<g opacity="0.3">
<path d="M139.27 270.51L136.77 273.33C139.377 276.548 142.91 278.887 146.89 280.03C150.902 280.881 155.001 281.251 159.1 281.13C160.761 281.21 162.424 281.052 164.04 280.66C165.67 280.19 167.18 279.27 168.87 279.17C170.003 279.175 171.131 279.337 172.22 279.65C173.316 279.961 174.475 279.978 175.58 279.7C176.127 279.552 176.612 279.232 176.963 278.787C177.314 278.343 177.513 277.796 177.53 277.23C165.063 273.586 152.232 271.333 139.27 270.51V270.51Z" fill="black"/>
</g>
<path d="M221.27 274.13L214.27 266.65L199.72 263C199.72 263 186.44 267 186.12 267C185.8 267 174.56 263.92 174.56 263.92L170.63 278.34L190.88 279.73L214 278.8C214 278.8 215.21 277.68 214.49 276.91C213.77 276.14 218.36 278.21 218.9 278.23C219.44 278.25 220.48 278.67 221.2 277.81C221.69 277.17 222.35 275.28 221.27 274.13Z" fill="#FFBE9D"/>
<path d="M214.49 276.86C213.705 276.712 212.935 276.491 212.19 276.2C210.79 275.76 208.84 275.2 206.67 274.6C204.5 274 202.5 273.6 201.05 273.35C200.257 273.246 199.476 273.062 198.72 272.8C199.521 272.765 200.323 272.825 201.11 272.98C203.023 273.247 204.919 273.621 206.79 274.1C208.664 274.575 210.507 275.163 212.31 275.86C213.076 276.099 213.809 276.435 214.49 276.86V276.86Z" fill="#EB996E"/>
<path d="M221.27 274.13C220.18 273.854 219.105 273.52 218.05 273.13C216.05 272.47 213.32 271.65 210.25 270.8C207.18 269.95 204.46 268.98 202.39 268.86C201.275 268.803 200.157 268.846 199.05 268.99C199.321 268.841 199.615 268.74 199.92 268.69C200.737 268.513 201.575 268.446 202.41 268.49C204.55 268.49 207.41 269.4 210.41 270.3C213.41 271.2 216.23 272.03 218.19 272.79C219.19 273.16 219.94 273.5 220.48 273.74C220.761 273.83 221.027 273.962 221.27 274.13V274.13Z" fill="#EB996E"/>
<path d="M140.9 188.33C140.9 188.33 130.45 195.6 127.9 206.06C125.35 216.52 114.34 259.27 116.6 265.66C118.86 272.05 162.8 278.33 162.8 278.33L168.01 256.33L145.69 250.22C145.69 250.22 145.98 229.87 146.26 221.44C146.54 213.01 140.9 188.33 140.9 188.33Z" fill="#315399"/>
<path d="M167.73 259.64L174.92 261.41L170.59 277.99L163.53 276.86L167.73 259.64Z" fill="white"/>
<path d="M116.44 263.4C116.44 263.4 116.44 263.77 116.55 264.4C116.793 265.367 117.327 266.236 118.08 266.89C119.99 268.67 123.64 270.15 128.26 270.98C130.37 271.68 132.78 272.23 135.35 272.81C137.92 273.39 140.7 273.98 143.62 274.57C149.47 275.77 155.94 277.03 162.8 278.31L162.5 278.5C162.99 276.5 163.5 274.31 164.05 272.12C165.28 267.12 166.48 262.2 167.61 257.57L167.79 257.87L148 252.26C145.268 251.11 142.311 250.59 139.35 250.74C137.1 250.865 134.889 251.387 132.82 252.28C131.505 252.849 130.249 253.546 129.07 254.36L128.16 255.02C128.061 255.1 127.953 255.171 127.84 255.23C127.84 255.23 127.93 255.13 128.12 254.97C128.31 254.81 128.6 254.56 129 254.26C130.161 253.399 131.412 252.665 132.73 252.07C134.812 251.126 137.048 250.567 139.33 250.42C142.343 250.228 145.36 250.727 148.15 251.88V251.88L168 257.44L168.24 257.5L168.18 257.74C167.05 262.37 165.86 267.25 164.64 272.3C164.1 274.48 163.58 276.64 163.08 278.67L163.02 278.91H162.78C155.92 277.62 149.46 276.34 143.61 275.12C140.69 274.51 137.92 273.9 135.34 273.3C132.76 272.7 130.34 272.13 128.22 271.4C123.54 270.51 119.89 268.97 117.96 267.1C117.195 266.412 116.669 265.498 116.46 264.49C116.388 264.131 116.381 263.762 116.44 263.4Z" fill="#263238"/>
<path d="M146.91 251.71C146.85 251.78 146.1 251.09 144.76 250.2C141.251 247.85 137.102 246.638 132.88 246.73C131.26 246.73 130.27 246.95 130.25 246.86C131.088 246.557 131.969 246.391 132.86 246.37C137.199 246.055 141.506 247.308 145 249.9C145.732 250.394 146.378 251.005 146.91 251.71Z" fill="#263238"/>
<path d="M149.84 215.91C149.877 216.356 149.877 216.804 149.84 217.25C149.84 218.12 149.75 219.36 149.63 220.9C149.38 223.97 148.93 228.2 148.12 232.84C147.487 236.81 146.561 240.727 145.35 244.56C145.11 245.29 144.85 245.95 144.64 246.56L144 248C143.813 248.41 143.581 248.799 143.31 249.16C143.435 248.731 143.603 248.316 143.81 247.92C143.98 247.49 144.16 247 144.37 246.46C144.58 245.92 144.78 245.22 145 244.46C146.093 240.613 146.964 236.707 147.61 232.76C148.41 228.14 148.92 223.93 149.26 220.87C149.41 219.42 149.54 218.21 149.64 217.25C149.653 216.797 149.72 216.347 149.84 215.91V215.91Z" fill="#263238"/>
<path d="M175.32 204.58C175.32 204.58 175.22 204.31 174.98 203.84C174.624 203.174 174.105 202.609 173.47 202.2C173.001 201.878 172.464 201.667 171.901 201.584C171.337 201.501 170.763 201.547 170.22 201.72C169.532 201.955 168.918 202.366 168.437 202.911C167.957 203.457 167.627 204.118 167.48 204.83L167.34 205.54L167.03 204.88C165.86 202.37 164.842 199.792 163.98 197.16C162.452 192.776 161.688 188.162 161.72 183.52C161.72 182.63 161.84 181.83 161.89 181.12C161.94 180.41 162.1 179.82 162.21 179.34C162.316 178.835 162.463 178.34 162.65 177.86C162.309 179.728 162.118 181.621 162.08 183.52C162.162 188.111 162.969 192.66 164.47 197C165.333 199.612 166.334 202.175 167.47 204.68L167.02 204.74C167.193 203.954 167.569 203.226 168.111 202.631C168.654 202.036 169.343 201.594 170.11 201.35C170.705 201.17 171.334 201.132 171.947 201.238C172.56 201.344 173.14 201.591 173.64 201.96C174.29 202.417 174.802 203.043 175.12 203.77C175.207 203.962 175.271 204.163 175.31 204.37C175.33 204.5 175.34 204.58 175.32 204.58Z" fill="#263238"/>
<path d="M199.7 206.83C199.593 206.44 199.516 206.042 199.47 205.64C199.251 204.538 199.181 203.411 199.26 202.29C199.485 200.565 200.344 198.986 201.67 197.86C202.49 197.185 203.518 196.814 204.58 196.81C205.159 196.803 205.732 196.922 206.26 197.159C206.789 197.395 207.259 197.744 207.64 198.18L207.2 198.44L206.25 196.05C204.38 191.34 202.72 187.05 201.54 183.96L200.17 180.27C199.98 179.829 199.835 179.37 199.74 178.9C199.986 179.313 200.194 179.749 200.36 180.2C200.76 181.2 201.27 182.37 201.89 183.83C203.16 186.9 204.89 191.15 206.74 195.83L207.68 198.23L208.29 199.77L207.29 198.48C206.96 198.097 206.549 197.791 206.088 197.584C205.627 197.376 205.126 197.273 204.62 197.28C203.668 197.274 202.743 197.595 202 198.19C200.75 199.235 199.917 200.693 199.65 202.3C199.542 203.395 199.562 204.499 199.71 205.59C199.758 206.002 199.754 206.419 199.7 206.83Z" fill="#263238"/>
<path d="M218.25 209.31C218.39 209.31 220.65 224.49 223.3 243.26C225.95 262.03 227.97 277.26 227.83 277.26C227.69 277.26 225.43 262.08 222.78 243.26C220.13 224.44 218.11 209.33 218.25 209.31Z" fill="#263238"/>
<g opacity="0.3">
<path d="M164.28 197.32C164.402 201.209 165.246 205.04 166.77 208.62C167.86 207.27 169.07 205.85 170.77 205.45C172.83 204.96 174.92 206.23 176.41 207.79C176.152 206.23 175.536 204.752 174.61 203.47C174.148 202.84 173.546 202.326 172.852 201.966C172.159 201.607 171.391 201.414 170.61 201.4C169.831 201.418 169.081 201.696 168.478 202.188C167.875 202.681 167.453 203.361 167.28 204.12L164.41 197.39" fill="black"/>
</g>
<path d="M147.39 208.31C147.3 208.31 147.33 207.26 147.03 205.63C146.619 203.506 145.793 201.484 144.6 199.68C143.928 198.703 143.161 197.795 142.31 196.97C141.605 196.302 140.838 195.703 140.02 195.18C138.61 194.29 137.62 193.95 137.66 193.86C137.905 193.878 138.146 193.939 138.37 194.04C138.65 194.115 138.921 194.219 139.18 194.35C139.526 194.499 139.86 194.672 140.18 194.87C141.05 195.362 141.864 195.945 142.61 196.61C143.507 197.446 144.308 198.378 145 199.39C146.239 201.247 147.046 203.359 147.36 205.57C147.46 206.232 147.493 206.902 147.46 207.57C147.46 208.05 147.43 208.31 147.39 208.31Z" fill="#263238"/>
<path d="M205.44 137C204.869 131.645 202.303 126.702 198.252 123.153C194.201 119.605 188.963 117.712 183.58 117.85H182.47C170.52 118.85 164.7 129.56 166.04 141.47L169.32 183.37L170.71 185.07C173.831 188.904 178.132 191.597 182.943 192.732C187.754 193.866 192.806 193.376 197.31 191.34V191.34L196.39 177.86C196.39 177.86 207.85 175.78 207.69 164.28C207.62 158.7 206.54 147.28 205.44 137Z" fill="#FFBE9D"/>
<path d="M196.48 177.83C191.144 177.978 185.879 176.59 181.31 173.83C181.31 173.83 185.06 182.02 196.51 180.69L196.48 177.83Z" fill="#EB996E"/>
<path d="M201.8 146.46C201.811 146.887 201.658 147.302 201.371 147.619C201.084 147.935 200.686 148.129 200.26 148.16C200.052 148.181 199.841 148.16 199.641 148.098C199.441 148.037 199.255 147.936 199.094 147.802C198.933 147.668 198.8 147.503 198.703 147.318C198.606 147.132 198.548 146.929 198.53 146.72C198.516 146.292 198.669 145.876 198.956 145.559C199.244 145.241 199.643 145.048 200.07 145.02C200.279 144.998 200.49 145.018 200.69 145.079C200.891 145.14 201.078 145.24 201.239 145.375C201.4 145.509 201.533 145.674 201.629 145.861C201.726 146.047 201.784 146.251 201.8 146.46Z" fill="#263238"/>
<path d="M202.53 140.21C202.4 140.41 201.1 140.55 199.53 141.39C197.96 142.23 197.04 143.28 196.83 143.26C196.62 143.24 196.83 142.97 197.22 142.5C197.818 141.837 198.529 141.285 199.32 140.87C200.075 140.448 200.903 140.173 201.76 140.06C202.35 140 202.6 140.11 202.53 140.21Z" fill="#263238"/>
<path d="M185.2 147.33C185.219 147.759 185.068 148.178 184.78 148.497C184.491 148.815 184.089 149.007 183.66 149.03C183.451 149.052 183.24 149.032 183.04 148.971C182.839 148.91 182.652 148.81 182.491 148.675C182.33 148.541 182.197 148.376 182.101 148.189C182.004 148.003 181.946 147.799 181.93 147.59C181.916 147.162 182.069 146.746 182.356 146.429C182.644 146.111 183.043 145.918 183.47 145.89C183.679 145.868 183.89 145.888 184.09 145.949C184.291 146.01 184.478 146.11 184.639 146.245C184.8 146.379 184.933 146.544 185.029 146.731C185.126 146.917 185.184 147.121 185.2 147.33V147.33Z" fill="#263238"/>
<path d="M185 142.62C184.77 142.62 183.7 141.95 182 141.53C180.3 141.11 178.89 141.2 178.74 141.06C178.59 140.92 178.92 140.86 179.53 140.81C180.421 140.753 181.315 140.838 182.18 141.06C183.017 141.259 183.815 141.597 184.54 142.06C184.94 142.38 185.06 142.6 185 142.62Z" fill="#263238"/>
<path d="M191.88 156.35C192.807 156.041 193.767 155.843 194.74 155.76C195.19 155.76 195.61 155.6 195.68 155.29C195.708 154.827 195.593 154.366 195.35 153.97L193.92 150.56C191.92 145.72 190.5 141.73 190.7 141.66C190.9 141.59 192.7 145.44 194.63 150.28C195.11 151.48 195.57 152.62 196 153.71C196.295 154.246 196.394 154.869 196.28 155.47C196.218 155.631 196.12 155.776 195.993 155.894C195.867 156.012 195.715 156.099 195.55 156.15C195.304 156.227 195.048 156.271 194.79 156.28C193.827 156.428 192.849 156.452 191.88 156.35Z" fill="#263238"/>
<path d="M185 135.8C184.8 136.27 183.05 135.96 181 136.1C178.95 136.24 177.21 136.74 177 136.29C176.88 136.08 177.2 135.64 177.89 135.21C178.818 134.682 179.855 134.373 180.921 134.307C181.987 134.241 183.054 134.42 184.04 134.83C184.7 135.18 185.06 135.57 185 135.8Z" fill="#263238"/>
<path d="M202.49 136.19C202.1 136.6 200.58 136.19 198.76 136.19C196.94 136.19 195.39 136.5 195.03 136.08C194.87 135.88 195.11 135.47 195.78 135.08C196.704 134.596 197.737 134.358 198.78 134.39C199.831 134.383 200.866 134.652 201.78 135.17C202.44 135.58 202.66 136 202.49 136.19Z" fill="#263238"/>
<path d="M208.79 126.78C208.689 126.255 208.399 125.785 207.975 125.459C207.552 125.133 207.023 124.973 206.49 125.01C207.065 124.846 207.602 124.571 208.07 124.2C208.303 124.012 208.478 123.762 208.575 123.479C208.673 123.196 208.688 122.891 208.62 122.6C208.32 121.71 207.18 121.52 206.28 121.27C205.099 120.927 204.051 120.228 203.28 119.27C202.19 117.89 201.77 116.09 200.82 114.6C200.206 113.638 199.385 112.826 198.416 112.224C197.447 111.621 196.355 111.244 195.221 111.119C194.087 110.994 192.94 111.125 191.863 111.503C190.786 111.88 189.808 112.494 189 113.3C188.118 112.393 187.032 111.71 185.832 111.307C184.633 110.904 183.354 110.794 182.103 110.984C180.852 111.175 179.665 111.662 178.64 112.403C177.615 113.145 176.782 114.121 176.21 115.25C174.676 114.61 172.998 114.395 171.352 114.626C169.706 114.857 168.153 115.527 166.854 116.564C165.556 117.602 164.561 118.97 163.972 120.524C163.384 122.079 163.224 123.763 163.51 125.4L170.67 129.79C170.728 129.245 170.901 128.719 171.178 128.247C171.454 127.774 171.828 127.365 172.274 127.048C172.72 126.73 173.228 126.511 173.766 126.404C174.303 126.298 174.856 126.307 175.39 126.43C177.55 127.06 178.93 129.56 181.17 129.73C182.92 129.86 184.41 128.51 186.1 128.06C188.15 127.51 190.32 128.33 192.17 129.37C194.02 130.41 195.79 131.71 197.85 132.23C200.311 132.723 202.865 132.418 205.14 131.36C206.15 131.006 207.072 130.436 207.84 129.69C208.219 129.316 208.503 128.856 208.668 128.35C208.833 127.844 208.875 127.306 208.79 126.78Z" fill="#263238"/>
<path d="M171.88 126.41L204.68 126.23C203.497 124.026 201.777 122.155 199.68 120.79C195.324 117.607 190.075 115.882 184.68 115.86C179.33 115.86 168.63 122.73 164.86 126.52C161.86 129.52 161.94 132.11 161.94 132.11C161.56 136.37 164.07 141.11 165.14 145.28C165.68 147.42 166.81 153.9 166.81 153.9C168.61 153.85 169.24 152.39 168.92 150.61L168.39 143.61C170.16 142.133 171.4 140.12 171.921 137.875C172.443 135.63 172.218 133.276 171.28 131.17C170.83 130.55 169.75 127.66 171.88 126.41Z" fill="#263238"/>
<path d="M167.92 143.15C166.25 137.35 164.71 131.15 166.49 125.35H165.49L165.09 125.64C164.165 125.329 163.166 125.321 162.236 125.617C161.307 125.913 160.495 126.497 159.92 127.285C159.345 128.073 159.036 129.024 159.038 129.999C159.04 130.975 159.352 131.924 159.93 132.71C158.955 132.701 158.01 133.049 157.274 133.688C156.537 134.327 156.059 135.213 155.93 136.18C155.933 137.527 156.303 138.847 157 140C157.698 141.156 158.126 142.455 158.25 143.8C158.292 144.47 158.096 145.133 157.698 145.672C157.299 146.212 156.723 146.594 156.07 146.75C156.386 147.432 156.928 147.985 157.603 148.314C158.279 148.644 159.048 148.731 159.78 148.56C159.313 149.7 158.533 150.685 157.53 151.4C159.67 152.86 162.6 152.4 164.92 151.23C166.359 150.651 167.534 149.562 168.22 148.17C168.86 146.56 168.38 144.79 167.92 143.15Z" fill="#263238"/>
<path d="M167.38 149.92C167.18 149.84 159.38 147.79 159.87 155.64C160.36 163.49 168.12 161.42 168.12 161.19C168.12 160.96 167.38 149.92 167.38 149.92Z" fill="#FFBE9D"/>
<path d="M166.24 158.34C166.24 158.34 166.11 158.44 165.88 158.56C165.569 158.714 165.211 158.743 164.88 158.64C164.03 158.38 163.26 157.11 163.14 155.69C163.079 155.012 163.172 154.328 163.41 153.69C163.474 153.438 163.598 153.205 163.772 153.011C163.947 152.818 164.166 152.67 164.41 152.58C164.565 152.532 164.732 152.538 164.883 152.598C165.034 152.658 165.16 152.768 165.24 152.91C165.36 153.12 165.31 153.28 165.36 153.3C165.41 153.32 165.52 153.15 165.44 152.83C165.376 152.643 165.257 152.48 165.1 152.36C164.989 152.283 164.864 152.229 164.731 152.201C164.599 152.174 164.462 152.173 164.33 152.2C164.012 152.284 163.72 152.447 163.482 152.674C163.244 152.902 163.068 153.186 162.97 153.5C162.681 154.202 162.562 154.963 162.62 155.72C162.77 157.3 163.62 158.72 164.82 159C165.033 159.047 165.254 159.046 165.466 158.998C165.679 158.949 165.878 158.854 166.05 158.72C166.24 158.53 166.27 158.35 166.24 158.34Z" fill="#EB996E"/>
<path d="M159.23 143.41C159.23 143.41 159.01 143.11 159.08 142.49C159.164 142.069 159.339 141.672 159.593 141.327C159.847 140.981 160.174 140.695 160.55 140.49C161.677 139.954 162.903 139.657 164.15 139.62C164.848 139.62 165.536 139.455 166.158 139.139C166.78 138.823 167.319 138.364 167.73 137.8C168.383 136.528 168.601 135.077 168.35 133.67C168.16 132.35 167.81 131.16 167.64 130.13C167.323 129.026 167.341 127.854 167.69 126.76C167.697 127.863 167.821 128.963 168.06 130.04C168.28 131.04 168.67 132.21 168.91 133.6C169.212 135.138 168.979 136.733 168.25 138.12C167.816 138.837 167.159 139.392 166.38 139.7C165.682 139.959 164.952 140.12 164.21 140.18C163.027 140.187 161.857 140.418 160.76 140.86C160.417 141.037 160.112 141.28 159.863 141.575C159.614 141.87 159.426 142.212 159.31 142.58C159.265 142.855 159.238 143.132 159.23 143.41V143.41Z" fill="#455A64"/>
<path d="M157.33 140C157.33 140 157.16 139.78 157.09 139.29C157.009 138.599 157.145 137.9 157.48 137.29C157.71 136.857 158.026 136.475 158.41 136.17C158.859 135.833 159.373 135.595 159.92 135.47C160.45 135.356 160.955 135.146 161.41 134.85C161.611 134.67 161.768 134.447 161.871 134.198C161.973 133.948 162.017 133.679 162 133.41C162 132.82 161.93 132.19 161.95 131.56C161.958 130.958 162.025 130.359 162.15 129.77C162.352 128.775 162.735 127.826 163.28 126.97C163.453 126.656 163.702 126.39 164.004 126.196C164.307 126.002 164.652 125.887 165.01 125.86C165.53 125.86 165.75 126.1 165.73 126.12C165.71 126.14 165.47 126.03 165.03 126.12C164.729 126.184 164.448 126.317 164.206 126.508C163.965 126.698 163.772 126.942 163.64 127.22C163.189 128.059 162.871 128.963 162.7 129.9C162.603 130.455 162.553 131.017 162.55 131.58C162.55 132.16 162.64 132.78 162.61 133.46C162.625 133.816 162.557 134.171 162.413 134.496C162.27 134.822 162.053 135.111 161.78 135.34C161.264 135.686 160.682 135.921 160.07 136.03C159.615 136.108 159.181 136.282 158.798 136.541C158.415 136.799 158.092 137.137 157.85 137.53C157.439 138.285 157.258 139.144 157.33 140V140Z" fill="#455A64"/>
<path d="M203.29 119.27C203.34 119.27 202.7 119.7 201.67 119.22C201.09 118.905 200.582 118.473 200.18 117.95C199.684 117.3 199.066 116.753 198.36 116.34C197.442 115.824 196.393 115.586 195.342 115.655C194.291 115.724 193.283 116.098 192.44 116.73C191.44 117.43 190.61 118.42 189.44 119.24C188.845 119.681 188.163 119.991 187.44 120.15C186.691 120.281 185.921 120.209 185.21 119.94C183.79 119.43 182.67 118.56 181.45 118.12C180.273 117.668 179.021 117.441 177.76 117.45C175.588 117.447 173.476 118.169 171.76 119.5C170.613 120.396 169.661 121.515 168.96 122.79C168.47 123.7 168.29 124.26 168.24 124.24C168.19 124.22 168.24 124.09 168.32 123.82C168.433 123.431 168.574 123.05 168.74 122.68C169.386 121.318 170.325 120.116 171.49 119.16C173.245 117.725 175.433 116.925 177.7 116.89C179.035 116.855 180.363 117.083 181.61 117.56C182.93 118.04 184.07 118.91 185.36 119.36C185.971 119.595 186.635 119.661 187.28 119.55C187.906 119.406 188.495 119.134 189.01 118.75C190.06 118 190.94 117.01 192.01 116.27C192.999 115.529 194.204 115.132 195.44 115.14C196.494 115.148 197.528 115.43 198.44 115.96C199.17 116.426 199.805 117.026 200.31 117.73C200.66 118.244 201.113 118.68 201.64 119.01C202.136 119.305 202.727 119.398 203.29 119.27Z" fill="#455A64"/>
<path d="M187.52 158.41C187.77 158.41 188.05 160.03 189.69 160.98C191.33 161.93 193.08 161.45 193.14 161.68C193.2 161.91 192.79 162.08 192.04 162.22C191.06 162.402 190.047 162.232 189.18 161.74C188.349 161.259 187.734 160.48 187.46 159.56C187.28 158.87 187.4 158.42 187.52 158.41Z" fill="#263238"/>
<path d="M291 314.66C287.955 312.044 284.005 310.73 280 311L273.24 332.47C278.19 332.69 283.13 335.24 287.91 333.93C289.819 333.341 291.52 332.219 292.811 330.695C294.103 329.171 294.932 327.31 295.2 325.33C295.408 323.345 295.135 321.339 294.404 319.482C293.673 317.625 292.505 315.971 291 314.66Z" fill="#315399"/>
<path d="M280.08 310.51C280.08 310.34 280.81 310.2 282.08 310.21C283.969 310.245 285.839 310.6 287.61 311.26C290.315 312.314 292.657 314.131 294.35 316.49C295.384 317.889 296.148 319.47 296.6 321.15C297.09 322.989 297.144 324.916 296.76 326.78C296.388 328.669 295.545 330.433 294.31 331.91C293.127 333.255 291.629 334.286 289.95 334.91C287.222 335.875 284.28 336.065 281.45 335.46C279.629 335.103 277.852 334.55 276.15 333.81C274.96 333.3 274.33 332.92 274.39 332.75C274.45 332.58 275.17 332.63 276.39 332.84C277.61 333.05 279.46 333.44 281.66 333.64C284.155 333.917 286.68 333.573 289.01 332.64C290.288 332.1 291.419 331.263 292.31 330.2C293.245 329.037 293.883 327.664 294.17 326.2C294.445 324.749 294.424 323.257 294.11 321.814C293.795 320.371 293.193 319.006 292.34 317.8C290.962 315.713 289.067 314.018 286.84 312.88C285.262 312.135 283.609 311.559 281.91 311.16C280.76 310.9 280.06 310.69 280.08 310.51Z" fill="#F5F5F5"/>
<path d="M217.45 391.06L202.75 432.25L253.9 450.8C255.38 445.8 232.47 426.4 232.47 426.4L242.97 400.4L217.45 391.06Z" fill="#315399"/>
<g opacity="0.6">
<path d="M217.46 418.45C216.913 418.421 216.375 418.594 215.949 418.938C215.522 419.281 215.238 419.77 215.15 420.31C215.101 420.854 215.262 421.395 215.601 421.823C215.94 422.251 216.43 422.533 216.97 422.61C217.553 422.641 218.126 422.453 218.578 422.083C219.029 421.713 219.326 421.188 219.41 420.61C219.41 419.52 218.33 418.27 217.25 418.42" fill="white"/>
</g>
<path d="M202.75 432.25L204.24 428.1L252.82 447.48C252.82 447.48 254.74 449.29 253.9 450.8L202.75 432.25Z" fill="white"/>
<path d="M233.4 426.44C233.3 426.69 232.01 426.35 230.49 426.71C228.97 427.07 227.93 427.88 227.74 427.71C227.55 427.54 228.44 426.22 230.29 425.82C232.14 425.42 233.53 426.23 233.4 426.44Z" fill="#263238"/>
<path d="M238 430.61C238 430.87 236.73 430.9 235.5 431.61C234.27 432.32 233.62 433.39 233.37 433.29C233.12 433.19 233.48 431.72 235.03 430.81C236.58 429.9 238 430.37 238 430.61Z" fill="#263238"/>
<path d="M238.67 438.13C238.43 438.13 238.53 436.73 239.67 435.59C240.81 434.45 242.17 434.34 242.2 434.59C242.23 434.84 241.25 435.3 240.33 436.25C239.41 437.2 238.93 438.2 238.67 438.13Z" fill="#263238"/>
<path d="M235.13 420.25C234.94 420.44 233.92 419.68 232.48 419.25C231.04 418.82 229.77 418.88 229.72 418.62C229.67 418.36 231.04 417.85 232.72 418.37C234.4 418.89 235.33 420.1 235.13 420.25Z" fill="#263238"/>
<path d="M236.11 413.74C235.191 413.659 234.311 413.335 233.56 412.8C232.693 412.304 231.893 411.699 231.18 411C230.753 410.592 230.356 410.154 229.99 409.69C229.76 409.427 229.571 409.13 229.43 408.81C229.33 408.573 229.311 408.31 229.378 408.061C229.446 407.813 229.594 407.594 229.8 407.44C229.988 407.311 230.203 407.228 230.429 407.197C230.654 407.166 230.884 407.187 231.1 407.26C231.424 407.377 231.731 407.538 232.01 407.74C232.51 408.074 232.978 408.452 233.41 408.87C234.133 409.57 234.74 410.38 235.21 411.27C235.724 412.049 235.986 412.967 235.96 413.9C235.82 413.9 235.52 412.95 234.65 411.6C234.134 410.824 233.522 410.115 232.83 409.49C232.42 409.123 231.982 408.788 231.52 408.49C231.03 408.15 230.57 407.98 230.35 408.17C230.13 408.36 230.24 408.28 230.3 408.48C230.404 408.716 230.542 408.935 230.71 409.13C231.038 409.574 231.395 409.995 231.78 410.39C232.429 411.074 233.142 411.693 233.91 412.24C235.23 413.19 236.17 413.61 236.11 413.74Z" fill="#263238"/>
<path d="M235.66 414C235.443 413.093 235.52 412.14 235.88 411.28C236.183 410.316 236.646 409.41 237.25 408.6C237.612 408.124 238.017 407.682 238.46 407.28C238.723 406.994 239.055 406.779 239.424 406.657C239.794 406.534 240.188 406.508 240.57 406.58C240.796 406.67 240.992 406.822 241.135 407.018C241.278 407.215 241.363 407.447 241.38 407.69C241.399 408.025 241.372 408.362 241.3 408.69C241.143 409.502 240.824 410.274 240.364 410.961C239.904 411.648 239.311 412.236 238.62 412.69C237.14 413.69 235.99 413.57 236 413.48C236.01 413.39 237 413.16 238.24 412.16C238.945 411.586 239.518 410.866 239.92 410.05C240.153 409.576 240.318 409.071 240.41 408.55C240.53 407.98 240.48 407.46 240.26 407.45C240.035 407.441 239.81 407.483 239.603 407.571C239.396 407.659 239.21 407.792 239.06 407.96C238.645 408.311 238.264 408.699 237.92 409.12C237.334 409.837 236.855 410.635 236.5 411.49C235.88 413 235.81 414 235.66 414Z" fill="#263238"/>
<path d="M167.9 281.06C160.14 281.24 152.78 282.33 147.43 287.96C140.34 295.43 131.58 306.06 131.08 313.43C130.34 324.43 136.99 327.73 141.84 330.43C143.985 331.59 146.403 332.153 148.84 332.06L238.52 331.38L241.33 316.19L183.33 301.89L185.74 280.06L167.9 281.06Z" fill="#263238"/>
<path d="M185.79 280.05L214 278.75C214 278.75 262.74 281.46 273.13 290.99C283.52 300.52 282.23 311.35 278.76 321.74C275.29 332.13 244.76 398.62 244.76 398.62C244.76 398.62 247.24 402.85 245.85 407.07C245.288 408.918 244.254 410.589 242.852 411.917C241.45 413.246 239.726 414.188 237.85 414.65L210.73 404.65C210.73 404.65 207.05 403.35 209.65 399.88C212.25 396.41 213.98 395.77 213.98 395.77V388.84C213.98 388.84 223.51 371.51 224.37 369.13C225.23 366.75 234.37 331.49 234.37 331.49L240.44 321.06C240.44 321.06 225.77 314.16 213.05 309.16L183.35 301.84L185.79 280.05Z" fill="#263238"/>
<path d="M231.55 403.43C230.729 402.953 229.935 402.432 229.17 401.87C225.339 399.388 221.023 397.748 216.51 397.06C215.563 396.968 214.622 396.828 213.69 396.64C214.641 396.53 215.603 396.547 216.55 396.69C221.176 397.184 225.595 398.865 229.38 401.57C230.182 402.092 230.912 402.717 231.55 403.43Z" fill="#455A64"/>
<path d="M245.1 398.67C244.509 398.185 243.981 397.627 243.53 397.01C242.61 395.94 241.39 394.42 240.12 392.68C238.85 390.94 237.75 389.33 237 388.14C236.553 387.517 236.177 386.847 235.88 386.14C236.417 386.683 236.893 387.283 237.3 387.93L240.54 392.37C241.75 394.01 242.86 395.49 243.82 396.78C244.314 397.362 244.743 397.995 245.1 398.67Z" fill="#455A64"/>
<path d="M255 311.58C255 311.66 254 311.88 252.43 312.4C248.319 313.757 244.594 316.082 241.57 319.18C240.98 319.861 240.356 320.512 239.7 321.13C240.123 320.322 240.662 319.581 241.3 318.93C242.755 317.287 244.439 315.862 246.3 314.7C248.16 313.529 250.182 312.636 252.3 312.05C253.171 311.758 254.081 311.599 255 311.58Z" fill="#455A64"/>
<path d="M227.3 358.66C227.312 358.459 227.349 358.261 227.41 358.07L227.83 356.42L229.45 350.37L235 330.46C236.13 326.57 237.09 322.87 238.18 319.51C239.331 316.59 241.07 313.939 243.29 311.72C244.755 310.217 246.378 308.876 248.13 307.72C248.76 307.32 249.25 307.02 249.6 306.84C249.768 306.734 249.945 306.643 250.13 306.57C250.13 306.57 249.45 307.03 248.25 307.88C246.556 309.09 244.982 310.459 243.55 311.97C241.409 314.18 239.735 316.799 238.63 319.67C237.63 322.98 236.63 326.73 235.5 330.6L229.81 350.46C229.07 352.95 228.46 354.98 228.02 356.46C227.81 357.12 227.65 357.66 227.51 358.08C227.466 358.282 227.396 358.477 227.3 358.66V358.66Z" fill="#455A64"/>
<path d="M202.35 307.87C202.2 307.87 201.61 302.61 201.02 296.09C200.43 289.57 200.02 284.27 200.22 284.26C200.42 284.25 200.95 289.52 201.54 296.04C202.13 302.56 202.49 307.86 202.35 307.87Z" fill="#455A64"/>
<path d="M155.39 322C155.31 322 154.88 321.19 153.99 319.94C152.841 318.314 151.463 316.863 149.9 315.63C148.324 314.413 146.583 313.427 144.73 312.7C143.3 312.14 142.37 311.93 142.39 311.84C143.232 311.879 144.062 312.052 144.85 312.35C148.761 313.639 152.101 316.248 154.3 319.73C154.785 320.422 155.154 321.189 155.39 322V322Z" fill="#455A64"/>
<path d="M172.67 302.8C172.67 302.88 171.43 302.12 169.36 301.17C163.929 298.703 157.905 297.842 152 298.69C149.75 299.01 148.38 299.41 148.36 299.32C148.651 299.156 148.964 299.034 149.29 298.96C150.159 298.691 151.044 298.477 151.94 298.32C157.912 297.272 164.063 298.155 169.5 300.84C170.315 301.242 171.103 301.697 171.86 302.2C172.157 302.361 172.429 302.563 172.67 302.8V302.8Z" fill="#455A64"/>
<path d="M240.23 316.16C239.989 316.148 239.751 316.108 239.52 316.04L237.52 315.61L230.22 314C224.05 312.62 215.51 310.76 206.04 308.89C196.57 307.02 187.97 305.47 181.74 304.4L174.35 303.13L172.35 302.78C172.114 302.752 171.882 302.695 171.66 302.61C171.898 302.617 172.135 302.637 172.37 302.67L174.37 302.93C176.12 303.17 178.65 303.55 181.78 304.04C188.03 305.04 196.65 306.5 206.13 308.38C215.61 310.26 224.13 312.17 230.29 313.64C233.36 314.38 235.85 315 237.56 315.45L239.56 315.97C239.789 316.013 240.013 316.077 240.23 316.16V316.16Z" fill="#455A64"/>
<path d="M183.38 304.45C183.28 304.45 183.07 303.27 182.14 301.59C181.596 300.621 180.923 299.729 180.14 298.94C179.152 297.967 178.104 297.059 177 296.22C174.967 294.718 172.816 293.38 170.57 292.22C169.62 291.768 168.704 291.247 167.83 290.66C168.836 290.978 169.811 291.39 170.74 291.89C173.061 292.966 175.265 294.276 177.32 295.8C178.439 296.653 179.495 297.586 180.48 298.59C181.283 299.422 181.957 300.369 182.48 301.4C182.839 302.097 183.111 302.836 183.29 303.6C183.372 303.875 183.403 304.164 183.38 304.45V304.45Z" fill="#455A64"/>
<path d="M283.27 318C283.38 318.12 281.88 319.63 280.71 321.94C279.54 324.25 279.16 326.33 279.01 326.3C279.007 324.684 279.435 323.096 280.25 321.7C280.913 320.222 281.955 318.946 283.27 318V318Z" fill="#263238"/>
<g opacity="0.3">
<path d="M219.08 215.54L225.5 260.76L225.82 261.48C227.326 245.847 225.013 230.082 219.08 215.54Z" fill="black"/>
</g>
<path d="M253.65 241.52L232.78 278L181.35 279.12L181.22 281.45L231.02 281.08L232.6 281.02L285.18 281.13L295.81 262.8L309.39 243.34C309.586 243.051 309.7 242.714 309.72 242.366C309.739 242.017 309.663 241.669 309.499 241.361C309.335 241.052 309.091 240.794 308.791 240.614C308.492 240.434 308.149 240.34 307.8 240.34L255.31 240.54C254.971 240.543 254.64 240.634 254.348 240.807C254.057 240.979 253.816 241.225 253.65 241.52V241.52Z" fill="#E0E0E0"/>
<path d="M295.81 262.83C295.81 262.83 298.51 265.31 298.09 267.41C297.67 269.51 297.8 271.08 295.81 271.22C295.847 271.988 295.588 272.742 295.085 273.324C294.583 273.907 293.876 274.274 293.11 274.35C293.11 274.35 293.72 277.65 289.88 278.22C289.88 278.22 288.7 281.75 286.28 280.89C284.885 280.416 283.545 279.796 282.28 279.04L281.57 277.76C281.57 277.76 278 276.42 278.88 274.41C279.42 273.19 281.26 272.87 281.26 272.87C281.048 272.369 280.959 271.825 280.999 271.282C281.039 270.74 281.207 270.215 281.49 269.75C282.34 268.6 285.12 269.55 285.12 269.55C285.062 268.565 285.376 267.595 286 266.83C287 265.7 291.38 268.75 291.38 268.75L293.79 265.87L295.81 262.83Z" fill="#FFBE9D"/>
<path d="M289.88 278.22C288.321 277.556 286.833 276.735 285.44 275.77C283.956 274.951 282.562 273.979 281.28 272.87C282.838 273.54 284.325 274.364 285.72 275.33C287.2 276.151 288.594 277.119 289.88 278.22V278.22Z" fill="#EB996E"/>
<path d="M293.11 274.35C291.659 273.78 290.277 273.049 288.99 272.17C287.614 271.441 286.323 270.562 285.14 269.55C286.593 270.115 287.975 270.847 289.26 271.73C290.636 272.459 291.927 273.338 293.11 274.35V274.35Z" fill="#EB996E"/>
<path d="M288.71 267.11C288.79 266.96 290.44 267.83 292.36 269.05C293.55 269.737 294.696 270.499 295.79 271.33C295.72 271.5 294 270.72 292.08 269.49C290.876 268.817 289.746 268.02 288.71 267.11V267.11Z" fill="#EB996E"/>
<path d="M309.39 241.74C309.307 241.753 309.223 241.753 309.14 241.74H308.4H305.56L295.12 241.82L260.67 241.9H258.16C257.79 241.865 257.418 241.93 257.082 242.088C256.746 242.247 256.458 242.492 256.25 242.8C255.45 244.227 254.67 245.633 253.91 247.02L249.47 255.02L241.94 268.55C239.8 272.37 238.05 275.47 236.82 277.66C236.23 278.66 235.75 279.52 235.41 280.12L235.03 280.75L234.89 280.96C234.89 280.96 234.89 280.87 234.98 280.72L235.32 280.06L236.65 277.56L241.65 268.37L249.09 254.78C250.49 252.23 251.97 249.55 253.49 246.78L255.84 242.53C256.096 242.15 256.449 241.844 256.861 241.643C257.274 241.443 257.733 241.356 258.19 241.39H260.7L295.15 241.46L305.59 241.55L308.43 241.6H309.17C309.251 241.634 309.325 241.681 309.39 241.74Z" fill="#263238"/>
<path d="M272.39 260.09C272.147 260.441 272.011 260.855 271.998 261.282C271.984 261.709 272.094 262.131 272.315 262.496C272.535 262.862 272.856 263.157 273.239 263.345C273.623 263.533 274.052 263.606 274.476 263.556C274.901 263.506 275.301 263.335 275.63 263.063C275.96 262.791 276.204 262.43 276.333 262.023C276.462 261.616 276.471 261.18 276.359 260.768C276.246 260.356 276.018 259.985 275.7 259.7C275.208 259.316 274.585 259.142 273.965 259.215C273.345 259.288 272.779 259.602 272.39 260.09V260.09Z" fill="white"/>
<g opacity="0.3">
<path d="M126.39 246C125.95 246.18 125.44 246.48 125.44 247C125.456 247.193 125.537 247.376 125.669 247.517C125.802 247.659 125.978 247.751 126.17 247.78C126.904 247.676 127.622 247.485 128.31 247.21C133.72 246.02 138.17 247.16 143.31 249.21L143.48 249.04C141.44 244.61 132.21 243.63 126.39 246Z" fill="black"/>
</g>
<path d="M405 449C405 449.14 314.55 449.26 203 449.26C91.45 449.26 1 449.1 1 449C1 448.9 91.43 448.74 203 448.74C314.57 448.74 405 448.81 405 449Z" fill="#263238"/>
<path d="M98.42 130.21C98.59 130.38 131.8 118.97 131.8 118.97L119 89.67L89.47 101L105.73 110.34L98.42 130.21Z" fill="#455A64"/>
<path d="M114 98.49V58.6C114 58.6 159.81 50.22 192.82 50.72C225.83 51.22 259.82 56.63 259.82 56.63V94.93C259.82 94.93 156.36 85.69 114 98.49Z" fill="#455A64"/>
<path d="M113.76 98.53L131.76 119.14V94.93C131.76 94.93 116.71 96.73 113.76 98.53Z" fill="#263238"/>
<path d="M114 58.59C114.15 58.59 114.21 67.59 114.15 78.59C114.09 89.59 113.91 98.59 113.77 98.59C113.63 98.59 113.56 89.65 113.62 78.59C113.68 67.53 113.85 58.59 114 58.59Z" fill="#263238"/>
<path d="M275.32 127.15C275.15 127.32 241.94 115.91 241.94 115.91L254.71 86.6L284.27 97.91L268 107.25L275.32 127.15Z" fill="#455A64"/>
<path d="M260 95.47L242 116.08V93.62C248.035 93.8266 254.049 94.4447 260 95.47V95.47Z" fill="#263238"/>
<path d="M259.8 56.63C259.94 56.63 260.1 65.32 260.15 76.05C260.2 86.78 260.15 95.47 259.98 95.47C259.81 95.47 259.68 86.78 259.63 76.05C259.58 65.32 259.65 56.63 259.8 56.63Z" fill="#263238"/>
<path d="M139.83 76.09C139.736 74.9416 139.982 73.7908 140.538 72.7816C141.094 71.7724 141.935 70.9496 142.957 70.416C143.978 69.8824 145.134 69.6617 146.28 69.7816C147.426 69.9015 148.511 70.3566 149.4 71.09L148 72.77C147.623 72.426 147.175 72.1697 146.687 72.0193C146.2 71.8688 145.685 71.8281 145.18 71.9C144.284 72.0246 143.473 72.5003 142.928 73.2223C142.382 73.9443 142.145 74.8536 142.27 75.75C142.395 76.6464 142.87 77.4566 143.592 78.0023C144.314 78.5481 145.224 78.7846 146.12 78.66C146.628 78.5931 147.115 78.4128 147.544 78.1324C147.974 77.852 148.335 77.4787 148.6 77.04L150.36 78.27C149.708 79.2186 148.791 79.9538 147.723 80.3834C146.655 80.8131 145.484 80.9181 144.356 80.6854C143.229 80.4527 142.195 79.8925 141.385 79.0751C140.574 78.2577 140.023 77.2193 139.8 76.09H139.83Z" fill="white"/>
<path d="M150.74 74.59C150.554 73.4355 150.719 72.2516 151.213 71.1918C151.707 70.132 152.508 69.2449 153.513 68.6456C154.517 68.0463 155.678 67.7622 156.845 67.8302C158.013 67.8982 159.133 68.3152 160.061 69.0271C160.988 69.739 161.681 70.713 162.049 71.8231C162.417 72.9332 162.443 74.1281 162.124 75.2532C161.805 76.3783 161.156 77.3818 160.26 78.1336C159.364 78.8854 158.263 79.351 157.1 79.47C156.359 79.5882 155.602 79.5541 154.875 79.3699C154.147 79.1856 153.465 78.855 152.87 78.3983C152.275 77.9416 151.779 77.3684 151.413 76.7136C151.047 76.0588 150.818 75.3362 150.74 74.59V74.59ZM159.85 73.65C159.769 73.0012 159.498 72.3906 159.072 71.8945C158.646 71.3984 158.084 71.0387 157.454 70.8603C156.825 70.6819 156.158 70.6926 155.535 70.8912C154.912 71.0898 154.361 71.4674 153.951 71.9769C153.541 72.4865 153.29 73.1054 153.23 73.7565C153.17 74.4076 153.302 75.0621 153.612 75.6383C153.921 76.2145 154.393 76.687 154.969 76.9967C155.544 77.3064 156.199 77.4397 156.85 77.38C157.299 77.3505 157.737 77.228 158.136 77.0204C158.535 76.8128 158.887 76.5245 159.169 76.1739C159.451 75.8232 159.657 75.4179 159.775 74.9834C159.892 74.549 159.917 74.0949 159.85 73.65V73.65Z" fill="white"/>
<path d="M174.31 77.92L173.88 71.54L171.09 77L169.99 77.07L166.54 72.15L166.95 78.39L164.64 78.54L164 67.91L166 67.78L170.4 74.13L173.89 67.28L175.89 67.15L176.61 77.77L174.31 77.92Z" fill="white"/>
<path d="M188.08 70.64C188.14 73.02 186.4 74.54 183.56 74.64L181.41 74.7L181.5 77.64L179.03 77.71L178.73 67L183.34 66.87C186.19 66.83 188 68.26 188.08 70.64ZM185.58 70.71C185.58 69.54 184.77 68.88 183.26 68.92L181.26 68.98L181.37 72.68L183.37 72.62C184.87 72.58 185.61 71.87 185.58 70.71Z" fill="white"/>
<path d="M190 66.77H192.46V75.41H197.8V77.41H190V66.77Z" fill="white"/>
<path d="M207.35 75.72V77.72L199.1 77.48L199.41 66.83L207.41 67.07L207.35 69.07L201.75 68.9L201.69 71.22L206.63 71.36L206.57 73.28L201.63 73.13L201.56 75.6L207.35 75.72Z" fill="white"/>
<path d="M211.91 69.3L208.51 69.1L208.63 67.1L217.89 67.66L217.77 69.66L214.37 69.45L213.85 78.08L211.39 77.93L211.91 69.3Z" fill="white"/>
<path d="M226.86 77.18L226.68 79.18L218.46 78.42L219.46 67.82L227.46 68.56L227.28 70.56L221.7 70L221.49 72.31L226.41 72.76L226.24 74.67L221.31 74.22L221.09 76.67L226.86 77.18Z" fill="white"/>
<path d="M229.94 68.79L234.73 69.43C238.18 69.89 240.27 72.28 239.85 75.43C239.43 78.58 236.77 80.43 233.32 79.93L228.53 79.29L229.94 68.79ZM233.47 77.96C233.905 78.0299 234.35 78.0118 234.778 77.9069C235.206 77.802 235.609 77.6124 235.963 77.3492C236.317 77.0861 236.614 76.7547 236.837 76.3747C237.061 75.9948 237.206 75.5738 237.264 75.1369C237.322 74.6999 237.292 74.2557 237.176 73.8305C237.059 73.4053 236.859 73.0077 236.587 72.6613C236.314 72.3148 235.975 72.0265 235.589 71.8133C235.203 71.6001 234.778 71.4664 234.34 71.42L232.11 71.12L231.24 77.66L233.47 77.96Z" fill="white"/>
<path d="M280.29 60.26L282.91 63.33L290.29 60.26L288.13 57.03L280.29 60.26Z" fill="#455A64"/>
<path d="M276.91 45.65C276.91 46.4095 276.685 47.1519 276.263 47.7834C275.841 48.4149 275.241 48.9071 274.539 49.1977C273.838 49.4883 273.066 49.5644 272.321 49.4162C271.576 49.268 270.892 48.9023 270.355 48.3653C269.818 47.8283 269.452 47.144 269.304 46.3991C269.156 45.6543 269.232 44.8822 269.522 44.1805C269.813 43.4788 270.305 42.8791 270.937 42.4572C271.568 42.0352 272.311 41.81 273.07 41.81C274.088 41.8126 275.063 42.2181 275.782 42.9376C276.502 43.6572 276.907 44.6324 276.91 45.65Z" fill="#315399"/>
<path d="M190.89 102.93C190.888 103.311 190.773 103.682 190.559 103.997C190.346 104.312 190.043 104.557 189.691 104.699C189.338 104.842 188.951 104.877 188.578 104.799C188.206 104.722 187.865 104.535 187.598 104.263C187.332 103.991 187.152 103.646 187.083 103.272C187.013 102.898 187.056 102.512 187.206 102.162C187.356 101.812 187.607 101.515 187.926 101.308C188.246 101.101 188.619 100.994 189 101C189.506 101.008 189.988 101.215 190.342 101.576C190.696 101.938 190.893 102.424 190.89 102.93Z" fill="#315399"/>
<path d="M101.44 74.07C101.44 74.3596 101.354 74.6427 101.192 74.8832C101.031 75.1237 100.802 75.3108 100.534 75.4207C100.266 75.5306 99.9715 75.5583 99.6877 75.5003C99.404 75.4423 99.1439 75.3013 98.9405 75.0951C98.7372 74.8889 98.5997 74.6269 98.5457 74.3424C98.4916 74.0579 98.5234 73.7637 98.637 73.4973C98.7505 73.2309 98.9408 73.0043 99.1835 72.8463C99.4262 72.6883 99.7104 72.606 100 72.61C100.384 72.6153 100.75 72.7714 101.019 73.0446C101.289 73.3179 101.44 73.6862 101.44 74.07V74.07Z" fill="#315399"/>
<path d="M96.02 58L100.32 58.26L102.36 49.8L98.34 49.97L96.02 58Z" fill="#455A64"/>
<path d="M230.42 125.53L231.87 129.59L240.45 128.15L238.72 124.52L230.42 125.53Z" fill="#315399"/>
<path d="M143.64 102.1L140.99 105.5L146.8 111.97L148.94 108.56L143.64 102.1Z" fill="#455A64"/>
<path d="M133.37 22.23L143.52 32.58L157.81 27.18L158.38 30.73L152.19 43.4L157.9 52.86L157.42 55.69L143.59 53.36L135.41 62.33L133.49 60.88L131.8 49.47L118.9 42.75L118.33 40.14L131.32 36.59L133.37 22.23Z" fill="#315399"/>
<g opacity="0.3">
<path d="M133.37 22.23L143.52 32.58L157.81 27.18L158.38 30.73L152.19 43.4L157.9 52.86L157.42 55.69L143.59 53.36L135.41 62.33L133.49 60.88L131.8 49.47L118.9 42.75L118.33 40.14L131.32 36.59L133.37 22.23Z" fill="black"/>
</g>
<path d="M133.37 19.32L143.52 29.68L157.81 27.18L151.1 40.04L157.9 52.86L143.59 50.46L133.49 60.88L131.36 46.53L118.33 40.14L131.32 33.68L133.37 19.32Z" fill="#315399"/>
<path d="M238.62 22.23L228.46 32.58L214.17 27.18L213.6 30.73L219.79 43.4L214.08 52.86L214.56 55.69L228.39 53.36L236.57 62.33L238.49 60.88L240.18 49.47L253.08 42.75L253.65 40.14L240.66 36.59L238.62 22.23Z" fill="#315399"/>
<g opacity="0.3">
<path d="M238.62 22.23L228.46 32.58L214.17 27.18L213.6 30.73L219.79 43.4L214.08 52.86L214.56 55.69L228.39 53.36L236.57 62.33L238.49 60.88L240.18 49.47L253.08 42.75L253.65 40.14L240.66 36.59L238.62 22.23Z" fill="black"/>
</g>
<path d="M238.62 19.32L228.46 29.68L214.17 27.18L220.88 40.04L214.08 52.86L228.39 50.46L238.49 60.88L240.62 46.53L253.65 40.14L240.66 33.68L238.62 19.32Z" fill="#315399"/>
<path d="M185.66 4.06L194.11 20.57L213.6 19.42L212.94 23.96L200.56 37.07L203.91 50.78L202.26 54.05L186.27 45.94L172.88 53.78L171.09 51.27L173.37 36.7L160.19 23.59L160.49 20.2L177.69 20.81L185.66 4.06Z" fill="#315399"/>
<g opacity="0.3">
<path d="M185.66 4.06L194.11 20.57L213.6 19.42L212.94 23.96L200.56 37.07L203.91 50.78L202.26 54.05L186.27 45.94L172.88 53.78L171.09 51.27L173.37 36.7L160.19 23.59L160.49 20.2L177.69 20.81L185.66 4.06Z" fill="black"/>
</g>
<path d="M186.76 0.520004L195.21 17.02L213.6 19.42L200.51 32.56L203.91 50.78L187.38 42.4L171.09 51.27L173.96 32.95L160.49 20.2L178.8 17.26L186.76 0.520004Z" fill="#315399"/>
<path d="M220.43 148.63L234.55 150.19C239.317 143.441 246.436 138.719 254.508 136.953C262.579 135.186 271.02 136.502 278.17 140.642C285.321 144.782 290.665 151.446 293.151 159.326C295.638 167.206 295.087 175.73 291.608 183.225C288.129 190.719 281.972 196.641 274.348 199.827C266.725 203.013 258.185 203.233 250.408 200.442C242.63 197.652 236.178 192.054 232.318 184.748C228.459 177.442 227.471 168.957 229.55 160.96V160.96L220.43 148.63Z" fill="#FAFAFA"/>
<path d="M220.43 148.63C220.98 149.37 223.84 153.15 229.68 160.9H229.47C229.477 160.884 229.488 160.869 229.501 160.857C229.515 160.845 229.531 160.837 229.548 160.832C229.565 160.827 229.583 160.826 229.601 160.829C229.619 160.833 229.635 160.84 229.65 160.85C229.673 160.864 229.692 160.885 229.703 160.91C229.713 160.935 229.716 160.963 229.71 160.99C228.279 166.6 228.355 172.489 229.93 178.06C230.393 179.732 231.005 181.358 231.76 182.92C232.16 183.72 232.54 184.54 232.97 185.35L234.46 187.72C239.218 194.617 246.416 199.453 254.6 201.25C259.131 202.246 263.821 202.266 268.36 201.31C273.145 200.269 277.641 198.186 281.53 195.21C285.603 192.117 288.877 188.095 291.08 183.48C293.361 178.787 294.485 173.616 294.36 168.4C294.214 163.41 292.95 158.516 290.66 154.08C288.506 149.875 285.454 146.194 281.72 143.3C274.993 138.101 266.528 135.681 258.07 136.54C254.496 136.969 251.007 137.933 247.72 139.4C242.49 141.817 237.984 145.561 234.65 150.26C234.64 150.279 234.623 150.294 234.603 150.303C234.584 150.313 234.561 150.315 234.54 150.31L220.43 148.63L234.57 150.06L234.45 150.12C237.773 145.357 242.301 141.562 247.57 139.12C250.873 137.598 254.391 136.593 258 136.14C266.574 135.232 275.168 137.66 282 142.92C285.799 145.849 288.903 149.581 291.09 153.85C293.428 158.35 294.717 163.321 294.86 168.39C294.992 173.688 293.853 178.941 291.54 183.71C289.298 188.397 285.969 192.48 281.83 195.62C277.878 198.637 273.31 200.747 268.45 201.8C263.831 202.772 259.057 202.741 254.45 201.71C246.179 199.887 238.91 194.985 234.12 188L232.62 185.6C232.19 184.78 231.81 183.94 231.4 183.13C230.648 181.548 230.039 179.901 229.58 178.21C228.011 172.579 227.97 166.632 229.46 160.98L229.7 161.07C229.681 161.099 229.653 161.12 229.62 161.129C229.586 161.139 229.551 161.135 229.52 161.12L220.43 148.63Z" fill="#263238"/>
<path d="M249.4 157.44C249.411 157.593 249.411 157.747 249.4 157.9C249.4 158.23 249.4 158.65 249.4 159.18C249.4 160.34 249.4 161.95 249.46 163.99C249.46 168.14 249.53 173.99 249.58 180.99L249.35 180.76H272.88C272.94 180.7 272.39 181.25 272.62 181.01V177.81C272.62 176.76 272.62 175.71 272.62 174.67V168.58C272.62 164.64 272.62 160.91 272.62 157.48L272.84 157.71L255.84 157.59L251.03 157.54H249.75H249.29H249.7H250.94L255.69 157.48L272.82 157.37H273.05V157.59C273.05 161.02 273.05 164.75 273.05 168.69V181C273.29 180.77 272.74 181.33 272.79 181.27H249.26H249.03V181C249.03 173.94 249.11 168.05 249.14 163.87C249.14 161.87 249.14 160.25 249.2 159.11C249.2 158.6 249.2 158.19 249.2 157.87C249.247 157.718 249.314 157.574 249.4 157.44Z" fill="#263238"/>
<path d="M270.39 161.33C270.73 161.6 267.57 166.16 263.32 171.52C262.48 172.59 261.65 173.61 260.88 174.52L260.38 175.13L259.82 174.62C256.14 171.31 253.65 168.77 253.87 168.51C254.09 168.25 256.98 170.35 260.79 173.51L259.72 173.61C260.45 172.61 261.25 171.61 262.1 170.55C266.34 165.19 270.06 161.07 270.39 161.33Z" fill="#315399"/>
</svg>
