<svg width="682" height="391" viewBox="0 0 682 391" fill="none" xmlns="http://www.w3.org/2000/svg">
<path d="M681.76 390.47C681.76 390.61 529.32 390.73 341.32 390.73C153.32 390.73 0.849976 390.61 0.849976 390.47C0.849976 390.33 153.26 390.21 341.32 390.21C529.38 390.21 681.76 390.33 681.76 390.47Z" fill="#263238"/>
<path d="M611.34 111.46C618.11 103.3 624.88 95.06 630.16 85.86C635.44 76.66 639.16 66.38 639.43 55.78C639.43 54.17 638.78 43.02 637.23 42.57C636.13 42.25 635.37 52.1 634.47 52.81C625.83 59.57 620.22 69.6 616.99 80.08C613.95 90.2983 612.055 100.823 611.34 111.46" fill="#263238"/>
<path d="M523.15 173.48C525.85 166.48 539.15 131.48 539.08 131.48C539.01 131.48 516.17 119.56 524.08 95.28C527.88 83.55 537.67 60.04 546.77 38.86C551.493 27.8866 560.175 19.0934 571.086 14.2295C581.998 9.36558 594.341 8.78741 605.66 12.61L607.99 13.4C632.65 23.4 637.99 49.87 627.32 74.24L578.32 187.74L535.38 174.47L523.15 173.48Z" fill="#FFBF9D"/>
<path d="M539.09 131.5C539.09 131.5 554.02 137.5 573.7 132.82C573.7 132.82 560.08 148.21 536.7 137.89L539.09 131.5Z" fill="#FF9A6C"/>
<path d="M546.73 62.23C546.418 63.1271 546.468 64.1104 546.87 64.9712C547.271 65.832 547.992 66.5023 548.88 66.84C549.307 67.0226 549.767 67.1179 550.232 67.1205C550.697 67.123 551.157 67.0327 551.587 66.8548C552.016 66.6768 552.406 66.4149 552.733 66.0844C553.059 65.7539 553.317 65.3614 553.49 64.93C553.804 64.033 553.756 63.0486 553.354 62.1871C552.952 61.3257 552.229 60.6556 551.34 60.32C550.913 60.136 550.453 60.0395 549.988 60.0363C549.522 60.0331 549.061 60.1232 548.632 60.3012C548.202 60.4793 547.812 60.7417 547.485 61.073C547.159 61.4043 546.902 61.7977 546.73 62.23V62.23Z" fill="#263238"/>
<path d="M548.51 50.66C548.79 51.26 552.06 50.2 555.77 51.47C559.48 52.74 561.58 55.47 562.13 55.19C562.4 55.06 562.24 54.1 561.34 52.83C560.112 51.1736 558.4 49.94 556.44 49.3C554.5 48.6301 552.397 48.602 550.44 49.22C549 49.71 548.37 50.39 548.51 50.66Z" fill="#263238"/>
<path d="M579.32 75.34C579.006 76.2356 579.055 77.2187 579.457 78.0785C579.859 78.9383 580.581 79.6065 581.47 79.94C581.897 80.124 582.357 80.2205 582.822 80.2237C583.287 80.2269 583.749 80.1368 584.178 79.9588C584.608 79.7807 584.998 79.5183 585.325 79.187C585.651 78.8557 585.908 78.4623 586.08 78.03C586.392 77.1329 586.342 76.1496 585.94 75.2888C585.539 74.428 584.818 73.7577 583.93 73.42C583.502 73.2377 583.042 73.1428 582.576 73.1409C582.111 73.1391 581.65 73.2303 581.221 73.4092C580.791 73.5881 580.402 73.851 580.075 74.1826C579.749 74.5142 579.492 74.9077 579.32 75.34Z" fill="#263238"/>
<path d="M584.4 64.45C584.67 65.05 587.95 64 591.66 65.26C595.37 66.52 597.46 69.26 598.02 68.99C598.28 68.85 598.13 67.89 597.23 66.63C595.998 64.9711 594.283 63.7344 592.32 63.09C590.381 62.418 588.276 62.3899 586.32 63.01C584.92 63.5 584.26 64.18 584.4 64.45Z" fill="#263238"/>
<path d="M561.43 88.5C561.52 88.3 559.34 87.12 555.76 85.38C554.85 84.96 554.01 84.47 554.07 83.76C554.13 83.05 554.82 82.11 555.65 81.17L560.9 74.89C568.27 65.89 573.95 58.42 573.58 58.12C573.21 57.82 566.95 64.86 559.58 73.83C557.79 76.05 556.07 78.16 554.44 80.19C553.72 81.19 552.69 82.19 552.69 83.75C552.716 84.1299 552.828 84.4989 553.017 84.8296C553.205 85.1603 553.466 85.4442 553.78 85.66C554.26 85.9781 554.777 86.2367 555.32 86.43C559 87.9 561.34 88.71 561.43 88.5Z" fill="#263238"/>
<path d="M571.5 94.76C570.9 94.53 569.5 98.56 565.12 100.25C560.74 101.94 556.55 100.06 556.33 100.61C556.19 100.84 557.03 101.71 558.82 102.38C561.174 103.206 563.743 103.181 566.08 102.31C568.32 101.464 570.144 99.7831 571.17 97.62C571.89 96 571.78 94.83 571.5 94.76Z" fill="#263238"/>
<path d="M589.69 49.45C589.69 50.58 593.59 51.36 597.77 53.35C601.95 55.34 605.08 57.73 605.96 57.02C606.36 56.67 606.07 55.51 604.96 54.02C603.471 52.1781 601.58 50.7008 599.433 49.7008C597.286 48.7008 594.938 48.2046 592.57 48.25C590.77 48.39 589.7 48.92 589.69 49.45Z" fill="#263238"/>
<path d="M554.22 38.83C554.59 39.9 557.44 39.83 560.53 40.83C563.62 41.83 566.03 43.32 566.92 42.64C567.33 42.3 567.21 41.32 566.34 40.13C565.132 38.6569 563.514 37.5752 561.692 37.0216C559.869 36.468 557.923 36.4674 556.1 37.02C554.72 37.57 554.07 38.32 554.22 38.83Z" fill="#263238"/>
<path d="M619.26 91.5C619.74 91.5 637.53 92.19 631.43 108.5C625.33 124.81 610.16 115.35 610.31 114.87C610.46 114.39 619.26 91.5 619.26 91.5Z" fill="#FFBF9D"/>
<path d="M617.62 110.58C617.71 110.58 617.83 110.89 618.23 111.29C618.796 111.836 619.554 112.137 620.34 112.13C622.34 112.13 624.78 109.94 625.96 107.02C626.529 105.633 626.778 104.136 626.69 102.64C626.732 102.069 626.633 101.497 626.401 100.973C626.169 100.45 625.811 99.9921 625.36 99.64C625.064 99.422 624.699 99.3173 624.332 99.3448C623.965 99.3723 623.62 99.5302 623.36 99.79C622.97 100.17 622.95 100.53 622.86 100.53C622.77 100.53 622.61 100.12 622.99 99.53C623.228 99.1647 623.579 98.8873 623.99 98.74C624.567 98.5693 625.187 98.6302 625.72 98.91C626.336 99.2987 626.842 99.8377 627.192 100.476C627.542 101.115 627.724 101.832 627.72 102.56C627.882 104.237 627.635 105.929 627 107.49C625.66 110.74 622.83 113.2 620.21 113C619.723 112.961 619.25 112.814 618.826 112.571C618.403 112.327 618.038 111.992 617.76 111.59C617.5 111 617.55 110.59 617.62 110.58Z" fill="#FF9A6C"/>
<path d="M567.64 15.93C565.56 13.47 576.75 7.93 584.36 7.51C595.86 6.83 611.87 9.83 619.91 15.86C629.61 23.11 636.56 31.99 638.22 43.98C639.88 55.97 637.51 68.29 632.86 79.47C631.44 82.88 629.7 86.33 626.74 88.54C623.09 91.27 617.85 91.86 616.13 96.91C615.845 97.8323 615.381 98.689 614.763 99.4306C614.145 100.172 613.386 100.784 612.53 101.23C608.33 103.23 605.83 98.88 605.3 95.23C604.17 87.47 606.69 79.7 609.18 72.23C610.95 66.95 612.78 61.56 616.18 57.13C618.02 54.72 620.28 52.65 621.99 50.13C623.7 47.61 624.81 44.46 623.99 41.55C623.781 40.9083 623.51 40.2887 623.18 39.7C621.668 36.8465 619.425 34.4462 616.681 32.7452C613.936 31.0442 610.788 30.1037 607.56 30.02C597.13 29.75 579.56 28.58 576.71 23.9C572.54 17.16 572.25 13.7 572.25 13.7L567.64 15.93Z" fill="#263238"/>
<path d="M622 5.88C623.05 6.41 647.62 21.59 647.46 43.73C647.3 65.87 643.25 71.29 643.25 71.29C644.074 72.3049 644.748 73.4331 645.25 74.64C645.91 76.32 642.14 82.02 638.91 80.12C616.85 59.65 586.45 47.89 551.77 37.12L525.61 27.75C517.95 26.08 516.04 23.23 519.78 22.46C522.65 21.86 546.41 20.66 546.41 20.66L551.54 19.08L567.54 7.77C567.54 7.77 566.92 5.21 570.17 4.38C573.42 3.55 601.34 -4.62 622 5.88Z" fill="#315399"/>
<path d="M552 27C552 27 552.347 27.1177 552.991 27.3028L555.965 28.0933C558.523 28.7408 562.161 29.8341 566.641 31.2301C578.235 35.0154 589.416 39.6528 600.058 45.0894C610.693 50.5488 620.953 56.5182 630.787 62.9687C634.594 65.4159 637.617 67.4511 639.709 68.8555L642.138 70.4618C642.693 70.8234 643 71 643 71C643 71 642.732 70.7813 642.187 70.3945L639.818 68.7125C637.746 67.2829 634.743 65.2141 630.966 62.7416C621.166 56.2152 610.903 50.2049 600.236 44.7446C589.562 39.2878 578.32 34.6739 566.651 30.961C561.849 29.4334 556.959 28.1114 552 27Z" fill="#263238"/>
<g opacity="0.3">
<path d="M642.34 26C642.34 26 615.22 11.48 600.24 13.24L602 13L588 14.16C585.63 14.36 582.92 14.43 581.3 12.7C581.3 12.7 589.79 9.1 603.2 9.17C616.61 9.24 636.29 14 642.34 26Z" fill="black"/>
</g>
<path d="M642.7 26.24C642.098 25.3348 641.43 24.4757 640.7 23.67C638.746 21.4395 636.538 19.4459 634.12 17.73C630.54 15.1654 626.601 13.1436 622.43 11.73C617.347 9.85806 611.921 9.10426 606.52 9.52C603.747 9.7994 600.995 10.2536 598.28 10.88C595.66 11.47 593.11 11.88 590.7 12.58C588.491 13.313 586.222 13.855 583.92 14.2C581.906 14.3991 579.872 14.1287 577.98 13.41C570.89 11.08 567.06 8.13 567.54 7.8C567.566 8.08731 567.698 8.3547 567.91 8.55C568.486 9.11284 569.131 9.60008 569.83 10C572.375 11.5234 575.078 12.7673 577.89 13.71C579.824 14.4578 581.904 14.752 583.97 14.57C586.297 14.2447 588.593 13.7194 590.83 13C593.19 12.35 595.77 11.91 598.39 11.32C601.088 10.7192 603.82 10.2784 606.57 10C611.906 9.59841 617.267 10.3311 622.3 12.15C626.439 13.5349 630.359 15.5049 633.94 18C636.355 19.6812 638.579 21.6228 640.57 23.79C641.28 24.56 641.81 25.18 642.15 25.61C642.49 26.04 642.7 26.24 642.7 26.24Z" fill="#263238"/>
<g opacity="0.3">
<path d="M647.14 52.88C642 51.07 638.56 48.4 633.83 45.52C628.83 42.46 623.72 39.66 618.83 36.36C615.12 33.86 610.63 31.22 608.98 27.36C608.433 28.2964 608.137 29.3585 608.121 30.4432C608.105 31.5278 608.37 32.598 608.89 33.55C609.94 35.55 614.39 39.12 616.29 40.41C627.1 47.76 634.61 52.78 646.69 57.89C646.947 56.2349 647.094 54.5646 647.13 52.89" fill="black"/>
</g>
<path d="M647.4 41.28C650.18 43.81 651.85 45.45 650.99 48.28C650.28 50.62 648.84 53.28 646.42 52.91C645.704 52.7438 645.026 52.4453 644.42 52.03L611.3 32.64C610.101 32.1147 609.129 31.1785 608.56 30C607.9 28.12 609.56 26.06 611.47 25.54C613.38 25.02 615.42 25.54 617.32 26.2C628.1 29.69 637.93 35.05 647.4 41.27" fill="#315399"/>
<path d="M608.92 30.72C608.615 30.1419 608.47 29.4929 608.5 28.84C608.574 27.9589 608.895 27.1164 609.425 26.409C609.956 25.7017 610.675 25.1579 611.5 24.84C613.62 24.12 616.43 24.6 619.19 25.72C621.95 26.84 625.06 28.11 628.19 29.56C633.627 31.9713 638.837 34.8627 643.76 38.2C645.64 39.49 647.09 40.63 648.1 41.42L649.24 42.35C649.369 42.4647 649.51 42.5653 649.66 42.65C649.66 42.65 649.55 42.51 649.3 42.28L648.21 41.28C647.21 40.45 645.82 39.28 643.95 37.93C639.06 34.4986 633.845 31.5545 628.38 29.14C625.2 27.68 622.13 26.42 619.31 25.31C616.49 24.2 613.6 23.72 611.31 24.53C610.442 24.8762 609.692 25.4647 609.15 26.2254C608.607 26.986 608.295 27.8867 608.25 28.82C608.237 29.3211 608.343 29.8181 608.56 30.27C608.653 30.4398 608.775 30.5921 608.92 30.72Z" fill="#263238"/>
<path d="M562.52 11.36L585.03 18.57L580.98 24.22L556.85 15.36L562.52 11.36Z" fill="white"/>
<path d="M589.52 42.81C589.57 42.69 580.1 37.81 568.35 31.99C556.6 26.17 547 21.46 547 21.58C547 21.7 556.42 26.58 568.17 32.4C579.92 38.22 589.46 42.92 589.52 42.81Z" fill="#263238"/>
<path d="M595.19 164.13L595.49 149.35L544.91 168.14C544.91 168.14 535.56 137.77 535.56 136.34L524.35 143.34L505.72 135.34L487.09 126.14L449.41 192.14L409.88 308.68L503 370.8L572.06 296.8L614.06 232.8L637.14 192.28L595.19 164.13Z" fill="#315399"/>
<path d="M540.41 167.92C540.351 167.429 540.327 166.934 540.34 166.44C540.34 165.44 540.34 164.02 540.28 162.3L540.51 162.44C534.951 165.155 529.82 168.669 525.28 172.87L524.88 173.25V172.7C524.88 172.04 524.8 171.34 524.76 170.63C524.35 163.38 524.01 156.82 523.76 152.06C523.66 149.74 523.58 147.84 523.52 146.43C523.52 145.817 523.52 145.307 523.52 144.9C523.454 144.888 523.395 144.851 523.354 144.797C523.314 144.743 523.295 144.677 523.301 144.61C523.307 144.543 523.338 144.48 523.388 144.435C523.438 144.39 523.503 144.365 523.57 144.365C523.637 144.365 523.702 144.39 523.752 144.435C523.802 144.48 523.833 144.543 523.839 144.61C523.845 144.677 523.826 144.743 523.786 144.797C523.745 144.851 523.686 144.888 523.62 144.9C523.62 145.3 523.7 145.81 523.76 146.42C523.86 147.83 523.99 149.73 524.15 152.04C524.47 156.79 524.86 163.35 525.27 170.6C525.27 171.31 525.35 172.01 525.38 172.67L524.95 172.49C529.526 168.259 534.736 164.77 540.39 162.15L540.63 162.05V162.3C540.63 164.02 540.56 165.41 540.54 166.44C540.533 166.936 540.49 167.431 540.41 167.92Z" fill="#263238"/>
<path d="M590.53 164.84C590.349 164.966 590.155 165.07 589.95 165.15L588.26 165.96L582 168.83L561.24 178.11L551.38 182.47L550.96 182.65L551.04 182.2C551.854 177.512 552.235 172.758 552.18 168L552.41 168.14L547.74 170.41L546.49 170.99C546.21 171.12 546.06 171.18 546.05 171.16C546.172 171.06 546.307 170.976 546.45 170.91L547.66 170.25L552.27 167.85L552.49 167.73V168C552.631 172.798 552.296 177.598 551.49 182.33L551.15 182.06L561 177.68L581.82 168.53L588.16 165.81L589.89 165.1C590.092 164.987 590.307 164.9 590.53 164.84V164.84Z" fill="#263238"/>
<path d="M502.1 90.88H121.2C113.153 90.88 106.63 97.4032 106.63 105.45V369.19C106.63 377.237 113.153 383.76 121.2 383.76H502.1C510.147 383.76 516.67 377.237 516.67 369.19V105.45C516.67 97.4032 510.147 90.88 502.1 90.88Z" fill="#455A64"/>
<path d="M90.6 364.84H534.85V372.67C534.85 377.391 532.975 381.918 529.636 385.257C526.298 388.595 521.771 390.47 517.05 390.47H108.4C103.679 390.47 99.1516 388.595 95.8135 385.257C92.4753 381.918 90.6 377.391 90.6 372.67V364.84V364.84Z" fill="#455A64"/>
<path d="M504.52 102.52H117.64V349.85H504.52V102.52Z" fill="#263238"/>
<path d="M271.23 362.1L276.74 371.57H354.31L359.43 362.1H271.23Z" fill="#263238"/>
<path d="M494.07 110.89H128.87C127.064 110.89 125.6 112.354 125.6 114.16V345.78C125.6 347.586 127.064 349.05 128.87 349.05H494.07C495.876 349.05 497.34 347.586 497.34 345.78V114.16C497.34 112.354 495.876 110.89 494.07 110.89Z" fill="#EBEBEB"/>
<path d="M496.95 349.4H125.21L125.6 128.69H496.95V349.4Z" fill="#FAFAFA"/>
<path d="M156.84 120.09C156.811 120.688 156.607 121.264 156.253 121.747C155.899 122.23 155.412 122.599 154.851 122.808C154.29 123.017 153.68 123.056 153.096 122.922C152.513 122.787 151.982 122.485 151.569 122.051C151.156 121.618 150.879 121.073 150.772 120.484C150.666 119.895 150.735 119.287 150.97 118.737C151.205 118.187 151.597 117.717 152.097 117.387C152.596 117.057 153.181 116.881 153.78 116.88C154.611 116.901 155.4 117.251 155.974 117.852C156.547 118.454 156.859 119.259 156.84 120.09V120.09Z" fill="#263238"/>
<path d="M138.28 120.09C138.251 120.688 138.047 121.264 137.693 121.747C137.339 122.23 136.852 122.599 136.291 122.808C135.73 123.017 135.12 123.056 134.536 122.922C133.953 122.787 133.422 122.485 133.009 122.051C132.596 121.618 132.319 121.073 132.212 120.484C132.106 119.895 132.175 119.287 132.41 118.737C132.645 118.187 133.037 117.717 133.537 117.387C134.036 117.057 134.621 116.881 135.22 116.88C136.051 116.901 136.84 117.251 137.414 117.852C137.987 118.454 138.299 119.259 138.28 120.09V120.09Z" fill="#263238"/>
<path d="M147.82 120.09C147.791 120.688 147.587 121.264 147.233 121.747C146.879 122.23 146.392 122.599 145.831 122.808C145.27 123.017 144.66 123.056 144.076 122.922C143.493 122.787 142.962 122.485 142.549 122.051C142.136 121.618 141.859 121.073 141.752 120.484C141.646 119.895 141.715 119.287 141.95 118.737C142.185 118.187 142.577 117.717 143.077 117.387C143.576 117.057 144.161 116.881 144.76 116.88C145.591 116.901 146.38 117.251 146.954 117.852C147.527 118.454 147.839 119.259 147.82 120.09V120.09Z" fill="#263238"/>
<path d="M513.15 362.1C513.15 362.26 422.15 362.38 309.9 362.38C197.65 362.38 106.63 362.26 106.63 362.1C106.63 361.94 197.63 361.81 309.9 361.81C422.17 361.81 513.15 361.94 513.15 362.1Z" fill="#263238"/>
<path d="M271.54 171C277.584 167.352 284.088 164.527 290.88 162.6L294.88 143.45L327.22 142.88L331.88 161.88C338.733 163.572 345.331 166.168 351.5 169.6L367.85 158.89L391.12 181.36L381 198.09C384.65 204.137 387.475 210.644 389.4 217.44L408.54 221.44L409.11 253.78L390.11 258.44C388.414 265.275 385.814 271.852 382.38 278L393.1 294.35L370.63 317.62L353.92 307.49C347.873 311.14 341.366 313.965 334.57 315.89L330.57 335.04L298.22 335.6L293.57 316.6C286.734 314.925 280.153 312.346 274 308.93L257.65 319.65L234.38 297.18L244.51 280.47C240.857 274.424 238.028 267.916 236.1 261.12L216.96 257.12L216.39 224.78L235.39 220.12C237.08 213.266 239.677 206.668 243.11 200.5L232.4 184.15L254.87 160.88L271.54 171ZM288.78 214.09C284.013 219.027 280.818 225.267 279.598 232.021C278.378 238.774 279.187 245.738 281.924 252.031C284.662 258.324 289.204 263.664 294.976 267.376C300.748 271.089 307.491 273.006 314.353 272.885C321.215 272.765 327.887 270.613 333.525 266.701C339.164 262.789 343.516 257.293 346.031 250.907C348.546 244.522 349.111 237.534 347.655 230.828C346.199 224.121 342.787 217.997 337.85 213.23C334.57 210.066 330.698 207.579 326.457 205.912C322.216 204.244 317.687 203.428 313.131 203.511C308.574 203.593 304.078 204.573 299.9 206.393C295.722 208.214 291.943 210.839 288.78 214.12V214.09Z" fill="#E0E0E0"/>
<path d="M400.75 183.37C401.193 180.978 401.95 178.654 403 176.46L399 171.06L406.24 162.58L412.24 165.72C414.241 164.341 416.417 163.235 418.71 162.43L419.71 155.76L430.82 154.89L432.82 161.32C435.214 161.762 437.538 162.522 439.73 163.58L445.13 159.58L453.61 166.83L450.47 172.83C451.854 174.833 452.964 177.012 453.77 179.31L460.43 180.31L461.3 191.43L454.87 193.43C454.431 195.825 453.671 198.149 452.61 200.34L456.61 205.75L449.37 214.22L443.37 211.08C441.367 212.464 439.188 213.574 436.89 214.38L435.89 221.05L424.78 221.92L422.78 215.48C420.387 215.041 418.063 214.285 415.87 213.23L410.46 217.23L402 209.9L405.14 203.9C403.758 201.896 402.648 199.717 401.84 197.42L395.18 196.42L394.31 185.3L400.74 183.3L400.75 183.37ZM415.82 186.74C415.583 189.241 416.136 191.753 417.402 193.923C418.669 196.092 420.584 197.81 422.878 198.833C425.172 199.856 427.73 200.134 430.19 199.626C432.65 199.119 434.889 197.852 436.592 196.005C438.294 194.157 439.373 191.822 439.678 189.329C439.982 186.835 439.497 184.309 438.289 182.106C437.082 179.903 435.214 178.135 432.948 177.05C430.682 175.965 428.133 175.619 425.66 176.06C423.078 176.52 420.718 177.814 418.941 179.743C417.164 181.671 416.068 184.129 415.82 186.74V186.74Z" fill="#E0E0E0"/>
<path d="M157.22 295C157.301 292.127 157.768 289.278 158.61 286.53L152.94 281L159.88 269.82L167.4 272.42C169.5 270.449 171.854 268.768 174.4 267.42L174.34 259.47L187.16 256.47L190.63 263.62C193.503 263.7 196.352 264.168 199.1 265.01L204.69 259.34L215.87 266.28L213.27 273.8C215.241 275.9 216.922 278.254 218.27 280.8L226.22 280.74L229.22 293.55L222.06 297C221.971 299.873 221.5 302.721 220.66 305.47L226.33 311.05L219.39 322.24L211.87 319.64C209.772 321.613 207.417 323.295 204.87 324.64L204.93 332.59L192.12 335.59L188.64 328.44C185.775 328.34 182.936 327.856 180.2 327L174.62 332.67L163.43 325.73L166.03 318.21C164.059 316.11 162.377 313.756 161.03 311.21L153.03 311.27L150.03 298.46L157.18 294.98L157.22 295ZM175.75 298.6C176.392 301.316 177.825 303.781 179.868 305.683C181.91 307.585 184.47 308.839 187.225 309.287C189.98 309.735 192.806 309.356 195.345 308.199C197.885 307.042 200.025 305.158 201.495 302.785C202.964 300.413 203.698 297.658 203.603 294.868C203.507 292.079 202.588 289.38 200.96 287.114C199.332 284.847 197.068 283.113 194.456 282.132C191.843 281.15 188.998 280.965 186.28 281.6C184.468 282.022 182.757 282.798 181.246 283.884C179.735 284.97 178.453 286.343 177.474 287.926C176.496 289.508 175.84 291.269 175.544 293.106C175.248 294.943 175.318 296.82 175.75 298.63V298.6Z" fill="#E0E0E0"/>
<path d="M180.23 188.18C180.557 186.374 181.129 184.621 181.93 182.97L178.93 178.89L184.39 172.5L188.89 174.87C190.4 173.828 192.041 172.991 193.77 172.38L194.51 167.38L202.89 166.72L204.39 171.57C206.194 171.906 207.945 172.477 209.6 173.27L213.68 170.27L220.06 175.73L217.7 180.23C218.742 181.738 219.577 183.379 220.18 185.11L225.18 185.84L225.84 194.22L221 195.68C220.669 197.484 220.101 199.236 219.31 200.89L222.31 204.96L216.85 211.35L212.35 208.98C210.843 210.026 209.201 210.863 207.47 211.47L206.74 216.47L198.36 217.12L196.85 212.27C195.044 211.942 193.292 211.37 191.64 210.57L187.57 213.57L181.18 208.11L183.54 203.61C182.498 202.102 181.663 200.461 181.06 198.73L176.06 197.99L175.41 189.61L180.26 188.11L180.23 188.18ZM191.58 192.25C191.721 194.023 192.385 195.714 193.487 197.11C194.589 198.506 196.08 199.545 197.771 200.094C199.463 200.643 201.279 200.679 202.991 200.197C204.703 199.715 206.234 198.736 207.39 197.385C208.546 196.033 209.276 194.37 209.488 192.604C209.699 190.838 209.382 189.049 208.578 187.463C207.773 185.876 206.517 184.564 204.967 183.692C203.417 182.819 201.643 182.425 199.87 182.56C198.689 182.65 197.537 182.972 196.48 183.508C195.423 184.044 194.483 184.783 193.713 185.683C192.942 186.584 192.358 187.627 191.992 188.754C191.626 189.881 191.486 191.069 191.58 192.25V192.25Z" fill="#EBEBEB"/>
<path d="M401.17 278.43C401.459 276.879 401.95 275.373 402.63 273.95L400.02 270.45L404.71 264.96L408.58 266.96C409.875 266.063 411.284 265.343 412.77 264.82L413.4 260.5L420.6 259.94L421.89 264.11C423.442 264.395 424.948 264.886 426.37 265.57L429.87 262.96L435.36 267.65L433.36 271.51C434.257 272.808 434.977 274.221 435.5 275.71L439.82 276.34L440.38 283.54L436.21 284.83C435.925 286.382 435.434 287.888 434.75 289.31L437.36 292.81L432.67 298.29L428.81 296.29C427.509 297.184 426.097 297.903 424.61 298.43L423.98 302.74L416.78 303.3L415.49 299.14C413.939 298.851 412.433 298.36 411.01 297.68L407.51 300.29L402 295.6L404 291.74C403.103 290.445 402.383 289.036 401.86 287.55L397.55 286.92L396.98 279.72L401.15 278.43H401.17ZM410.92 281.92C411.038 283.45 411.608 284.911 412.558 286.117C413.507 287.323 414.794 288.22 416.253 288.694C417.713 289.168 419.281 289.198 420.758 288.78C422.235 288.362 423.554 287.514 424.549 286.346C425.544 285.177 426.169 283.738 426.346 282.214C426.522 280.689 426.242 279.146 425.54 277.781C424.839 276.416 423.748 275.289 422.405 274.545C421.063 273.801 419.53 273.472 418 273.6C415.959 273.768 414.069 274.738 412.742 276.298C411.415 277.857 410.76 279.879 410.92 281.92Z" fill="#EBEBEB"/>
<path d="M312.73 289.28H263C260.077 289.273 257.207 288.498 254.677 287.034C252.147 285.57 250.046 283.468 248.583 280.937C247.12 278.406 246.347 275.536 246.341 272.613C246.336 269.69 247.097 266.816 248.55 264.28L273.43 221.19L298.3 178.1C299.767 175.565 301.874 173.46 304.412 171.997C306.949 170.533 309.826 169.763 312.755 169.763C315.684 169.763 318.561 170.533 321.098 171.997C323.636 173.46 325.743 175.565 327.21 178.1L352.09 221.19L376.97 264.28C378.423 266.817 379.185 269.692 379.179 272.615C379.172 275.539 378.399 278.41 376.935 280.941C375.471 283.472 373.368 285.575 370.836 287.038C368.305 288.501 365.434 289.275 362.51 289.28H312.73Z" fill="#EC6B6C"/>
<path d="M366.29 269.22C366.29 269.22 366.42 269.47 366.67 269.99C367.097 271.032 367.26 272.163 367.145 273.283C367.03 274.403 366.64 275.477 366.01 276.41C365.515 277.147 364.88 277.779 364.14 278.27C363.28 278.817 362.297 279.141 361.28 279.21C352.8 279.3 340.56 279.28 325.42 279.32L272.24 279.38H264.64C263.284 279.365 261.967 278.93 260.869 278.135C259.771 277.34 258.947 276.223 258.51 274.94C258.046 273.658 257.96 272.27 258.26 270.94C258.34 270.61 258.45 270.28 258.56 269.94C258.67 269.6 258.85 269.31 259 269.01L260 267.26C261.28 264.91 262.58 262.55 263.88 260.16L280 230.57L296.22 201C298.827 196.22 301.393 191.53 303.92 186.93C304.56 185.79 305.15 184.64 305.83 183.51C306.506 182.356 307.471 181.397 308.63 180.73C309.766 180.079 311.041 179.709 312.349 179.65C313.657 179.591 314.96 179.844 316.15 180.39C317.331 180.924 318.361 181.742 319.15 182.77C319.833 183.807 320.451 184.886 321 186C322.17 188.14 323.33 190.25 324.46 192.33C326.74 196.49 328.943 200.527 331.07 204.44C335.34 212.25 339.31 219.53 342.93 226.17C350.17 239.46 356.02 250.22 360.07 257.67L364.71 266.24C365.23 267.24 365.63 267.96 365.9 268.48C366.17 269 366.3 269.25 366.3 269.25C366.3 269.25 366.14 269 365.86 268.5L364.62 266.29L359.89 257.76C355.81 250.33 349.89 239.61 342.61 226.35L330.7 204.64L324.06 192.55C322.92 190.47 321.77 188.36 320.59 186.22C320.04 185.14 319.429 184.091 318.76 183.08C318.022 182.12 317.061 181.354 315.96 180.85C314.84 180.336 313.613 180.096 312.381 180.152C311.15 180.208 309.949 180.557 308.88 181.17C307.796 181.804 306.894 182.706 306.26 183.79C305.6 184.88 305 186.05 304.37 187.19L296.67 201.26C291.45 210.82 286.03 220.71 280.49 230.85L264.3 260.42C262.99 262.81 261.7 265.18 260.41 267.52C259.707 268.622 259.152 269.813 258.76 271.06C258.475 272.306 258.554 273.608 258.99 274.81C259.385 276.001 260.144 277.038 261.159 277.775C262.174 278.512 263.395 278.913 264.65 278.92H272.25L325.43 278.97L361.28 279.02C362.262 278.963 363.215 278.66 364.05 278.14C364.779 277.667 365.407 277.055 365.9 276.34C366.67 275.207 367.081 273.869 367.08 272.5C367.068 271.361 366.798 270.24 366.29 269.22Z" fill="#263238"/>
<path d="M304.67 260C304.67 255.59 308.19 252.3 313.2 252.3C318.21 252.3 321.65 255.59 321.65 260C321.65 264.41 318.21 267.85 313.2 267.85C308.19 267.85 304.67 264.35 304.67 260ZM304.75 214.83H321.65L318.81 248.11H307.52L304.75 214.83Z" fill="white"/>
<path d="M315.11 173.12C314.087 172.774 313.026 172.553 311.95 172.46C309.335 172.404 306.783 173.259 304.73 174.88C302.726 176.551 301.112 178.64 300 181C299.09 182.8 298.66 184 298.58 183.95C298.607 183.655 298.678 183.365 298.79 183.09C299.04 182.324 299.334 181.572 299.67 180.84C300.727 178.363 302.363 176.175 304.44 174.46C306.58 172.762 309.274 171.921 312 172.1C312.817 172.161 313.617 172.357 314.37 172.68C314.86 172.91 315.13 173.09 315.11 173.12Z" fill="white"/>
<path d="M294.31 191.4C294.515 190.537 294.886 189.722 295.4 189C296.13 187.77 296.82 186.83 296.95 186.9C296.739 187.75 296.365 188.552 295.85 189.26C295.479 190.066 294.956 190.792 294.31 191.4Z" fill="white"/>
<g opacity="0.3">
<path d="M337.69 196.26L260.2 244L250.14 261.44L343.16 205.73L337.69 196.26Z" fill="white"/>
</g>
<g opacity="0.3">
<path d="M349.89 217.42L247.18 278C247.592 279.588 248.354 281.064 249.41 282.32L351.7 220.56L349.89 217.42Z" fill="white"/>
</g>
<path d="M603.72 330.4C599.815 326.097 594.755 323.009 589.142 321.505C583.53 320.002 577.603 320.146 572.07 321.92L562.5 311.42L561.17 309.93L485.44 226.84C487.568 221.908 488.345 216.498 487.691 211.167C487.036 205.835 484.974 200.774 481.715 196.504C478.457 192.233 474.12 188.908 469.151 186.868C464.182 184.829 458.759 184.15 453.44 184.9L449.74 186.37L462.61 195L461.92 209.05L451.51 218.5L437.46 217.81L428.28 207.69L424.49 209.18C423.4 217.65 429.08 228.33 435.27 235.18C439.168 239.477 444.219 242.563 449.823 244.068C455.426 245.573 461.343 245.435 466.87 243.67L543.87 328.15L546.23 330.78L553.53 338.78C551.247 344.102 550.541 349.969 551.496 355.681C552.452 361.393 555.029 366.711 558.92 371C565.08 377.8 573.26 382.34 581.77 382.11L585.57 380.63L576.38 370.5L577.07 356.5L587.48 347.05L601.48 347.73L606.86 359.34L610.66 357.85C611.832 353.056 611.812 348.047 610.602 343.262C609.393 338.477 607.03 334.061 603.72 330.4Z" fill="#E0E0E0"/>
<g opacity="0.3">
<path d="M603.72 330.4C599.815 326.097 594.755 323.009 589.142 321.505C583.53 320.002 577.603 320.146 572.07 321.92L562.5 311.42L561.17 309.93L485.44 226.84C487.568 221.908 488.345 216.498 487.691 211.167C487.036 205.835 484.974 200.774 481.715 196.504C478.457 192.233 474.12 188.908 469.151 186.868C464.182 184.829 458.759 184.15 453.44 184.9L449.74 186.37L462.61 195L461.92 209.05L451.51 218.5L437.46 217.81L428.28 207.69L424.49 209.18C423.4 217.65 429.08 228.33 435.27 235.18C439.168 239.477 444.219 242.563 449.823 244.068C455.426 245.573 461.343 245.435 466.87 243.67L543.87 328.15L546.23 330.78L553.53 338.78C551.247 344.102 550.541 349.969 551.496 355.681C552.452 361.393 555.029 366.711 558.92 371C565.08 377.8 573.26 382.34 581.77 382.11L585.57 380.63L576.38 370.5L577.07 356.5L587.48 347.05L601.48 347.73L606.86 359.34L610.66 357.85C611.832 353.056 611.812 348.047 610.602 343.262C609.393 338.477 607.03 334.061 603.72 330.4Z" fill="black"/>
</g>
<path d="M599.92 331.88C596.017 327.578 590.958 324.491 585.347 322.989C579.735 321.486 573.81 321.633 568.28 323.41L558.7 312.9L557.37 311.41L481.64 228.32C483.769 223.389 484.547 217.979 483.893 212.648C483.238 207.316 481.176 202.255 477.917 197.985C474.658 193.715 470.321 190.391 465.351 188.353C460.381 186.315 454.958 185.637 449.64 186.39L458.82 196.51L458.14 210.51L447.71 220L433.71 219.32L424.53 209.2C423.261 214.417 423.404 219.878 424.945 225.022C426.486 230.165 429.369 234.805 433.298 238.465C437.226 242.125 442.059 244.673 447.299 245.846C452.538 247.019 457.996 246.775 463.11 245.14L540.11 329.62L542.48 332.25L549.78 340.25C547.66 345.179 546.89 350.584 547.549 355.91C548.208 361.235 550.272 366.289 553.53 370.553C556.787 374.817 561.121 378.138 566.085 380.174C571.05 382.21 576.467 382.889 581.78 382.14L572.59 372L573.27 358L583.69 348.55L597.69 349.24L606.87 359.36C608.049 354.561 608.032 349.545 606.821 344.754C605.609 339.962 603.239 335.542 599.92 331.88V331.88Z" fill="#E0E0E0"/>
<path d="M599.92 331.88C599.92 331.88 600.36 332.36 601.19 333.33C602.372 334.807 603.42 336.386 604.32 338.05C607.796 344.584 608.756 352.165 607.02 359.36V359.56L606.88 359.41L597.69 349.3L597.77 349.35L583.77 348.68H583.87L573.47 358.14V358.03C573.27 362.39 573.04 367.14 572.8 372.08V371.95L581.91 382L582.15 382.26L581.8 382.31C576.729 383.047 571.555 382.488 566.758 380.685C561.962 378.882 557.7 375.894 554.37 372C550.746 367.791 548.358 362.662 547.47 357.18C546.526 351.433 547.241 345.536 549.53 340.18V340.42L462.84 245.33L463.11 245.4C457.631 247.131 451.778 247.297 446.21 245.88C438.454 243.874 431.799 238.897 427.682 232.024C423.566 225.151 422.318 216.935 424.21 209.15L424.33 208.67L424.66 209.03L433.84 219.15L433.66 219.07L447.71 219.75L447.52 219.82L458 210.36L457.91 210.54C458.14 205.8 458.37 201.13 458.6 196.49L458.66 196.67L449.48 186.55L449.17 186.2L449.63 186.14C455.16 185.358 460.799 186.111 465.93 188.315C471.062 190.52 475.49 194.091 478.73 198.64C481.83 202.98 483.731 208.061 484.24 213.37C484.712 218.487 483.905 223.642 481.89 228.37V228.13L568.44 323.29H568.32C572.439 321.975 576.792 321.555 581.087 322.061C585.382 322.566 589.519 323.984 593.22 326.22C595.101 327.368 596.857 328.709 598.46 330.22C599.46 331.29 600 331.84 600 331.84L598.42 330.26C596.803 328.756 595.041 327.417 593.16 326.26C589.468 324.059 585.35 322.669 581.079 322.183C576.808 321.696 572.482 322.125 568.39 323.44H568.32V323.38L481.61 228.38L481.51 228.27L481.57 228.14C483.553 223.467 484.343 218.374 483.87 213.32C483.37 208.091 481.493 203.088 478.43 198.82C475.24 194.345 470.882 190.831 465.831 188.664C460.781 186.497 455.232 185.759 449.79 186.53L449.94 186.12L459 196.34L459.07 196.41V196.52C458.85 201.147 458.623 205.813 458.39 210.52V210.63L458.31 210.7L447.9 220.15L447.82 220.22H447.71L433.71 219.53H433.6L433.53 219.45L424.34 209.33L424.79 209.22C423.534 214.39 423.676 219.801 425.201 224.898C426.726 229.996 429.579 234.595 433.468 238.227C437.356 241.858 442.141 244.389 447.33 245.562C452.52 246.735 457.928 246.506 463 244.9H463.15L463.27 245.02C494.75 279.6 524.27 311.97 549.9 340.15L550 340.26L549.94 340.4C547.69 345.668 546.979 351.465 547.89 357.12C548.767 362.386 551.024 367.325 554.432 371.434C557.84 375.543 562.277 378.675 567.29 380.51C571.915 382.183 576.88 382.698 581.75 382.01L581.63 382.32L572.46 372.2L572.41 372.14V372C572.65 367.07 572.88 362.32 573.1 358V357.93V357.88L583.53 348.45H583.59L597.59 349.15C600.95 352.87 604.04 356.28 606.75 359.29H606.57C608.319 352.141 607.398 344.598 603.98 338.08C603.093 336.416 602.066 334.83 600.91 333.34C600.33 332.39 599.92 331.88 599.92 331.88Z" fill="#263238"/>
<path d="M478.19 233.17C478.12 233.436 478.008 233.689 477.86 233.92C477.51 234.571 477.119 235.198 476.69 235.8C473.854 239.833 469.857 242.907 465.23 244.61C464.538 244.87 463.83 245.084 463.11 245.25C462.852 245.336 462.582 245.38 462.31 245.38C462.31 245.29 463.4 244.99 465.1 244.27C469.561 242.414 473.457 239.421 476.4 235.59C477.53 234.12 478.11 233.13 478.19 233.17Z" fill="#263238"/>
<path d="M562.76 269.26L534 255.86L508.29 252.65L517.73 260.65C517.73 260.65 484.49 272.24 483.91 274.85C483.33 277.46 486.53 284.48 492.39 283.18C492.39 283.18 489.1 287.18 490.47 291.59C491.84 296 494.87 296.83 500.47 295.8C500.47 295.8 496.67 301.49 499.65 304.39C502.63 307.29 507.27 306.56 507.27 306.56C507.27 306.56 507.33 313.49 510.99 314.09C514.65 314.69 524.85 313.98 528.66 312.81L548.01 306.81L560.55 304L562.76 269.26Z" fill="#FFBF9D"/>
<path d="M509.82 278.06C509.93 278.44 506.1 279.88 501.28 281.29C496.46 282.7 492.44 283.52 492.33 283.14C492.22 282.76 496.05 281.31 500.87 279.91C505.69 278.51 509.71 277.68 509.82 278.06Z" fill="#FF9A6C"/>
<path d="M514.71 291.73C514.82 292.11 511.79 293.36 507.93 294.53C504.07 295.7 500.84 296.32 500.72 295.94C500.6 295.56 503.65 294.31 507.51 293.15C511.37 291.99 514.6 291.36 514.71 291.73Z" fill="#FF9A6C"/>
<path d="M519.1 303.1C519.17 303.53 516.41 304.1 513.17 304.92C509.93 305.74 507.4 306.92 507.17 306.51C506.94 306.1 509.32 304.45 512.77 303.51C516.22 302.57 519.05 302.75 519.1 303.1Z" fill="#FF9A6C"/>
<path d="M522.73 259.5C522.84 259.89 519.07 261.26 514.4 262.87C509.73 264.48 505.92 265.71 505.76 265.34C505.6 264.97 509.22 263.13 513.94 261.51C518.66 259.89 522.63 259.12 522.73 259.5Z" fill="#FF9A6C"/>
<path d="M557.34 266.74L619.63 289.3L615.99 332.05L547.41 304.4L557.34 266.74Z" fill="#FFBF9D"/>
<path d="M637.26 191.93C637.26 191.93 645.38 200.32 650.11 215.41C654.84 230.5 677.11 294.47 676.57 314.82C675.98 335.87 661.81 350.89 630.67 342.57C612.09 337.57 589.95 329.57 589.95 329.57L605.69 277.83L618 281L598.12 243.68L637.26 191.93Z" fill="#315399"/>
<path d="M623 216.38C623.12 216.47 614.5 228.74 603.76 243.79C593.02 258.84 584.23 271 584.11 270.9C583.99 270.8 592.61 258.54 603.35 243.49C614.09 228.44 622.89 216.3 623 216.38Z" fill="#263238"/>
<path d="M646.84 288C646.84 288 646.3 287.74 645.33 287.29C643.949 286.674 642.521 286.169 641.06 285.78C639.21 285.27 636.97 284.78 634.48 284.25L626.4 282.47C620.67 281.19 615.48 280 611.74 279.11L607.31 278.03C606.761 277.925 606.222 277.771 605.7 277.57C606.256 277.616 606.808 277.706 607.35 277.84L611.82 278.75C615.59 279.55 620.82 280.68 626.52 281.96L634.59 283.79C637.07 284.35 639.31 284.87 641.16 285.43C642.629 285.856 644.055 286.418 645.42 287.11C645.789 287.298 646.146 287.508 646.49 287.74C646.618 287.811 646.735 287.898 646.84 288V288Z" fill="#263238"/>
<g opacity="0.3">
<path d="M662.76 290.28C662.561 289.052 662.068 287.89 661.323 286.894C660.577 285.898 659.602 285.097 658.48 284.56C656.228 283.495 653.803 282.845 651.32 282.64C640.13 281.1 628.81 280.64 617.52 280.25L618.52 280.7C632.469 283.278 646.121 287.259 659.27 292.58C659.99 292.979 660.837 293.079 661.63 292.86C662.059 292.596 662.397 292.208 662.599 291.747C662.801 291.286 662.857 290.774 662.76 290.28V290.28Z" fill="black"/>
</g>
<g opacity="0.3">
<path d="M406.14 91.92C395.64 90.13 383.08 93.18 372.58 91.39C371.02 91.13 369.3 90.88 367.92 91.68C366.26 92.63 365.69 94.75 365.61 96.68C365.568 99.3281 366.08 101.956 367.113 104.394C368.147 106.833 369.678 109.028 371.61 110.84C375.542 114.435 380.453 116.781 385.72 117.58C389.91 118.29 394.42 118.15 398.15 116.13C404.71 112.57 407.86 99.13 406.14 91.92Z" fill="black"/>
</g>
<path d="M365.39 111.13C365.39 111.13 359.02 103.66 358.1 100.22C357.49 97.94 357.79 91.55 358.1 87.5C358.17 86.1352 358.639 84.8209 359.447 83.7192C360.256 82.6175 361.369 81.7765 362.65 81.3C363.025 81.1139 363.444 81.0332 363.861 81.0667C364.279 81.1001 364.679 81.2465 365.02 81.49C365.885 80.3169 366.856 79.2256 367.92 78.23C370.42 75.67 371.61 73.94 377.11 75.53C377.11 75.53 381.16 71.26 383.49 71.58C385.054 71.8113 386.6 72.1454 388.12 72.58C388.12 72.58 396.99 72.2 398.81 75.02C399.844 76.293 401.238 77.2238 402.81 77.69C404.197 78.1796 405.472 78.9425 406.56 79.9336C407.647 80.9247 408.524 82.1238 409.14 83.46C410.175 85.9142 410.774 88.53 410.91 91.19L401.91 91.55C401.91 91.55 402.55 112.26 400.28 113.93C398.01 115.6 397.15 115 397.15 115C397.15 115 395.42 119.86 388.67 116.27C388.67 116.27 383.07 117.96 380.67 115.65C378.27 113.34 369.49 91.15 369.49 91.15L369.74 102.15C369.74 102.15 374.37 109.28 372.1 110.95C369.83 112.62 365.39 111.13 365.39 111.13Z" fill="#FFBF9D"/>
<path d="M376.63 83.06C376.843 83.4753 377.014 83.9108 377.14 84.36L378.36 87.96C379.36 90.96 380.73 95.24 382.19 99.91C383.65 104.58 384.87 108.91 386.25 111.75C386.781 112.894 387.396 113.997 388.09 115.05C388.58 115.8 388.89 116.18 388.86 116.21C388.83 116.24 388.75 116.14 388.59 115.96C388.355 115.709 388.135 115.445 387.93 115.17C387.161 114.149 386.492 113.058 385.93 111.91C384.44 109.02 383.19 104.73 381.71 100.07C380.23 95.41 378.94 91.15 378.02 88.07C377.6 86.6 377.24 85.38 376.96 84.42C376.808 83.9778 376.698 83.5225 376.63 83.06V83.06Z" fill="#FF9A6C"/>
<path d="M387.7 80.5C387.9 80.9291 388.055 81.3783 388.16 81.84L389.23 85.55C390.1 88.68 391.23 93.02 392.55 97.82C393.87 102.62 394.94 106.98 395.72 110.14C396.09 111.64 396.39 112.9 396.63 113.88C396.764 114.337 396.852 114.806 396.89 115.28C396.701 114.846 396.547 114.398 396.43 113.94C396.15 112.94 395.8 111.72 395.37 110.23C394.49 107.1 393.31 102.76 392.05 97.96C390.79 93.16 389.66 88.8 388.87 85.64C388.51 84.13 388.2 82.88 387.97 81.89C387.836 81.4363 387.746 80.9709 387.7 80.5V80.5Z" fill="#FF9A6C"/>
</svg>
