<svg width="23" height="23" viewBox="0 0 23 23" fill="none" xmlns="http://www.w3.org/2000/svg">
<g clip-path="url(#clip0_530_2)">
<path fill-rule="evenodd" clip-rule="evenodd" d="M7.49694 0.978143C6.86518 1.04865 6.13197 1.32546 5.58214 1.70101C5.17286 1.98055 4.86319 2.28592 4.45351 2.8139C4.32497 2.97951 4.05019 3.54456 4.07635 3.58941C4.09094 3.6144 4.08841 3.62189 4.07073 3.606C4.02878 3.56835 3.84526 4.12165 3.79207 4.44606C3.73497 4.79435 3.73326 5.56681 3.78894 5.85545C3.91867 6.52803 4.221 7.20393 4.62503 7.72468C4.78253 7.92768 5.17349 8.31476 5.37517 8.46734C5.4366 8.51381 5.49243 8.56449 5.49925 8.58002C5.50609 8.5955 5.52619 8.6082 5.54391 8.6082C5.56166 8.6082 5.65189 8.6586 5.74447 8.72018C6.08083 8.94404 6.77529 9.21601 7.18054 9.28263C7.53018 9.34011 7.98704 9.37421 8.13664 9.35401L8.3034 9.33148L8.27682 8.97902C8.2622 8.78515 8.24701 8.60395 8.24303 8.57635C8.23774 8.53975 8.15242 8.52261 7.928 8.51311C6.98597 8.47321 6.19924 8.13322 5.57041 7.49433C5.15354 7.07081 4.87146 6.59282 4.72223 6.05702C4.61974 5.68899 4.58371 4.97541 4.64786 4.58337C4.86271 3.27012 5.89333 2.19622 7.22942 1.8933C7.82563 1.75813 8.26213 1.76425 8.89136 1.91665C9.63856 2.09756 10.3925 2.63765 10.8447 3.31582L11.0655 3.64714L11.4309 3.46634C11.6319 3.36688 11.7963 3.2666 11.7963 3.24348C11.7963 3.22036 11.6887 3.04198 11.557 2.84708C10.9311 1.91988 9.92854 1.24835 8.8509 1.03433C8.48931 0.962503 7.86796 0.93674 7.49694 0.978143ZM13.6017 3.78156C12.5107 3.97124 11.5699 4.44283 10.7735 5.19915C9.13064 6.75938 8.69076 9.16338 9.67582 11.1984C10.0429 11.9568 10.785 12.7998 11.4945 13.2645C12.3779 13.8431 13.2055 14.1033 14.2773 14.1394C15.2337 14.1717 15.9466 14.0201 16.8076 13.6013C18.2842 12.8832 19.3006 11.5722 19.6543 9.92948C19.7211 9.61975 19.7373 9.42526 19.7373 8.93853C19.7373 8.28389 19.6694 7.8513 19.4779 7.28688C18.8967 5.5733 17.4422 4.27055 15.6402 3.84964C15.1367 3.73204 14.088 3.69702 13.6017 3.78156ZM15.3885 4.66159C16.8905 4.97427 18.1929 6.14342 18.6807 7.61721C18.938 8.39441 18.9384 9.4744 18.6817 10.2598C18.5569 10.6419 18.2608 11.2088 18.0201 11.5267C17.3932 12.3546 16.5327 12.9197 15.5001 13.1813C15.136 13.2737 15.0247 13.2853 14.4951 13.2865C13.6957 13.2883 13.1004 13.1622 12.4974 12.8631C10.6193 11.9315 9.64251 9.84467 10.1568 7.86202C10.5907 6.18963 12.0108 4.901 13.7239 4.62533C14.1377 4.55874 14.9829 4.57717 15.3885 4.66159ZM4.35159 8.90671C4.04438 9.08436 3.68706 9.3298 3.42091 9.54605C3.16697 9.75238 2.49947 10.4405 2.36624 10.6332C2.2919 10.7407 2.18023 10.9 2.11806 10.987C1.62165 11.6822 1.14447 12.8998 0.983511 13.8821L0.958313 14.0359L1.1008 14.0697C1.36647 14.1326 1.76414 14.1838 1.78659 14.1578C1.79887 14.1437 1.83743 13.9834 1.87228 13.8017C1.90708 13.62 1.98797 13.3063 2.05199 13.1043C2.11602 12.9025 2.17204 12.7187 2.17651 12.6959C2.18734 12.6405 2.61613 11.7755 2.70178 11.6363C2.86441 11.3718 3.28723 10.8436 3.53917 10.5902C4.09921 10.0269 4.63434 9.66671 4.69274 9.814C4.71169 9.86183 5.10958 10.1724 5.32883 10.3106C5.82093 10.6206 6.31865 10.8188 6.91997 10.9445C7.44948 11.055 8.76979 11.0199 8.89962 10.8918C8.92818 10.8637 8.81286 10.3141 8.74693 10.1638C8.71332 10.0872 8.70848 10.0868 8.40268 10.1401C7.96054 10.217 7.30658 10.1829 6.84552 10.0588C6.15256 9.87227 5.59959 9.54421 5.05947 8.99928C4.90629 8.84476 4.75554 8.71956 4.72446 8.72106C4.69334 8.72257 4.52557 8.80611 4.35159 8.90671ZM4.70971 13.2604C4.13524 13.8074 3.63808 14.2766 2.62059 15.2321C2.10876 15.7127 1.64324 16.1501 1.5861 16.204L1.4822 16.302L1.62574 16.6669L1.76928 17.0317L2.54629 17.05L3.32327 17.0683L3.37345 17.2702C3.88588 19.3323 5.21068 20.7845 7.3071 21.5824C7.79068 21.7665 8.70222 22.0166 8.82261 21.9982C8.87907 21.9895 8.93506 21.8995 9.04439 21.6416C9.12483 21.4518 9.19064 21.2848 9.19064 21.2704C9.19064 21.2561 9.06554 21.1498 8.91262 21.0345C8.36638 20.6219 7.84272 20.0034 7.54359 19.4174C7.26173 18.8652 7.02282 17.957 6.98843 17.3069L6.97581 17.0683L7.73369 17.05L8.49157 17.0317L8.63984 16.6647L8.7881 16.2976L8.64218 16.1691C8.56192 16.0985 7.74903 15.3346 6.83573 14.4716C5.92245 13.6086 5.15503 12.9025 5.13039 12.9025C5.10574 12.9025 4.91642 13.0635 4.70971 13.2604ZM10.0946 13.6738C9.6243 13.9458 9.14757 14.2723 8.78118 14.5733C8.32298 14.9497 8.33255 14.8918 8.67066 15.2422L8.96272 15.5447L9.22157 15.3202C9.49319 15.0845 10.0576 14.6742 10.2568 14.5676L10.3737 14.505L10.6625 14.749C11.4642 15.4262 12.3051 15.8314 13.3559 16.0468C13.9844 16.1757 14.8833 16.1831 15.4796 16.0643C16.5789 15.8453 17.5979 15.3446 18.3612 14.6485C18.4403 14.5764 18.5212 14.5175 18.5411 14.5175C18.6033 14.5175 19.2451 14.9581 19.5576 15.2151C19.9713 15.5556 20.5155 16.1291 20.8139 16.5394C21.3341 17.2542 21.7758 18.2888 21.9722 19.2522C22.0774 19.7683 22.1576 20.5815 22.1385 20.9405L22.126 21.1792L16.347 21.1885L10.568 21.1977V21.6197V22.0417H16.7614H22.9549L22.9773 21.9591C23.0146 21.8219 23.0035 20.5039 22.9615 20.0753C22.686 17.2663 21.3363 15.1568 18.9022 13.7302C18.6421 13.5778 18.4173 13.4531 18.4028 13.4531C18.3882 13.4531 18.1888 13.6306 17.9597 13.8476C17.4901 14.2925 17.1329 14.5493 16.6497 14.7896C15.9643 15.1305 15.2702 15.2882 14.4561 15.2882C13.0903 15.2882 11.9766 14.8305 10.9556 13.8495C10.7287 13.6314 10.5277 13.4532 10.509 13.4535C10.4902 13.4536 10.3038 13.5528 10.0946 13.6738ZM5.19415 14.1051C5.21741 14.1199 5.57756 14.4551 5.99447 14.85C6.41138 15.2448 6.89034 15.6969 7.05885 15.8547C7.22737 16.0125 7.3562 16.1561 7.34514 16.1737C7.33409 16.1914 7.0472 16.2058 6.70761 16.2058H6.09017L6.11202 16.9124C6.12405 17.301 6.16048 17.7758 6.19299 17.9676C6.34009 18.8359 6.6281 19.6197 7.03365 20.2549C7.15199 20.4402 7.23486 20.5969 7.2178 20.6031C7.18091 20.6164 6.7098 20.3861 6.49491 20.2497C5.9418 19.8985 5.40785 19.4073 5.0517 18.9219C4.62816 18.3446 4.26824 17.4741 4.14879 16.7381C4.11603 16.5361 4.08092 16.3338 4.07077 16.2884C4.0526 16.2071 4.04337 16.2058 3.47604 16.2058C3.15907 16.2058 2.89977 16.1921 2.89977 16.1753C2.89977 16.1585 3.1625 15.8984 3.4836 15.5972C3.80465 15.2961 4.29463 14.8315 4.57239 14.5648C4.85013 14.2982 5.09413 14.0796 5.11461 14.0791C5.13508 14.0786 5.17088 14.0903 5.19415 14.1051Z" fill="#6D7175" stroke="#6D7175" stroke-width="0.54"/>
</g>
<defs>
<clipPath id="clip0_530_2">
<rect width="23" height="23" fill="white"/>
</clipPath>
</defs>
</svg>
