<svg width="22" height="22" viewBox="0 0 22 22" fill="none" xmlns="http://www.w3.org/2000/svg">
<path d="M16.5 6.41667H14.4742C14.2976 5.74914 13.9856 5.12509 13.5575 4.58333H16.5C16.7431 4.58333 16.9763 4.48676 17.1482 4.31485C17.3201 4.14294 17.4167 3.90978 17.4167 3.66667C17.4167 3.42355 17.3201 3.19039 17.1482 3.01849C16.9763 2.84658 16.7431 2.75 16.5 2.75H6.41668C6.17356 2.75 5.94041 2.84658 5.7685 3.01849C5.59659 3.19039 5.50001 3.42355 5.50001 3.66667C5.50001 3.90978 5.59659 4.14294 5.7685 4.31485C5.94041 4.48676 6.17356 4.58333 6.41668 4.58333H9.62501C10.2302 4.58546 10.8225 4.75873 11.3334 5.08313C11.8444 5.40753 12.2531 5.86984 12.5125 6.41667H6.41668C6.17356 6.41667 5.94041 6.51324 5.7685 6.68515C5.59659 6.85706 5.50001 7.09022 5.50001 7.33333C5.50001 7.57645 5.59659 7.80961 5.7685 7.98151C5.94041 8.15342 6.17356 8.25 6.41668 8.25H12.8333C12.7235 9.01138 12.3437 9.70794 11.7632 10.2127C11.1827 10.7175 10.4401 10.9969 9.67085 11H6.41668C6.37401 10.9957 6.33102 10.9957 6.28835 11C6.2276 10.9905 6.16576 10.9905 6.10501 11C6.04253 11.0213 5.98376 11.0522 5.93085 11.0917L5.82085 11.1558C5.77063 11.2012 5.72739 11.2537 5.69251 11.3117C5.66181 11.3523 5.63423 11.3952 5.61001 11.44C5.60185 11.4947 5.60185 11.5503 5.61001 11.605C5.54469 11.6964 5.50656 11.8045 5.50001 11.9167C5.49572 11.9593 5.49572 12.0023 5.50001 12.045C5.49056 12.1057 5.49056 12.1676 5.50001 12.2283C5.52129 12.2908 5.55222 12.3496 5.59168 12.4025C5.59168 12.4025 5.59168 12.4758 5.65585 12.5125L11.1558 18.9292C11.3139 19.1139 11.5388 19.2284 11.7812 19.2473C12.0236 19.2662 12.2636 19.188 12.4483 19.03C12.6331 18.872 12.7475 18.647 12.7664 18.4046C12.7854 18.1622 12.7072 17.9223 12.5492 17.7375L8.41501 12.8333H9.62501C10.8864 12.8386 12.1039 12.3707 13.0373 11.5222C13.9706 10.6737 14.552 9.50617 14.6667 8.25H16.5C16.7431 8.25 16.9763 8.15342 17.1482 7.98151C17.3201 7.80961 17.4167 7.57645 17.4167 7.33333C17.4167 7.09022 17.3201 6.85706 17.1482 6.68515C16.9763 6.51324 16.7431 6.41667 16.5 6.41667Z" fill="#6D7175"/>
</svg>
