<svg width="23" height="22" viewBox="0 0 23 22" fill="none" xmlns="http://www.w3.org/2000/svg">
<path d="M11.6143 1.83301H11.2109C10.7247 1.83301 10.2584 2.02616 9.91457 2.36998C9.57075 2.7138 9.3776 3.18011 9.3776 3.66634V3.83134C9.37727 4.15284 9.2924 4.4686 9.13151 4.74694C8.97062 5.02529 8.73936 5.25643 8.46093 5.41717L8.06677 5.64634C7.78806 5.80725 7.47192 5.89196 7.1501 5.89196C6.82828 5.89196 6.51213 5.80725 6.23343 5.64634L6.09593 5.57301C5.67524 5.33033 5.17545 5.2645 4.70627 5.38996C4.23709 5.51542 3.83685 5.82192 3.59343 6.24217L3.39177 6.59051C3.14909 7.0112 3.08326 7.51099 3.20872 7.98017C3.33417 8.44936 3.64067 8.84959 4.06093 9.09301L4.19843 9.18468C4.47552 9.34464 4.70592 9.57434 4.86673 9.85094C5.02754 10.1275 5.11317 10.4414 5.1151 10.7613V11.2288C5.11638 11.5519 5.03228 11.8695 4.87131 12.1496C4.71033 12.4297 4.47821 12.6623 4.19843 12.8238L4.06093 12.9063C3.64067 13.1498 3.33417 13.55 3.20872 14.0192C3.08326 14.4884 3.14909 14.9882 3.39177 15.4088L3.59343 15.7572C3.83685 16.1774 4.23709 16.4839 4.70627 16.6094C5.17545 16.7349 5.67524 16.669 6.09593 16.4263L6.23343 16.353C6.51213 16.1921 6.82828 16.1074 7.1501 16.1074C7.47192 16.1074 7.78806 16.1921 8.06677 16.353L8.46093 16.5822C8.73936 16.7429 8.97062 16.9741 9.13151 17.2524C9.2924 17.5308 9.37727 17.8465 9.3776 18.168V18.333C9.3776 18.8192 9.57075 19.2856 9.91457 19.6294C10.2584 19.9732 10.7247 20.1663 11.2109 20.1663H11.6143C12.1005 20.1663 12.5668 19.9732 12.9106 19.6294C13.2544 19.2856 13.4476 18.8192 13.4476 18.333V18.168C13.4479 17.8465 13.5328 17.5308 13.6937 17.2524C13.8546 16.9741 14.0858 16.7429 14.3643 16.5822L14.7584 16.353C15.0371 16.1921 15.3533 16.1074 15.6751 16.1074C15.9969 16.1074 16.3131 16.1921 16.5918 16.353L16.7293 16.4263C17.15 16.669 17.6497 16.7349 18.1189 16.6094C18.5881 16.4839 18.9883 16.1774 19.2318 15.7572L19.4334 15.3997C19.6761 14.979 19.7419 14.4792 19.6165 14.01C19.491 13.5408 19.1845 13.1406 18.7643 12.8972L18.6268 12.8238C18.347 12.6623 18.1149 12.4297 17.9539 12.1496C17.7929 11.8695 17.7088 11.5519 17.7101 11.2288V10.7705C17.7088 10.4475 17.7929 10.1298 17.9539 9.84971C18.1149 9.56962 18.347 9.33703 18.6268 9.17551L18.7643 9.09301C19.1845 8.84959 19.491 8.44936 19.6165 7.98017C19.7419 7.51099 19.6761 7.0112 19.4334 6.59051L19.2318 6.24217C18.9883 5.82192 18.5881 5.51542 18.1189 5.38996C17.6497 5.2645 17.15 5.33033 16.7293 5.57301L16.5918 5.64634C16.3131 5.80725 15.9969 5.89196 15.6751 5.89196C15.3533 5.89196 15.0371 5.80725 14.7584 5.64634L14.3643 5.41717C14.0858 5.25643 13.8546 5.02529 13.6937 4.74694C13.5328 4.4686 13.4479 4.15284 13.4476 3.83134V3.66634C13.4476 3.18011 13.2544 2.7138 12.9106 2.36998C12.5668 2.02616 12.1005 1.83301 11.6143 1.83301V1.83301Z" stroke="#6D7175" stroke-width="1.8" stroke-linecap="round" stroke-linejoin="round"/>
<path d="M11.4121 13.75C12.9309 13.75 14.1621 12.5188 14.1621 11C14.1621 9.48122 12.9309 8.25 11.4121 8.25C9.89333 8.25 8.66211 9.48122 8.66211 11C8.66211 12.5188 9.89333 13.75 11.4121 13.75Z" stroke="#6D7175" stroke-width="1.8" stroke-linecap="round" stroke-linejoin="round"/>
</svg>
