<svg width="19" height="18" viewBox="0 0 19 18" fill="none" xmlns="http://www.w3.org/2000/svg">
<path d="M13.5122 6C14.7548 6 15.7622 4.99264 15.7622 3.75C15.7622 2.50736 14.7548 1.5 13.5122 1.5C12.2696 1.5 11.2622 2.50736 11.2622 3.75C11.2622 4.99264 12.2696 6 13.5122 6Z" stroke="#132F3A" stroke-width="1.5" stroke-linecap="round" stroke-linejoin="round"/>
<path d="M4.51221 11.25C5.75485 11.25 6.76221 10.2426 6.76221 9C6.76221 7.75736 5.75485 6.75 4.51221 6.75C3.26957 6.75 2.26221 7.75736 2.26221 9C2.26221 10.2426 3.26957 11.25 4.51221 11.25Z" stroke="#132F3A" stroke-width="1.5" stroke-linecap="round" stroke-linejoin="round"/>
<path d="M13.5122 16.5C14.7548 16.5 15.7622 15.4926 15.7622 14.25C15.7622 13.0074 14.7548 12 13.5122 12C12.2696 12 11.2622 13.0074 11.2622 14.25C11.2622 15.4926 12.2696 16.5 13.5122 16.5Z" stroke="#132F3A" stroke-width="1.5" stroke-linecap="round" stroke-linejoin="round"/>
<path d="M6.45361 10.1328L11.5761 13.1178" stroke="#132F3A" stroke-width="1.5" stroke-linecap="round" stroke-linejoin="round"/>
<path d="M11.5686 4.88281L6.45361 7.86781" stroke="#132F3A" stroke-width="1.5" stroke-linecap="round" stroke-linejoin="round"/>
</svg>
