<svg width="32" height="33" viewBox="0 0 32 33" fill="none" xmlns="http://www.w3.org/2000/svg">
<rect y="0.514648" width="32" height="32" rx="6" fill="#FEF7F7"/>
<g clip-path="url(#clip0_2788_842)">
<path d="M18.311 23.9814L16.5332 25.7592L14.7554 23.9814H10.3065C9.83622 23.9814 9.38516 23.7946 9.0526 23.462C8.72004 23.1295 8.5332 22.6784 8.5332 22.2081V9.75478C8.5332 8.77522 9.32698 7.98145 10.3065 7.98145H22.7599C23.7394 7.98145 24.5332 8.77522 24.5332 9.75478V22.2081C24.5332 22.6784 24.3464 23.1295 24.0138 23.462C23.6812 23.7946 23.2302 23.9814 22.7599 23.9814H18.311ZM22.7554 22.2037V9.75922H10.311V22.2037H15.4914L16.5332 23.2454L17.575 22.2037H22.7554ZM12.9528 21.4748C12.4061 21.238 11.8846 20.9467 11.3963 20.6054C11.9601 19.7317 12.7341 19.0133 13.6473 18.5161C14.5606 18.0188 15.584 17.7586 16.6239 17.7592C18.7572 17.7592 20.639 18.8321 21.7599 20.4677C21.2809 20.822 20.7675 21.1272 20.2274 21.3788C19.8158 20.8081 19.2743 20.3435 18.6478 20.0233C18.0212 19.703 17.3275 19.5364 16.6239 19.537C15.0994 19.537 13.7528 20.305 12.9528 21.4748ZM16.5332 16.8703C16.1246 16.8703 15.7201 16.7899 15.3426 16.6335C14.9652 16.4772 14.6222 16.248 14.3333 15.9591C14.0444 15.6702 13.8153 15.3273 13.6589 14.9498C13.5026 14.5723 13.4221 14.1678 13.4221 13.7592C13.4221 13.3507 13.5026 12.9461 13.6589 12.5687C13.8153 12.1912 14.0444 11.8482 14.3333 11.5593C14.6222 11.2704 14.9652 11.0413 15.3426 10.8849C15.7201 10.7286 16.1246 10.6481 16.5332 10.6481C17.3583 10.6481 18.1496 10.9759 18.7331 11.5593C19.3165 12.1428 19.6443 12.9341 19.6443 13.7592C19.6443 14.5843 19.3165 15.3757 18.7331 15.9591C18.1496 16.5426 17.3583 16.8703 16.5332 16.8703ZM16.5332 15.0926C16.8868 15.0926 17.226 14.9521 17.476 14.702C17.7261 14.452 17.8665 14.1128 17.8665 13.7592C17.8665 13.4056 17.7261 13.0665 17.476 12.8164C17.226 12.5664 16.8868 12.4259 16.5332 12.4259C16.1796 12.4259 15.8404 12.5664 15.5904 12.8164C15.3403 13.0665 15.1999 13.4056 15.1999 13.7592C15.1999 14.1128 15.3403 14.452 15.5904 14.702C15.8404 14.9521 16.1796 15.0926 16.5332 15.0926Z" fill="#EC6B6C"/>
</g>
<defs>
<clipPath id="clip0_2788_842">
<rect width="21.3333" height="21.3333" fill="white" transform="translate(5.33398 5.84863)"/>
</clipPath>
</defs>
</svg>
