<svg width="37" height="37" viewBox="0 0 37 37" fill="none" xmlns="http://www.w3.org/2000/svg">
<circle cx="18.5" cy="18.8906" r="18" fill="#4099FF"/>
<g clip-path="url(#clip0_2032_1519)">
<path d="M27.2316 13.5933C26.6054 13.8708 25.9326 14.0583 25.2254 14.1431C25.9552 13.7064 26.5011 13.0192 26.7614 12.2096C26.0758 12.6168 25.3254 12.9035 24.5429 13.0571C24.0167 12.4952 23.3197 12.1228 22.5601 11.9977C21.8006 11.8725 21.021 12.0017 20.3423 12.365C19.6637 12.7283 19.124 13.3056 18.807 14.0071C18.49 14.7086 18.4136 15.4951 18.5894 16.2446C17.2002 16.1748 15.8411 15.8137 14.6005 15.1847C13.3598 14.5558 12.2653 13.6729 11.3879 12.5936C11.0879 13.1111 10.9154 13.7111 10.9154 14.3501C10.9151 14.9253 11.0567 15.4917 11.3278 15.9991C11.5989 16.5065 11.991 16.9391 12.4694 17.2586C11.9146 17.2409 11.3721 17.091 10.8869 16.8213V16.8663C10.8868 17.6731 11.1659 18.4551 11.6768 19.0796C12.1876 19.704 12.8988 20.1325 13.6896 20.2923C13.175 20.4316 12.6354 20.4521 12.1116 20.3523C12.3348 21.0465 12.7694 21.6536 13.3547 22.0885C13.94 22.5234 14.6466 22.7644 15.3756 22.7778C14.138 23.7494 12.6096 24.2764 11.0361 24.2741C10.7574 24.2741 10.479 24.2579 10.2021 24.2253C11.7993 25.2522 13.6584 25.7972 15.5571 25.7951C21.9846 25.7951 25.4984 20.4716 25.4984 15.8546C25.4984 15.7046 25.4946 15.5531 25.4879 15.4031C26.1714 14.9088 26.7613 14.2967 27.2302 13.5956L27.2316 13.5933Z" fill="white"/>
</g>
<defs>
<clipPath id="clip0_2032_1519">
<rect width="18" height="18" fill="white" transform="translate(9.5 9.89062)"/>
</clipPath>
</defs>
</svg>
