<svg width="73" height="73" viewBox="0 0 73 73" fill="none" xmlns="http://www.w3.org/2000/svg">
<circle cx="36.2031" cy="36.5" r="35.5" fill="#EAEAEA" stroke="#C4C4C4" stroke-dasharray="3 3"/>
<path d="M36.2031 17.667C38.4132 17.667 40.5329 18.5801 42.0957 20.2054C43.6585 21.8307 44.5364 24.0351 44.5364 26.3337C44.5364 28.6322 43.6585 30.8366 42.0957 32.4619C40.5329 34.0872 38.4132 35.0003 36.2031 35.0003C33.993 35.0003 31.8733 34.0872 30.3105 32.4619C28.7477 30.8366 27.8698 28.6322 27.8698 26.3337C27.8698 24.0351 28.7477 21.8307 30.3105 20.2054C31.8733 18.5801 33.993 17.667 36.2031 17.667ZM36.2031 52.3337C36.2031 52.3337 52.8698 52.3337 52.8698 48.0003C52.8698 42.8003 44.7448 37.167 36.2031 37.167C27.6614 37.167 19.5364 42.8003 19.5364 48.0003C19.5364 52.3337 36.2031 52.3337 36.2031 52.3337Z" fill="#8C9196"/>
</svg>
